G04 EAGLE Gerber RS-274X export*
G75*
%MOMM*%
%FSLAX34Y34*%
%LPD*%
%INSolderpaste Top*%
%IPPOS*%
%AMOC8*
5,1,8,0,0,1.08239X$1,22.5*%
G01*
%ADD10R,1.200000X2.000000*%
%ADD11R,0.600000X1.350000*%
%ADD12R,1.100000X0.250000*%
%ADD13R,1.100000X1.000000*%
%ADD14R,1.000000X1.100000*%
%ADD15C,0.300000*%


D10*
X99000Y14050D03*
X155000Y14050D03*
D11*
X112000Y50800D03*
X122000Y50800D03*
X132000Y50800D03*
X142000Y50800D03*
D12*
X167910Y122175D03*
X167910Y127175D03*
X167910Y132175D03*
X167910Y137175D03*
X167910Y117125D03*
X214160Y122175D03*
X214160Y127175D03*
X214160Y132175D03*
X214160Y137175D03*
X214160Y117125D03*
D10*
X155000Y239950D03*
X99000Y239950D03*
D11*
X142000Y203200D03*
X132000Y203200D03*
X122000Y203200D03*
X112000Y203200D03*
D13*
X277900Y107950D03*
X260900Y107950D03*
D14*
X294800Y86750D03*
X294800Y103750D03*
D13*
X260900Y82550D03*
X277900Y82550D03*
X277900Y146050D03*
X260900Y146050D03*
D14*
X294800Y167250D03*
X294800Y150250D03*
D13*
X260900Y171450D03*
X277900Y171450D03*
X167250Y152400D03*
X150250Y152400D03*
X213750Y171450D03*
X230750Y171450D03*
X167250Y171450D03*
X150250Y171450D03*
X213750Y152400D03*
X230750Y152400D03*
X93100Y101600D03*
X110100Y101600D03*
X93100Y152400D03*
X110100Y152400D03*
X62620Y31750D03*
X79620Y31750D03*
D15*
X65850Y16200D02*
X65850Y9200D01*
X58850Y9200D01*
X58850Y16200D01*
X65850Y16200D01*
X65850Y12050D02*
X58850Y12050D01*
X58850Y14900D02*
X65850Y14900D01*
X83390Y16200D02*
X83390Y9200D01*
X76390Y9200D01*
X76390Y16200D01*
X83390Y16200D01*
X83390Y12050D02*
X76390Y12050D01*
X76390Y14900D02*
X83390Y14900D01*
D10*
X624780Y14050D03*
X680780Y14050D03*
D11*
X637780Y50800D03*
X647780Y50800D03*
X657780Y50800D03*
X667780Y50800D03*
D12*
X693690Y122175D03*
X693690Y127175D03*
X693690Y132175D03*
X693690Y137175D03*
X693690Y117125D03*
X739940Y122175D03*
X739940Y127175D03*
X739940Y132175D03*
X739940Y137175D03*
X739940Y117125D03*
D10*
X680780Y239950D03*
X624780Y239950D03*
D11*
X667780Y203200D03*
X657780Y203200D03*
X647780Y203200D03*
X637780Y203200D03*
D13*
X803680Y107950D03*
X786680Y107950D03*
D14*
X820580Y86750D03*
X820580Y103750D03*
D13*
X786680Y82550D03*
X803680Y82550D03*
X803680Y146050D03*
X786680Y146050D03*
D14*
X820580Y167250D03*
X820580Y150250D03*
D13*
X786680Y171450D03*
X803680Y171450D03*
X693030Y152400D03*
X676030Y152400D03*
X739530Y171450D03*
X756530Y171450D03*
X693030Y171450D03*
X676030Y171450D03*
X739530Y152400D03*
X756530Y152400D03*
X618880Y101600D03*
X635880Y101600D03*
X618880Y152400D03*
X635880Y152400D03*
X588400Y31750D03*
X605400Y31750D03*
D15*
X591630Y16200D02*
X591630Y9200D01*
X584630Y9200D01*
X584630Y16200D01*
X591630Y16200D01*
X591630Y12050D02*
X584630Y12050D01*
X584630Y14900D02*
X591630Y14900D01*
X609170Y16200D02*
X609170Y9200D01*
X602170Y9200D01*
X602170Y16200D01*
X609170Y16200D01*
X609170Y12050D02*
X602170Y12050D01*
X602170Y14900D02*
X609170Y14900D01*
D10*
X1150560Y14050D03*
X1206560Y14050D03*
D11*
X1163560Y50800D03*
X1173560Y50800D03*
X1183560Y50800D03*
X1193560Y50800D03*
D12*
X1219470Y122175D03*
X1219470Y127175D03*
X1219470Y132175D03*
X1219470Y137175D03*
X1219470Y117125D03*
X1265720Y122175D03*
X1265720Y127175D03*
X1265720Y132175D03*
X1265720Y137175D03*
X1265720Y117125D03*
D10*
X1206560Y239950D03*
X1150560Y239950D03*
D11*
X1193560Y203200D03*
X1183560Y203200D03*
X1173560Y203200D03*
X1163560Y203200D03*
D13*
X1329460Y107950D03*
X1312460Y107950D03*
D14*
X1346360Y86750D03*
X1346360Y103750D03*
D13*
X1312460Y82550D03*
X1329460Y82550D03*
X1329460Y146050D03*
X1312460Y146050D03*
D14*
X1346360Y167250D03*
X1346360Y150250D03*
D13*
X1312460Y171450D03*
X1329460Y171450D03*
X1218810Y152400D03*
X1201810Y152400D03*
X1265310Y171450D03*
X1282310Y171450D03*
X1218810Y171450D03*
X1201810Y171450D03*
X1265310Y152400D03*
X1282310Y152400D03*
X1144660Y101600D03*
X1161660Y101600D03*
X1144660Y152400D03*
X1161660Y152400D03*
X1114180Y31750D03*
X1131180Y31750D03*
D15*
X1117410Y16200D02*
X1117410Y9200D01*
X1110410Y9200D01*
X1110410Y16200D01*
X1117410Y16200D01*
X1117410Y12050D02*
X1110410Y12050D01*
X1110410Y14900D02*
X1117410Y14900D01*
X1134950Y16200D02*
X1134950Y9200D01*
X1127950Y9200D01*
X1127950Y16200D01*
X1134950Y16200D01*
X1134950Y12050D02*
X1127950Y12050D01*
X1127950Y14900D02*
X1134950Y14900D01*
D10*
X1676340Y14050D03*
X1732340Y14050D03*
D11*
X1689340Y50800D03*
X1699340Y50800D03*
X1709340Y50800D03*
X1719340Y50800D03*
D12*
X1745250Y122175D03*
X1745250Y127175D03*
X1745250Y132175D03*
X1745250Y137175D03*
X1745250Y117125D03*
X1791500Y122175D03*
X1791500Y127175D03*
X1791500Y132175D03*
X1791500Y137175D03*
X1791500Y117125D03*
D10*
X1732340Y239950D03*
X1676340Y239950D03*
D11*
X1719340Y203200D03*
X1709340Y203200D03*
X1699340Y203200D03*
X1689340Y203200D03*
D13*
X1855240Y107950D03*
X1838240Y107950D03*
D14*
X1872140Y86750D03*
X1872140Y103750D03*
D13*
X1838240Y82550D03*
X1855240Y82550D03*
X1855240Y146050D03*
X1838240Y146050D03*
D14*
X1872140Y167250D03*
X1872140Y150250D03*
D13*
X1838240Y171450D03*
X1855240Y171450D03*
X1744590Y152400D03*
X1727590Y152400D03*
X1791090Y171450D03*
X1808090Y171450D03*
X1744590Y171450D03*
X1727590Y171450D03*
X1791090Y152400D03*
X1808090Y152400D03*
X1670440Y101600D03*
X1687440Y101600D03*
X1670440Y152400D03*
X1687440Y152400D03*
X1639960Y31750D03*
X1656960Y31750D03*
D15*
X1643190Y16200D02*
X1643190Y9200D01*
X1636190Y9200D01*
X1636190Y16200D01*
X1643190Y16200D01*
X1643190Y12050D02*
X1636190Y12050D01*
X1636190Y14900D02*
X1643190Y14900D01*
X1660730Y16200D02*
X1660730Y9200D01*
X1653730Y9200D01*
X1653730Y16200D01*
X1660730Y16200D01*
X1660730Y12050D02*
X1653730Y12050D01*
X1653730Y14900D02*
X1660730Y14900D01*
D10*
X99000Y273130D03*
X155000Y273130D03*
D11*
X112000Y309880D03*
X122000Y309880D03*
X132000Y309880D03*
X142000Y309880D03*
D12*
X167910Y381255D03*
X167910Y386255D03*
X167910Y391255D03*
X167910Y396255D03*
X167910Y376205D03*
X214160Y381255D03*
X214160Y386255D03*
X214160Y391255D03*
X214160Y396255D03*
X214160Y376205D03*
D10*
X155000Y499030D03*
X99000Y499030D03*
D11*
X142000Y462280D03*
X132000Y462280D03*
X122000Y462280D03*
X112000Y462280D03*
D13*
X277900Y367030D03*
X260900Y367030D03*
D14*
X294800Y345830D03*
X294800Y362830D03*
D13*
X260900Y341630D03*
X277900Y341630D03*
X277900Y405130D03*
X260900Y405130D03*
D14*
X294800Y426330D03*
X294800Y409330D03*
D13*
X260900Y430530D03*
X277900Y430530D03*
X167250Y411480D03*
X150250Y411480D03*
X213750Y430530D03*
X230750Y430530D03*
X167250Y430530D03*
X150250Y430530D03*
X213750Y411480D03*
X230750Y411480D03*
X93100Y360680D03*
X110100Y360680D03*
X93100Y411480D03*
X110100Y411480D03*
X62620Y290830D03*
X79620Y290830D03*
D15*
X65850Y275280D02*
X65850Y268280D01*
X58850Y268280D01*
X58850Y275280D01*
X65850Y275280D01*
X65850Y271130D02*
X58850Y271130D01*
X58850Y273980D02*
X65850Y273980D01*
X83390Y275280D02*
X83390Y268280D01*
X76390Y268280D01*
X76390Y275280D01*
X83390Y275280D01*
X83390Y271130D02*
X76390Y271130D01*
X76390Y273980D02*
X83390Y273980D01*
D10*
X624780Y273130D03*
X680780Y273130D03*
D11*
X637780Y309880D03*
X647780Y309880D03*
X657780Y309880D03*
X667780Y309880D03*
D12*
X693690Y381255D03*
X693690Y386255D03*
X693690Y391255D03*
X693690Y396255D03*
X693690Y376205D03*
X739940Y381255D03*
X739940Y386255D03*
X739940Y391255D03*
X739940Y396255D03*
X739940Y376205D03*
D10*
X680780Y499030D03*
X624780Y499030D03*
D11*
X667780Y462280D03*
X657780Y462280D03*
X647780Y462280D03*
X637780Y462280D03*
D13*
X803680Y367030D03*
X786680Y367030D03*
D14*
X820580Y345830D03*
X820580Y362830D03*
D13*
X786680Y341630D03*
X803680Y341630D03*
X803680Y405130D03*
X786680Y405130D03*
D14*
X820580Y426330D03*
X820580Y409330D03*
D13*
X786680Y430530D03*
X803680Y430530D03*
X693030Y411480D03*
X676030Y411480D03*
X739530Y430530D03*
X756530Y430530D03*
X693030Y430530D03*
X676030Y430530D03*
X739530Y411480D03*
X756530Y411480D03*
X618880Y360680D03*
X635880Y360680D03*
X618880Y411480D03*
X635880Y411480D03*
X588400Y290830D03*
X605400Y290830D03*
D15*
X591630Y275280D02*
X591630Y268280D01*
X584630Y268280D01*
X584630Y275280D01*
X591630Y275280D01*
X591630Y271130D02*
X584630Y271130D01*
X584630Y273980D02*
X591630Y273980D01*
X609170Y275280D02*
X609170Y268280D01*
X602170Y268280D01*
X602170Y275280D01*
X609170Y275280D01*
X609170Y271130D02*
X602170Y271130D01*
X602170Y273980D02*
X609170Y273980D01*
D10*
X1150560Y273130D03*
X1206560Y273130D03*
D11*
X1163560Y309880D03*
X1173560Y309880D03*
X1183560Y309880D03*
X1193560Y309880D03*
D12*
X1219470Y381255D03*
X1219470Y386255D03*
X1219470Y391255D03*
X1219470Y396255D03*
X1219470Y376205D03*
X1265720Y381255D03*
X1265720Y386255D03*
X1265720Y391255D03*
X1265720Y396255D03*
X1265720Y376205D03*
D10*
X1206560Y499030D03*
X1150560Y499030D03*
D11*
X1193560Y462280D03*
X1183560Y462280D03*
X1173560Y462280D03*
X1163560Y462280D03*
D13*
X1329460Y367030D03*
X1312460Y367030D03*
D14*
X1346360Y345830D03*
X1346360Y362830D03*
D13*
X1312460Y341630D03*
X1329460Y341630D03*
X1329460Y405130D03*
X1312460Y405130D03*
D14*
X1346360Y426330D03*
X1346360Y409330D03*
D13*
X1312460Y430530D03*
X1329460Y430530D03*
X1218810Y411480D03*
X1201810Y411480D03*
X1265310Y430530D03*
X1282310Y430530D03*
X1218810Y430530D03*
X1201810Y430530D03*
X1265310Y411480D03*
X1282310Y411480D03*
X1144660Y360680D03*
X1161660Y360680D03*
X1144660Y411480D03*
X1161660Y411480D03*
X1114180Y290830D03*
X1131180Y290830D03*
D15*
X1117410Y275280D02*
X1117410Y268280D01*
X1110410Y268280D01*
X1110410Y275280D01*
X1117410Y275280D01*
X1117410Y271130D02*
X1110410Y271130D01*
X1110410Y273980D02*
X1117410Y273980D01*
X1134950Y275280D02*
X1134950Y268280D01*
X1127950Y268280D01*
X1127950Y275280D01*
X1134950Y275280D01*
X1134950Y271130D02*
X1127950Y271130D01*
X1127950Y273980D02*
X1134950Y273980D01*
D10*
X1676340Y273130D03*
X1732340Y273130D03*
D11*
X1689340Y309880D03*
X1699340Y309880D03*
X1709340Y309880D03*
X1719340Y309880D03*
D12*
X1745250Y381255D03*
X1745250Y386255D03*
X1745250Y391255D03*
X1745250Y396255D03*
X1745250Y376205D03*
X1791500Y381255D03*
X1791500Y386255D03*
X1791500Y391255D03*
X1791500Y396255D03*
X1791500Y376205D03*
D10*
X1732340Y499030D03*
X1676340Y499030D03*
D11*
X1719340Y462280D03*
X1709340Y462280D03*
X1699340Y462280D03*
X1689340Y462280D03*
D13*
X1855240Y367030D03*
X1838240Y367030D03*
D14*
X1872140Y345830D03*
X1872140Y362830D03*
D13*
X1838240Y341630D03*
X1855240Y341630D03*
X1855240Y405130D03*
X1838240Y405130D03*
D14*
X1872140Y426330D03*
X1872140Y409330D03*
D13*
X1838240Y430530D03*
X1855240Y430530D03*
X1744590Y411480D03*
X1727590Y411480D03*
X1791090Y430530D03*
X1808090Y430530D03*
X1744590Y430530D03*
X1727590Y430530D03*
X1791090Y411480D03*
X1808090Y411480D03*
X1670440Y360680D03*
X1687440Y360680D03*
X1670440Y411480D03*
X1687440Y411480D03*
X1639960Y290830D03*
X1656960Y290830D03*
D15*
X1643190Y275280D02*
X1643190Y268280D01*
X1636190Y268280D01*
X1636190Y275280D01*
X1643190Y275280D01*
X1643190Y271130D02*
X1636190Y271130D01*
X1636190Y273980D02*
X1643190Y273980D01*
X1660730Y275280D02*
X1660730Y268280D01*
X1653730Y268280D01*
X1653730Y275280D01*
X1660730Y275280D01*
X1660730Y271130D02*
X1653730Y271130D01*
X1653730Y273980D02*
X1660730Y273980D01*
D10*
X99000Y532210D03*
X155000Y532210D03*
D11*
X112000Y568960D03*
X122000Y568960D03*
X132000Y568960D03*
X142000Y568960D03*
D12*
X167910Y640335D03*
X167910Y645335D03*
X167910Y650335D03*
X167910Y655335D03*
X167910Y635285D03*
X214160Y640335D03*
X214160Y645335D03*
X214160Y650335D03*
X214160Y655335D03*
X214160Y635285D03*
D10*
X155000Y758110D03*
X99000Y758110D03*
D11*
X142000Y721360D03*
X132000Y721360D03*
X122000Y721360D03*
X112000Y721360D03*
D13*
X277900Y626110D03*
X260900Y626110D03*
D14*
X294800Y604910D03*
X294800Y621910D03*
D13*
X260900Y600710D03*
X277900Y600710D03*
X277900Y664210D03*
X260900Y664210D03*
D14*
X294800Y685410D03*
X294800Y668410D03*
D13*
X260900Y689610D03*
X277900Y689610D03*
X167250Y670560D03*
X150250Y670560D03*
X213750Y689610D03*
X230750Y689610D03*
X167250Y689610D03*
X150250Y689610D03*
X213750Y670560D03*
X230750Y670560D03*
X93100Y619760D03*
X110100Y619760D03*
X93100Y670560D03*
X110100Y670560D03*
X62620Y549910D03*
X79620Y549910D03*
D15*
X65850Y534360D02*
X65850Y527360D01*
X58850Y527360D01*
X58850Y534360D01*
X65850Y534360D01*
X65850Y530210D02*
X58850Y530210D01*
X58850Y533060D02*
X65850Y533060D01*
X83390Y534360D02*
X83390Y527360D01*
X76390Y527360D01*
X76390Y534360D01*
X83390Y534360D01*
X83390Y530210D02*
X76390Y530210D01*
X76390Y533060D02*
X83390Y533060D01*
D10*
X624780Y532210D03*
X680780Y532210D03*
D11*
X637780Y568960D03*
X647780Y568960D03*
X657780Y568960D03*
X667780Y568960D03*
D12*
X693690Y640335D03*
X693690Y645335D03*
X693690Y650335D03*
X693690Y655335D03*
X693690Y635285D03*
X739940Y640335D03*
X739940Y645335D03*
X739940Y650335D03*
X739940Y655335D03*
X739940Y635285D03*
D10*
X680780Y758110D03*
X624780Y758110D03*
D11*
X667780Y721360D03*
X657780Y721360D03*
X647780Y721360D03*
X637780Y721360D03*
D13*
X803680Y626110D03*
X786680Y626110D03*
D14*
X820580Y604910D03*
X820580Y621910D03*
D13*
X786680Y600710D03*
X803680Y600710D03*
X803680Y664210D03*
X786680Y664210D03*
D14*
X820580Y685410D03*
X820580Y668410D03*
D13*
X786680Y689610D03*
X803680Y689610D03*
X693030Y670560D03*
X676030Y670560D03*
X739530Y689610D03*
X756530Y689610D03*
X693030Y689610D03*
X676030Y689610D03*
X739530Y670560D03*
X756530Y670560D03*
X618880Y619760D03*
X635880Y619760D03*
X618880Y670560D03*
X635880Y670560D03*
X588400Y549910D03*
X605400Y549910D03*
D15*
X591630Y534360D02*
X591630Y527360D01*
X584630Y527360D01*
X584630Y534360D01*
X591630Y534360D01*
X591630Y530210D02*
X584630Y530210D01*
X584630Y533060D02*
X591630Y533060D01*
X609170Y534360D02*
X609170Y527360D01*
X602170Y527360D01*
X602170Y534360D01*
X609170Y534360D01*
X609170Y530210D02*
X602170Y530210D01*
X602170Y533060D02*
X609170Y533060D01*
D10*
X1150560Y532210D03*
X1206560Y532210D03*
D11*
X1163560Y568960D03*
X1173560Y568960D03*
X1183560Y568960D03*
X1193560Y568960D03*
D12*
X1219470Y640335D03*
X1219470Y645335D03*
X1219470Y650335D03*
X1219470Y655335D03*
X1219470Y635285D03*
X1265720Y640335D03*
X1265720Y645335D03*
X1265720Y650335D03*
X1265720Y655335D03*
X1265720Y635285D03*
D10*
X1206560Y758110D03*
X1150560Y758110D03*
D11*
X1193560Y721360D03*
X1183560Y721360D03*
X1173560Y721360D03*
X1163560Y721360D03*
D13*
X1329460Y626110D03*
X1312460Y626110D03*
D14*
X1346360Y604910D03*
X1346360Y621910D03*
D13*
X1312460Y600710D03*
X1329460Y600710D03*
X1329460Y664210D03*
X1312460Y664210D03*
D14*
X1346360Y685410D03*
X1346360Y668410D03*
D13*
X1312460Y689610D03*
X1329460Y689610D03*
X1218810Y670560D03*
X1201810Y670560D03*
X1265310Y689610D03*
X1282310Y689610D03*
X1218810Y689610D03*
X1201810Y689610D03*
X1265310Y670560D03*
X1282310Y670560D03*
X1144660Y619760D03*
X1161660Y619760D03*
X1144660Y670560D03*
X1161660Y670560D03*
X1114180Y549910D03*
X1131180Y549910D03*
D15*
X1117410Y534360D02*
X1117410Y527360D01*
X1110410Y527360D01*
X1110410Y534360D01*
X1117410Y534360D01*
X1117410Y530210D02*
X1110410Y530210D01*
X1110410Y533060D02*
X1117410Y533060D01*
X1134950Y534360D02*
X1134950Y527360D01*
X1127950Y527360D01*
X1127950Y534360D01*
X1134950Y534360D01*
X1134950Y530210D02*
X1127950Y530210D01*
X1127950Y533060D02*
X1134950Y533060D01*
D10*
X1676340Y532210D03*
X1732340Y532210D03*
D11*
X1689340Y568960D03*
X1699340Y568960D03*
X1709340Y568960D03*
X1719340Y568960D03*
D12*
X1745250Y640335D03*
X1745250Y645335D03*
X1745250Y650335D03*
X1745250Y655335D03*
X1745250Y635285D03*
X1791500Y640335D03*
X1791500Y645335D03*
X1791500Y650335D03*
X1791500Y655335D03*
X1791500Y635285D03*
D10*
X1732340Y758110D03*
X1676340Y758110D03*
D11*
X1719340Y721360D03*
X1709340Y721360D03*
X1699340Y721360D03*
X1689340Y721360D03*
D13*
X1855240Y626110D03*
X1838240Y626110D03*
D14*
X1872140Y604910D03*
X1872140Y621910D03*
D13*
X1838240Y600710D03*
X1855240Y600710D03*
X1855240Y664210D03*
X1838240Y664210D03*
D14*
X1872140Y685410D03*
X1872140Y668410D03*
D13*
X1838240Y689610D03*
X1855240Y689610D03*
X1744590Y670560D03*
X1727590Y670560D03*
X1791090Y689610D03*
X1808090Y689610D03*
X1744590Y689610D03*
X1727590Y689610D03*
X1791090Y670560D03*
X1808090Y670560D03*
X1670440Y619760D03*
X1687440Y619760D03*
X1670440Y670560D03*
X1687440Y670560D03*
X1639960Y549910D03*
X1656960Y549910D03*
D15*
X1643190Y534360D02*
X1643190Y527360D01*
X1636190Y527360D01*
X1636190Y534360D01*
X1643190Y534360D01*
X1643190Y530210D02*
X1636190Y530210D01*
X1636190Y533060D02*
X1643190Y533060D01*
X1660730Y534360D02*
X1660730Y527360D01*
X1653730Y527360D01*
X1653730Y534360D01*
X1660730Y534360D01*
X1660730Y530210D02*
X1653730Y530210D01*
X1653730Y533060D02*
X1660730Y533060D01*
D10*
X99000Y791290D03*
X155000Y791290D03*
D11*
X112000Y828040D03*
X122000Y828040D03*
X132000Y828040D03*
X142000Y828040D03*
D12*
X167910Y899415D03*
X167910Y904415D03*
X167910Y909415D03*
X167910Y914415D03*
X167910Y894365D03*
X214160Y899415D03*
X214160Y904415D03*
X214160Y909415D03*
X214160Y914415D03*
X214160Y894365D03*
D10*
X155000Y1017190D03*
X99000Y1017190D03*
D11*
X142000Y980440D03*
X132000Y980440D03*
X122000Y980440D03*
X112000Y980440D03*
D13*
X277900Y885190D03*
X260900Y885190D03*
D14*
X294800Y863990D03*
X294800Y880990D03*
D13*
X260900Y859790D03*
X277900Y859790D03*
X277900Y923290D03*
X260900Y923290D03*
D14*
X294800Y944490D03*
X294800Y927490D03*
D13*
X260900Y948690D03*
X277900Y948690D03*
X167250Y929640D03*
X150250Y929640D03*
X213750Y948690D03*
X230750Y948690D03*
X167250Y948690D03*
X150250Y948690D03*
X213750Y929640D03*
X230750Y929640D03*
X93100Y878840D03*
X110100Y878840D03*
X93100Y929640D03*
X110100Y929640D03*
X62620Y808990D03*
X79620Y808990D03*
D15*
X65850Y793440D02*
X65850Y786440D01*
X58850Y786440D01*
X58850Y793440D01*
X65850Y793440D01*
X65850Y789290D02*
X58850Y789290D01*
X58850Y792140D02*
X65850Y792140D01*
X83390Y793440D02*
X83390Y786440D01*
X76390Y786440D01*
X76390Y793440D01*
X83390Y793440D01*
X83390Y789290D02*
X76390Y789290D01*
X76390Y792140D02*
X83390Y792140D01*
D10*
X624780Y791290D03*
X680780Y791290D03*
D11*
X637780Y828040D03*
X647780Y828040D03*
X657780Y828040D03*
X667780Y828040D03*
D12*
X693690Y899415D03*
X693690Y904415D03*
X693690Y909415D03*
X693690Y914415D03*
X693690Y894365D03*
X739940Y899415D03*
X739940Y904415D03*
X739940Y909415D03*
X739940Y914415D03*
X739940Y894365D03*
D10*
X680780Y1017190D03*
X624780Y1017190D03*
D11*
X667780Y980440D03*
X657780Y980440D03*
X647780Y980440D03*
X637780Y980440D03*
D13*
X803680Y885190D03*
X786680Y885190D03*
D14*
X820580Y863990D03*
X820580Y880990D03*
D13*
X786680Y859790D03*
X803680Y859790D03*
X803680Y923290D03*
X786680Y923290D03*
D14*
X820580Y944490D03*
X820580Y927490D03*
D13*
X786680Y948690D03*
X803680Y948690D03*
X693030Y929640D03*
X676030Y929640D03*
X739530Y948690D03*
X756530Y948690D03*
X693030Y948690D03*
X676030Y948690D03*
X739530Y929640D03*
X756530Y929640D03*
X618880Y878840D03*
X635880Y878840D03*
X618880Y929640D03*
X635880Y929640D03*
X588400Y808990D03*
X605400Y808990D03*
D15*
X591630Y793440D02*
X591630Y786440D01*
X584630Y786440D01*
X584630Y793440D01*
X591630Y793440D01*
X591630Y789290D02*
X584630Y789290D01*
X584630Y792140D02*
X591630Y792140D01*
X609170Y793440D02*
X609170Y786440D01*
X602170Y786440D01*
X602170Y793440D01*
X609170Y793440D01*
X609170Y789290D02*
X602170Y789290D01*
X602170Y792140D02*
X609170Y792140D01*
D10*
X1150560Y791290D03*
X1206560Y791290D03*
D11*
X1163560Y828040D03*
X1173560Y828040D03*
X1183560Y828040D03*
X1193560Y828040D03*
D12*
X1219470Y899415D03*
X1219470Y904415D03*
X1219470Y909415D03*
X1219470Y914415D03*
X1219470Y894365D03*
X1265720Y899415D03*
X1265720Y904415D03*
X1265720Y909415D03*
X1265720Y914415D03*
X1265720Y894365D03*
D10*
X1206560Y1017190D03*
X1150560Y1017190D03*
D11*
X1193560Y980440D03*
X1183560Y980440D03*
X1173560Y980440D03*
X1163560Y980440D03*
D13*
X1329460Y885190D03*
X1312460Y885190D03*
D14*
X1346360Y863990D03*
X1346360Y880990D03*
D13*
X1312460Y859790D03*
X1329460Y859790D03*
X1329460Y923290D03*
X1312460Y923290D03*
D14*
X1346360Y944490D03*
X1346360Y927490D03*
D13*
X1312460Y948690D03*
X1329460Y948690D03*
X1218810Y929640D03*
X1201810Y929640D03*
X1265310Y948690D03*
X1282310Y948690D03*
X1218810Y948690D03*
X1201810Y948690D03*
X1265310Y929640D03*
X1282310Y929640D03*
X1144660Y878840D03*
X1161660Y878840D03*
X1144660Y929640D03*
X1161660Y929640D03*
X1114180Y808990D03*
X1131180Y808990D03*
D15*
X1117410Y793440D02*
X1117410Y786440D01*
X1110410Y786440D01*
X1110410Y793440D01*
X1117410Y793440D01*
X1117410Y789290D02*
X1110410Y789290D01*
X1110410Y792140D02*
X1117410Y792140D01*
X1134950Y793440D02*
X1134950Y786440D01*
X1127950Y786440D01*
X1127950Y793440D01*
X1134950Y793440D01*
X1134950Y789290D02*
X1127950Y789290D01*
X1127950Y792140D02*
X1134950Y792140D01*
D10*
X1676340Y791290D03*
X1732340Y791290D03*
D11*
X1689340Y828040D03*
X1699340Y828040D03*
X1709340Y828040D03*
X1719340Y828040D03*
D12*
X1745250Y899415D03*
X1745250Y904415D03*
X1745250Y909415D03*
X1745250Y914415D03*
X1745250Y894365D03*
X1791500Y899415D03*
X1791500Y904415D03*
X1791500Y909415D03*
X1791500Y914415D03*
X1791500Y894365D03*
D10*
X1732340Y1017190D03*
X1676340Y1017190D03*
D11*
X1719340Y980440D03*
X1709340Y980440D03*
X1699340Y980440D03*
X1689340Y980440D03*
D13*
X1855240Y885190D03*
X1838240Y885190D03*
D14*
X1872140Y863990D03*
X1872140Y880990D03*
D13*
X1838240Y859790D03*
X1855240Y859790D03*
X1855240Y923290D03*
X1838240Y923290D03*
D14*
X1872140Y944490D03*
X1872140Y927490D03*
D13*
X1838240Y948690D03*
X1855240Y948690D03*
X1744590Y929640D03*
X1727590Y929640D03*
X1791090Y948690D03*
X1808090Y948690D03*
X1744590Y948690D03*
X1727590Y948690D03*
X1791090Y929640D03*
X1808090Y929640D03*
X1670440Y878840D03*
X1687440Y878840D03*
X1670440Y929640D03*
X1687440Y929640D03*
X1639960Y808990D03*
X1656960Y808990D03*
D15*
X1643190Y793440D02*
X1643190Y786440D01*
X1636190Y786440D01*
X1636190Y793440D01*
X1643190Y793440D01*
X1643190Y789290D02*
X1636190Y789290D01*
X1636190Y792140D02*
X1643190Y792140D01*
X1660730Y793440D02*
X1660730Y786440D01*
X1653730Y786440D01*
X1653730Y793440D01*
X1660730Y793440D01*
X1660730Y789290D02*
X1653730Y789290D01*
X1653730Y792140D02*
X1660730Y792140D01*
M02*
