G04 EAGLE Gerber RS-274X export*
G75*
%MOMM*%
%FSLAX34Y34*%
%LPD*%
%INSolderpaste Top*%
%IPPOS*%
%AMOC8*
5,1,8,0,0,1.08239X$1,22.5*%
G01*
%ADD10R,1.200000X2.000000*%
%ADD11R,0.600000X1.350000*%
%ADD12R,1.100000X0.250000*%
%ADD13R,1.100000X1.000000*%
%ADD14R,1.000000X1.100000*%
%ADD15C,0.300000*%


D10*
X99000Y14050D03*
X155000Y14050D03*
D11*
X112000Y50800D03*
X122000Y50800D03*
X132000Y50800D03*
X142000Y50800D03*
D12*
X167910Y122175D03*
X167910Y127175D03*
X167910Y132175D03*
X167910Y137175D03*
X167910Y117125D03*
X214160Y122175D03*
X214160Y127175D03*
X214160Y132175D03*
X214160Y137175D03*
X214160Y117125D03*
D10*
X155000Y239950D03*
X99000Y239950D03*
D11*
X142000Y203200D03*
X132000Y203200D03*
X122000Y203200D03*
X112000Y203200D03*
D13*
X277900Y107950D03*
X260900Y107950D03*
D14*
X294800Y86750D03*
X294800Y103750D03*
D13*
X260900Y82550D03*
X277900Y82550D03*
X277900Y146050D03*
X260900Y146050D03*
D14*
X294800Y167250D03*
X294800Y150250D03*
D13*
X260900Y171450D03*
X277900Y171450D03*
X167250Y152400D03*
X150250Y152400D03*
X213750Y171450D03*
X230750Y171450D03*
X167250Y171450D03*
X150250Y171450D03*
X213750Y152400D03*
X230750Y152400D03*
X93100Y101600D03*
X110100Y101600D03*
X93100Y152400D03*
X110100Y152400D03*
X62620Y31750D03*
X79620Y31750D03*
D15*
X65850Y16200D02*
X65850Y9200D01*
X58850Y9200D01*
X58850Y16200D01*
X65850Y16200D01*
X65850Y12050D02*
X58850Y12050D01*
X58850Y14900D02*
X65850Y14900D01*
X83390Y16200D02*
X83390Y9200D01*
X76390Y9200D01*
X76390Y16200D01*
X83390Y16200D01*
X83390Y12050D02*
X76390Y12050D01*
X76390Y14900D02*
X83390Y14900D01*
M02*
