G04 EAGLE Gerber RS-274X export*
G75*
%MOMM*%
%FSLAX34Y34*%
%LPD*%
%INBottom Copper*%
%IPPOS*%
%AMOC8*
5,1,8,0,0,1.08239X$1,22.5*%
G01*
%ADD10C,0.279400*%
%ADD11C,1.879600*%
%ADD12R,1.879600X1.879600*%
%ADD13R,0.660400X1.270000*%
%ADD14C,0.635000*%
%ADD15C,0.863600*%
%ADD16C,0.254000*%
%ADD17C,0.736600*%
%ADD18C,1.016000*%
%ADD19C,0.203200*%
%ADD20C,0.304800*%

G36*
X215748Y4083D02*
X215748Y4083D01*
X215893Y4098D01*
X215906Y4103D01*
X215919Y4105D01*
X216054Y4158D01*
X216191Y4209D01*
X216202Y4217D01*
X216215Y4222D01*
X216332Y4307D01*
X216452Y4390D01*
X216461Y4401D01*
X216472Y4408D01*
X216565Y4520D01*
X216660Y4631D01*
X216666Y4643D01*
X216675Y4653D01*
X216737Y4785D01*
X216802Y4916D01*
X216805Y4929D01*
X216810Y4941D01*
X216838Y5084D01*
X216868Y5227D01*
X216868Y5240D01*
X216870Y5253D01*
X216861Y5398D01*
X216855Y5544D01*
X216851Y5558D01*
X216850Y5571D01*
X216806Y5709D01*
X216763Y5849D01*
X216756Y5861D01*
X216752Y5873D01*
X216675Y5996D01*
X216599Y6121D01*
X216589Y6131D01*
X216582Y6142D01*
X216476Y6242D01*
X216372Y6344D01*
X216357Y6354D01*
X216351Y6360D01*
X216336Y6368D01*
X216238Y6433D01*
X213845Y7815D01*
X208720Y13922D01*
X205993Y21414D01*
X205993Y29386D01*
X208720Y36878D01*
X213844Y42985D01*
X220749Y46971D01*
X228600Y48355D01*
X236451Y46971D01*
X243355Y42985D01*
X248480Y36878D01*
X251207Y29386D01*
X251207Y21414D01*
X248480Y13922D01*
X243356Y7815D01*
X240962Y6433D01*
X240846Y6345D01*
X240728Y6260D01*
X240719Y6249D01*
X240709Y6241D01*
X240618Y6127D01*
X240525Y6015D01*
X240519Y6002D01*
X240511Y5992D01*
X240451Y5858D01*
X240390Y5727D01*
X240387Y5714D01*
X240382Y5701D01*
X240357Y5557D01*
X240330Y5414D01*
X240331Y5401D01*
X240328Y5388D01*
X240341Y5242D01*
X240350Y5097D01*
X240354Y5084D01*
X240355Y5071D01*
X240403Y4933D01*
X240448Y4795D01*
X240455Y4783D01*
X240459Y4770D01*
X240540Y4649D01*
X240618Y4526D01*
X240628Y4517D01*
X240635Y4505D01*
X240743Y4408D01*
X240849Y4308D01*
X240861Y4301D01*
X240871Y4292D01*
X241001Y4225D01*
X241128Y4154D01*
X241141Y4151D01*
X241153Y4145D01*
X241295Y4111D01*
X241436Y4075D01*
X241454Y4074D01*
X241463Y4072D01*
X241480Y4072D01*
X241597Y4065D01*
X254905Y4065D01*
X254954Y4071D01*
X255004Y4069D01*
X255111Y4091D01*
X255221Y4105D01*
X255267Y4123D01*
X255315Y4133D01*
X255414Y4181D01*
X255516Y4222D01*
X255556Y4251D01*
X255601Y4273D01*
X255685Y4344D01*
X255774Y4408D01*
X255805Y4447D01*
X255843Y4479D01*
X255906Y4569D01*
X255976Y4653D01*
X255998Y4698D01*
X256026Y4739D01*
X256065Y4842D01*
X256112Y4941D01*
X256121Y4990D01*
X256139Y5036D01*
X256151Y5146D01*
X256172Y5253D01*
X256169Y5303D01*
X256174Y5352D01*
X256159Y5461D01*
X256152Y5571D01*
X256137Y5618D01*
X256130Y5667D01*
X256078Y5820D01*
X254253Y10224D01*
X254253Y15176D01*
X256148Y19750D01*
X259650Y23252D01*
X264224Y25147D01*
X269176Y25147D01*
X270532Y24585D01*
X270580Y24572D01*
X270625Y24551D01*
X270733Y24530D01*
X270839Y24501D01*
X270889Y24500D01*
X270938Y24491D01*
X271047Y24498D01*
X271157Y24496D01*
X271205Y24507D01*
X271255Y24511D01*
X271359Y24544D01*
X271466Y24570D01*
X271510Y24593D01*
X271557Y24609D01*
X271650Y24667D01*
X271747Y24719D01*
X271784Y24752D01*
X271826Y24779D01*
X271901Y24859D01*
X271983Y24933D01*
X272010Y24974D01*
X272044Y25010D01*
X272097Y25107D01*
X272157Y25198D01*
X272174Y25245D01*
X272198Y25289D01*
X272225Y25395D01*
X272261Y25499D01*
X272265Y25549D01*
X272277Y25597D01*
X272287Y25757D01*
X272287Y70044D01*
X275338Y73095D01*
X312598Y110355D01*
X312683Y110464D01*
X312771Y110571D01*
X312780Y110590D01*
X312792Y110606D01*
X312848Y110734D01*
X312907Y110859D01*
X312911Y110879D01*
X312919Y110898D01*
X312941Y111036D01*
X312967Y111172D01*
X312965Y111192D01*
X312969Y111212D01*
X312956Y111351D01*
X312947Y111489D01*
X312941Y111508D01*
X312939Y111528D01*
X312892Y111660D01*
X312849Y111791D01*
X312838Y111809D01*
X312831Y111828D01*
X312753Y111943D01*
X312679Y112060D01*
X312664Y112074D01*
X312653Y112091D01*
X312549Y112183D01*
X312447Y112278D01*
X312429Y112288D01*
X312414Y112301D01*
X312291Y112364D01*
X312169Y112432D01*
X312149Y112437D01*
X312131Y112446D01*
X311995Y112476D01*
X311861Y112511D01*
X311833Y112513D01*
X311821Y112516D01*
X311800Y112515D01*
X311700Y112521D01*
X297318Y112521D01*
X297219Y112509D01*
X297120Y112506D01*
X297062Y112489D01*
X297002Y112481D01*
X296910Y112445D01*
X296815Y112417D01*
X296763Y112387D01*
X296706Y112364D01*
X296626Y112306D01*
X296541Y112256D01*
X296466Y112190D01*
X296449Y112178D01*
X296441Y112168D01*
X296420Y112149D01*
X295522Y111251D01*
X286261Y111251D01*
X286181Y111292D01*
X286141Y111301D01*
X286104Y111317D01*
X285987Y111336D01*
X285870Y111362D01*
X285830Y111361D01*
X285790Y111367D01*
X285672Y111356D01*
X285553Y111352D01*
X285514Y111341D01*
X285474Y111337D01*
X285361Y111297D01*
X285247Y111264D01*
X285226Y111251D01*
X275978Y111251D01*
X275080Y112150D01*
X275002Y112210D01*
X274930Y112278D01*
X274877Y112307D01*
X274829Y112344D01*
X274738Y112384D01*
X274651Y112432D01*
X274592Y112447D01*
X274537Y112471D01*
X274439Y112486D01*
X274343Y112511D01*
X274243Y112517D01*
X274223Y112521D01*
X274210Y112519D01*
X274182Y112521D01*
X265083Y112521D01*
X262095Y113759D01*
X253459Y122395D01*
X252221Y125383D01*
X252221Y152317D01*
X252209Y152415D01*
X252206Y152514D01*
X252189Y152573D01*
X252181Y152633D01*
X252145Y152725D01*
X252117Y152820D01*
X252087Y152872D01*
X252064Y152928D01*
X252006Y153008D01*
X251956Y153094D01*
X251890Y153169D01*
X251878Y153186D01*
X251868Y153194D01*
X251850Y153215D01*
X238219Y166845D01*
X236981Y169833D01*
X236981Y173067D01*
X238219Y176055D01*
X240505Y178341D01*
X243493Y179579D01*
X246727Y179579D01*
X249715Y178341D01*
X267241Y160815D01*
X268479Y157827D01*
X268479Y130893D01*
X268491Y130795D01*
X268494Y130696D01*
X268511Y130637D01*
X268519Y130577D01*
X268555Y130485D01*
X268583Y130390D01*
X268613Y130338D01*
X268636Y130282D01*
X268694Y130202D01*
X268744Y130116D01*
X268810Y130041D01*
X268822Y130024D01*
X268832Y130016D01*
X268850Y129995D01*
X269695Y129150D01*
X269774Y129090D01*
X269846Y129022D01*
X269899Y128993D01*
X269947Y128956D01*
X270038Y128916D01*
X270124Y128868D01*
X270183Y128853D01*
X270238Y128829D01*
X270336Y128814D01*
X270432Y128789D01*
X270532Y128783D01*
X270553Y128779D01*
X270565Y128781D01*
X270593Y128779D01*
X274182Y128779D01*
X274281Y128791D01*
X274380Y128794D01*
X274438Y128811D01*
X274498Y128819D01*
X274590Y128855D01*
X274685Y128883D01*
X274737Y128913D01*
X274794Y128936D01*
X274874Y128994D01*
X274959Y129044D01*
X275034Y129110D01*
X275051Y129122D01*
X275059Y129132D01*
X275080Y129150D01*
X275978Y130049D01*
X285239Y130049D01*
X285319Y130008D01*
X285358Y129999D01*
X285395Y129983D01*
X285513Y129964D01*
X285629Y129938D01*
X285670Y129939D01*
X285710Y129933D01*
X285828Y129944D01*
X285947Y129948D01*
X285986Y129959D01*
X286026Y129963D01*
X286138Y130003D01*
X286253Y130036D01*
X286274Y130049D01*
X295522Y130049D01*
X296420Y129151D01*
X296498Y129090D01*
X296570Y129022D01*
X296624Y128993D01*
X296671Y128956D01*
X296762Y128916D01*
X296849Y128868D01*
X296908Y128853D01*
X296963Y128829D01*
X297061Y128814D01*
X297157Y128789D01*
X297257Y128783D01*
X297277Y128779D01*
X297290Y128781D01*
X297318Y128779D01*
X313851Y128779D01*
X313949Y128791D01*
X314048Y128794D01*
X314106Y128811D01*
X314166Y128819D01*
X314258Y128855D01*
X314353Y128883D01*
X314406Y128913D01*
X314462Y128936D01*
X314542Y128994D01*
X314627Y129044D01*
X314703Y129110D01*
X314719Y129122D01*
X314727Y129132D01*
X314748Y129150D01*
X316800Y131202D01*
X319155Y132177D01*
X319275Y132246D01*
X319398Y132311D01*
X319413Y132325D01*
X319431Y132335D01*
X319531Y132432D01*
X319634Y132525D01*
X319645Y132542D01*
X319659Y132556D01*
X319732Y132675D01*
X319808Y132791D01*
X319815Y132810D01*
X319826Y132827D01*
X319866Y132960D01*
X319912Y133092D01*
X319913Y133112D01*
X319919Y133131D01*
X319926Y133270D01*
X319937Y133409D01*
X319933Y133429D01*
X319934Y133449D01*
X319906Y133585D01*
X319882Y133722D01*
X319874Y133741D01*
X319870Y133760D01*
X319809Y133886D01*
X319752Y134012D01*
X319739Y134028D01*
X319730Y134046D01*
X319640Y134152D01*
X319553Y134260D01*
X319537Y134273D01*
X319524Y134288D01*
X319410Y134368D01*
X319299Y134452D01*
X319274Y134464D01*
X319264Y134471D01*
X319245Y134478D01*
X319155Y134523D01*
X316800Y135498D01*
X313298Y139000D01*
X311403Y143574D01*
X311403Y148526D01*
X313298Y153100D01*
X316800Y156602D01*
X319155Y157577D01*
X319275Y157646D01*
X319398Y157711D01*
X319413Y157725D01*
X319431Y157735D01*
X319531Y157832D01*
X319634Y157925D01*
X319645Y157942D01*
X319659Y157956D01*
X319732Y158075D01*
X319808Y158191D01*
X319815Y158210D01*
X319826Y158227D01*
X319867Y158360D01*
X319912Y158492D01*
X319913Y158512D01*
X319919Y158531D01*
X319926Y158670D01*
X319937Y158809D01*
X319933Y158829D01*
X319934Y158849D01*
X319906Y158985D01*
X319882Y159122D01*
X319874Y159141D01*
X319870Y159160D01*
X319809Y159286D01*
X319752Y159412D01*
X319739Y159428D01*
X319730Y159446D01*
X319640Y159552D01*
X319553Y159660D01*
X319537Y159673D01*
X319524Y159688D01*
X319410Y159768D01*
X319299Y159852D01*
X319274Y159864D01*
X319264Y159871D01*
X319245Y159878D01*
X319155Y159923D01*
X316799Y160898D01*
X313298Y164400D01*
X311403Y168974D01*
X311403Y173926D01*
X313298Y178500D01*
X316800Y182002D01*
X321374Y183897D01*
X326326Y183897D01*
X330900Y182002D01*
X334402Y178500D01*
X336297Y173926D01*
X336297Y168974D01*
X334402Y164400D01*
X330901Y160898D01*
X328545Y159923D01*
X328424Y159854D01*
X328302Y159789D01*
X328287Y159775D01*
X328269Y159765D01*
X328169Y159668D01*
X328066Y159575D01*
X328055Y159558D01*
X328041Y159544D01*
X327968Y159426D01*
X327892Y159309D01*
X327885Y159290D01*
X327874Y159273D01*
X327834Y159140D01*
X327788Y159008D01*
X327787Y158988D01*
X327781Y158969D01*
X327774Y158830D01*
X327763Y158691D01*
X327767Y158671D01*
X327766Y158651D01*
X327794Y158515D01*
X327818Y158378D01*
X327826Y158359D01*
X327830Y158340D01*
X327891Y158215D01*
X327948Y158088D01*
X327961Y158072D01*
X327970Y158054D01*
X328060Y157948D01*
X328147Y157840D01*
X328163Y157827D01*
X328176Y157812D01*
X328290Y157732D01*
X328401Y157648D01*
X328426Y157636D01*
X328436Y157629D01*
X328455Y157622D01*
X328545Y157577D01*
X330900Y156602D01*
X334402Y153100D01*
X336297Y148526D01*
X336297Y143574D01*
X335595Y141880D01*
X335587Y141852D01*
X335574Y141825D01*
X335545Y141698D01*
X335511Y141573D01*
X335511Y141544D01*
X335504Y141515D01*
X335508Y141385D01*
X335506Y141255D01*
X335513Y141226D01*
X335514Y141197D01*
X335550Y141072D01*
X335580Y140946D01*
X335594Y140920D01*
X335602Y140891D01*
X335668Y140780D01*
X335729Y140665D01*
X335749Y140643D01*
X335764Y140618D01*
X335870Y140497D01*
X336555Y139812D01*
X336594Y139781D01*
X336628Y139745D01*
X336719Y139684D01*
X336806Y139617D01*
X336852Y139597D01*
X336893Y139570D01*
X336997Y139534D01*
X337098Y139491D01*
X337147Y139483D01*
X337194Y139467D01*
X337303Y139458D01*
X337412Y139441D01*
X337462Y139446D01*
X337511Y139442D01*
X337619Y139460D01*
X337729Y139471D01*
X337776Y139487D01*
X337824Y139496D01*
X337924Y139541D01*
X338028Y139578D01*
X338069Y139606D01*
X338114Y139627D01*
X338200Y139695D01*
X338291Y139757D01*
X338324Y139794D01*
X338363Y139825D01*
X338429Y139913D01*
X338502Y139995D01*
X338524Y140040D01*
X338554Y140079D01*
X338625Y140224D01*
X338698Y140401D01*
X342200Y143902D01*
X344555Y144877D01*
X344675Y144946D01*
X344798Y145011D01*
X344813Y145025D01*
X344831Y145035D01*
X344931Y145132D01*
X345034Y145225D01*
X345045Y145242D01*
X345059Y145256D01*
X345132Y145375D01*
X345208Y145491D01*
X345215Y145510D01*
X345226Y145527D01*
X345266Y145660D01*
X345312Y145792D01*
X345313Y145812D01*
X345319Y145831D01*
X345326Y145970D01*
X345337Y146109D01*
X345333Y146129D01*
X345334Y146149D01*
X345306Y146285D01*
X345282Y146422D01*
X345274Y146441D01*
X345270Y146460D01*
X345209Y146586D01*
X345152Y146712D01*
X345139Y146728D01*
X345130Y146746D01*
X345040Y146852D01*
X344953Y146960D01*
X344937Y146973D01*
X344924Y146988D01*
X344810Y147068D01*
X344699Y147152D01*
X344674Y147164D01*
X344664Y147171D01*
X344645Y147178D01*
X344555Y147223D01*
X342200Y148198D01*
X338698Y151700D01*
X336803Y156274D01*
X336803Y161226D01*
X338698Y165800D01*
X342200Y169302D01*
X346774Y171197D01*
X351726Y171197D01*
X356300Y169302D01*
X359802Y165800D01*
X361697Y161226D01*
X361697Y156274D01*
X359802Y151700D01*
X356300Y148198D01*
X353945Y147223D01*
X353825Y147154D01*
X353702Y147089D01*
X353687Y147075D01*
X353669Y147065D01*
X353569Y146968D01*
X353466Y146875D01*
X353455Y146858D01*
X353441Y146844D01*
X353368Y146726D01*
X353292Y146609D01*
X353285Y146590D01*
X353274Y146573D01*
X353234Y146440D01*
X353188Y146308D01*
X353187Y146288D01*
X353181Y146269D01*
X353174Y146130D01*
X353163Y145991D01*
X353167Y145971D01*
X353166Y145951D01*
X353194Y145815D01*
X353218Y145678D01*
X353226Y145659D01*
X353230Y145640D01*
X353291Y145515D01*
X353348Y145388D01*
X353361Y145372D01*
X353370Y145354D01*
X353460Y145248D01*
X353547Y145140D01*
X353563Y145127D01*
X353576Y145112D01*
X353690Y145032D01*
X353801Y144948D01*
X353826Y144936D01*
X353836Y144929D01*
X353855Y144922D01*
X353945Y144877D01*
X356300Y143902D01*
X358352Y141850D01*
X358430Y141790D01*
X358502Y141722D01*
X358555Y141693D01*
X358603Y141656D01*
X358694Y141616D01*
X358781Y141568D01*
X358839Y141553D01*
X358895Y141529D01*
X358993Y141514D01*
X359089Y141489D01*
X359189Y141483D01*
X359209Y141479D01*
X359221Y141481D01*
X359249Y141479D01*
X375782Y141479D01*
X375881Y141491D01*
X375980Y141494D01*
X376038Y141511D01*
X376098Y141519D01*
X376190Y141555D01*
X376285Y141583D01*
X376337Y141613D01*
X376394Y141636D01*
X376474Y141694D01*
X376559Y141744D01*
X376634Y141810D01*
X376651Y141822D01*
X376659Y141832D01*
X376680Y141851D01*
X377578Y142749D01*
X386708Y142749D01*
X387058Y142399D01*
X387141Y142334D01*
X387219Y142262D01*
X387267Y142237D01*
X387309Y142204D01*
X387406Y142162D01*
X387499Y142112D01*
X387551Y142099D01*
X387601Y142077D01*
X387706Y142061D01*
X387808Y142035D01*
X387862Y142036D01*
X387915Y142028D01*
X388020Y142037D01*
X388126Y142038D01*
X388210Y142055D01*
X388232Y142057D01*
X388246Y142063D01*
X388284Y142070D01*
X388921Y142241D01*
X391017Y142241D01*
X391027Y142209D01*
X391049Y142174D01*
X391064Y142137D01*
X391133Y142041D01*
X391197Y141940D01*
X391227Y141912D01*
X391250Y141879D01*
X391342Y141803D01*
X391429Y141722D01*
X391464Y141702D01*
X391495Y141677D01*
X391603Y141626D01*
X391707Y141568D01*
X391747Y141558D01*
X391783Y141541D01*
X391900Y141519D01*
X392015Y141489D01*
X392075Y141485D01*
X392095Y141481D01*
X392116Y141483D01*
X392176Y141479D01*
X392938Y141479D01*
X393056Y141494D01*
X393175Y141501D01*
X393213Y141514D01*
X393254Y141519D01*
X393364Y141562D01*
X393477Y141599D01*
X393512Y141621D01*
X393549Y141636D01*
X393645Y141705D01*
X393746Y141769D01*
X393774Y141799D01*
X393807Y141822D01*
X393883Y141914D01*
X393964Y142001D01*
X393984Y142036D01*
X394009Y142067D01*
X394060Y142175D01*
X394096Y142241D01*
X396193Y142241D01*
X396840Y142068D01*
X397419Y141733D01*
X397892Y141260D01*
X398227Y140681D01*
X398400Y140034D01*
X398400Y137366D01*
X398401Y137356D01*
X398400Y137347D01*
X398421Y137198D01*
X398440Y137050D01*
X398443Y137041D01*
X398444Y137032D01*
X398496Y136880D01*
X399289Y134967D01*
X399289Y131733D01*
X398496Y129820D01*
X398494Y129811D01*
X398489Y129803D01*
X398452Y129658D01*
X398412Y129513D01*
X398412Y129504D01*
X398410Y129495D01*
X398400Y129334D01*
X398400Y126665D01*
X398227Y126019D01*
X397892Y125440D01*
X397419Y124967D01*
X396840Y124632D01*
X396193Y124459D01*
X394097Y124459D01*
X394087Y124491D01*
X394065Y124526D01*
X394050Y124563D01*
X393981Y124659D01*
X393917Y124760D01*
X393887Y124788D01*
X393864Y124821D01*
X393772Y124897D01*
X393685Y124978D01*
X393650Y124998D01*
X393619Y125023D01*
X393511Y125074D01*
X393407Y125132D01*
X393367Y125142D01*
X393331Y125159D01*
X393214Y125181D01*
X393099Y125211D01*
X393039Y125215D01*
X393019Y125219D01*
X392998Y125217D01*
X392938Y125221D01*
X392176Y125221D01*
X392058Y125206D01*
X391939Y125199D01*
X391901Y125186D01*
X391860Y125181D01*
X391750Y125138D01*
X391637Y125101D01*
X391602Y125079D01*
X391565Y125064D01*
X391468Y124995D01*
X391368Y124931D01*
X391340Y124901D01*
X391307Y124878D01*
X391231Y124786D01*
X391150Y124699D01*
X391130Y124664D01*
X391105Y124633D01*
X391054Y124525D01*
X391018Y124459D01*
X388920Y124459D01*
X388284Y124630D01*
X388179Y124644D01*
X388076Y124667D01*
X388022Y124666D01*
X387969Y124673D01*
X387864Y124661D01*
X387758Y124658D01*
X387706Y124643D01*
X387653Y124637D01*
X387554Y124599D01*
X387453Y124569D01*
X387406Y124542D01*
X387356Y124523D01*
X387270Y124461D01*
X387179Y124408D01*
X387115Y124351D01*
X387097Y124339D01*
X387086Y124327D01*
X387058Y124301D01*
X386708Y123951D01*
X377578Y123951D01*
X376680Y124849D01*
X376602Y124910D01*
X376530Y124978D01*
X376476Y125007D01*
X376429Y125044D01*
X376338Y125084D01*
X376251Y125132D01*
X376192Y125147D01*
X376137Y125171D01*
X376039Y125186D01*
X375943Y125211D01*
X375843Y125217D01*
X375823Y125221D01*
X375810Y125219D01*
X375782Y125221D01*
X359249Y125221D01*
X359151Y125209D01*
X359052Y125206D01*
X358994Y125189D01*
X358934Y125181D01*
X358842Y125145D01*
X358747Y125117D01*
X358694Y125087D01*
X358638Y125064D01*
X358558Y125006D01*
X358473Y124956D01*
X358397Y124890D01*
X358381Y124878D01*
X358373Y124868D01*
X358352Y124850D01*
X356300Y122798D01*
X353945Y121823D01*
X353825Y121754D01*
X353702Y121689D01*
X353687Y121675D01*
X353669Y121665D01*
X353569Y121568D01*
X353466Y121475D01*
X353455Y121458D01*
X353441Y121444D01*
X353368Y121326D01*
X353292Y121209D01*
X353285Y121190D01*
X353274Y121173D01*
X353234Y121040D01*
X353188Y120908D01*
X353187Y120888D01*
X353181Y120869D01*
X353174Y120730D01*
X353163Y120591D01*
X353167Y120571D01*
X353166Y120551D01*
X353194Y120415D01*
X353218Y120278D01*
X353226Y120259D01*
X353230Y120240D01*
X353291Y120115D01*
X353348Y119988D01*
X353361Y119972D01*
X353370Y119954D01*
X353460Y119848D01*
X353547Y119740D01*
X353563Y119727D01*
X353576Y119712D01*
X353690Y119632D01*
X353801Y119548D01*
X353826Y119536D01*
X353836Y119529D01*
X353855Y119522D01*
X353945Y119477D01*
X356300Y118502D01*
X359802Y115000D01*
X361697Y110426D01*
X361697Y105474D01*
X359802Y100900D01*
X356286Y97384D01*
X356273Y97378D01*
X356200Y97326D01*
X356122Y97281D01*
X356072Y97233D01*
X356015Y97192D01*
X355958Y97122D01*
X355894Y97060D01*
X355857Y97000D01*
X355812Y96947D01*
X355774Y96865D01*
X355727Y96789D01*
X355707Y96722D01*
X355677Y96659D01*
X355660Y96571D01*
X355634Y96485D01*
X355630Y96415D01*
X355617Y96346D01*
X355623Y96257D01*
X355618Y96167D01*
X355633Y96099D01*
X355637Y96029D01*
X355665Y95944D01*
X355683Y95856D01*
X355713Y95793D01*
X355735Y95727D01*
X355783Y95651D01*
X355822Y95570D01*
X355868Y95517D01*
X355905Y95458D01*
X355970Y95396D01*
X356029Y95328D01*
X356086Y95288D01*
X356137Y95240D01*
X356215Y95197D01*
X356289Y95145D01*
X356354Y95120D01*
X356415Y95086D01*
X356502Y95064D01*
X356586Y95032D01*
X356656Y95024D01*
X356723Y95007D01*
X356884Y94997D01*
X359911Y94997D01*
X361697Y93211D01*
X361697Y71889D01*
X359911Y70103D01*
X338589Y70103D01*
X336803Y71889D01*
X336803Y80712D01*
X336786Y80849D01*
X336773Y80988D01*
X336766Y81007D01*
X336763Y81027D01*
X336712Y81156D01*
X336665Y81287D01*
X336654Y81304D01*
X336646Y81323D01*
X336565Y81435D01*
X336487Y81550D01*
X336471Y81564D01*
X336460Y81580D01*
X336352Y81669D01*
X336248Y81761D01*
X336230Y81770D01*
X336215Y81783D01*
X336089Y81842D01*
X335965Y81905D01*
X335945Y81910D01*
X335927Y81919D01*
X335791Y81945D01*
X335655Y81975D01*
X335634Y81974D01*
X335615Y81978D01*
X335476Y81970D01*
X335337Y81965D01*
X335317Y81960D01*
X335297Y81959D01*
X335165Y81916D01*
X335031Y81877D01*
X335014Y81867D01*
X334995Y81861D01*
X334877Y81786D01*
X334757Y81716D01*
X334736Y81697D01*
X334726Y81690D01*
X334712Y81675D01*
X334637Y81609D01*
X334055Y81028D01*
X331005Y77977D01*
X300870Y77977D01*
X300772Y77965D01*
X300673Y77962D01*
X300614Y77945D01*
X300554Y77937D01*
X300462Y77901D01*
X300367Y77873D01*
X300315Y77843D01*
X300259Y77820D01*
X300179Y77762D01*
X300093Y77712D01*
X300018Y77646D01*
X300001Y77634D01*
X299993Y77624D01*
X299972Y77606D01*
X286884Y64518D01*
X286824Y64439D01*
X286756Y64367D01*
X286727Y64314D01*
X286690Y64266D01*
X286650Y64175D01*
X286602Y64089D01*
X286587Y64030D01*
X286563Y63975D01*
X286548Y63876D01*
X286523Y63781D01*
X286517Y63681D01*
X286513Y63660D01*
X286515Y63648D01*
X286513Y63620D01*
X286513Y25757D01*
X286519Y25708D01*
X286517Y25659D01*
X286539Y25551D01*
X286553Y25442D01*
X286571Y25396D01*
X286581Y25347D01*
X286629Y25249D01*
X286670Y25146D01*
X286699Y25106D01*
X286721Y25061D01*
X286792Y24978D01*
X286856Y24889D01*
X286895Y24857D01*
X286927Y24819D01*
X287017Y24756D01*
X287101Y24686D01*
X287146Y24665D01*
X287187Y24636D01*
X287290Y24597D01*
X287389Y24551D01*
X287438Y24541D01*
X287484Y24524D01*
X287594Y24511D01*
X287701Y24491D01*
X287751Y24494D01*
X287800Y24488D01*
X287909Y24504D01*
X288019Y24511D01*
X288066Y24526D01*
X288115Y24533D01*
X288268Y24585D01*
X289624Y25147D01*
X294576Y25147D01*
X299150Y23252D01*
X302652Y19750D01*
X304547Y15176D01*
X304547Y10224D01*
X302722Y5820D01*
X302709Y5772D01*
X302688Y5727D01*
X302667Y5619D01*
X302638Y5513D01*
X302638Y5463D01*
X302628Y5414D01*
X302635Y5305D01*
X302633Y5195D01*
X302645Y5147D01*
X302648Y5097D01*
X302682Y4993D01*
X302707Y4886D01*
X302731Y4842D01*
X302746Y4795D01*
X302805Y4702D01*
X302856Y4605D01*
X302890Y4568D01*
X302916Y4526D01*
X302996Y4451D01*
X303070Y4369D01*
X303112Y4342D01*
X303148Y4308D01*
X303244Y4255D01*
X303336Y4195D01*
X303383Y4178D01*
X303426Y4154D01*
X303533Y4127D01*
X303637Y4091D01*
X303686Y4087D01*
X303734Y4075D01*
X303895Y4065D01*
X439166Y4065D01*
X439284Y4080D01*
X439403Y4087D01*
X439441Y4100D01*
X439482Y4105D01*
X439592Y4148D01*
X439705Y4185D01*
X439740Y4207D01*
X439777Y4222D01*
X439873Y4291D01*
X439974Y4355D01*
X440002Y4385D01*
X440035Y4408D01*
X440111Y4500D01*
X440192Y4587D01*
X440212Y4622D01*
X440237Y4653D01*
X440288Y4761D01*
X440346Y4865D01*
X440356Y4905D01*
X440373Y4941D01*
X440395Y5058D01*
X440425Y5173D01*
X440429Y5233D01*
X440433Y5253D01*
X440431Y5274D01*
X440435Y5334D01*
X440435Y100052D01*
X440418Y100189D01*
X440405Y100328D01*
X440398Y100347D01*
X440395Y100367D01*
X440344Y100496D01*
X440297Y100628D01*
X440286Y100644D01*
X440278Y100663D01*
X440197Y100775D01*
X440118Y100891D01*
X440103Y100904D01*
X440092Y100920D01*
X439984Y101009D01*
X439880Y101101D01*
X439862Y101110D01*
X439847Y101123D01*
X439721Y101182D01*
X439597Y101246D01*
X439577Y101250D01*
X439559Y101258D01*
X439422Y101285D01*
X439286Y101315D01*
X439266Y101314D01*
X439247Y101318D01*
X439107Y101310D01*
X438968Y101305D01*
X438949Y101300D01*
X438929Y101298D01*
X438857Y101275D01*
X434912Y101275D01*
X432307Y103879D01*
X432307Y105005D01*
X432292Y105124D01*
X432285Y105242D01*
X432272Y105281D01*
X432267Y105321D01*
X432224Y105432D01*
X432187Y105545D01*
X432165Y105579D01*
X432150Y105617D01*
X432081Y105713D01*
X432017Y105813D01*
X431987Y105841D01*
X431964Y105874D01*
X431872Y105950D01*
X431785Y106031D01*
X431750Y106051D01*
X431719Y106077D01*
X431611Y106127D01*
X431507Y106185D01*
X431467Y106195D01*
X431431Y106212D01*
X431314Y106235D01*
X431199Y106264D01*
X431139Y106268D01*
X431119Y106272D01*
X431098Y106271D01*
X431038Y106275D01*
X419913Y106275D01*
X418635Y107552D01*
X417308Y108879D01*
X417308Y112562D01*
X419679Y114932D01*
X420284Y115538D01*
X425226Y120479D01*
X425311Y120589D01*
X425400Y120696D01*
X425409Y120715D01*
X425421Y120731D01*
X425477Y120859D01*
X425536Y120984D01*
X425539Y121004D01*
X425547Y121022D01*
X425569Y121160D01*
X425595Y121296D01*
X425594Y121316D01*
X425597Y121337D01*
X425584Y121475D01*
X425576Y121614D01*
X425569Y121633D01*
X425567Y121653D01*
X425520Y121784D01*
X425478Y121916D01*
X425467Y121933D01*
X425460Y121952D01*
X425382Y122068D01*
X425307Y122185D01*
X425293Y122199D01*
X425281Y122216D01*
X425177Y122308D01*
X425076Y122403D01*
X425058Y122413D01*
X425043Y122426D01*
X424919Y122489D01*
X424797Y122556D01*
X424778Y122561D01*
X424760Y122571D01*
X424624Y122601D01*
X424489Y122636D01*
X424461Y122638D01*
X424449Y122640D01*
X424429Y122640D01*
X424329Y122646D01*
X419913Y122646D01*
X418635Y123924D01*
X417308Y125250D01*
X417308Y128933D01*
X419679Y131304D01*
X420284Y131909D01*
X422822Y134446D01*
X422867Y134505D01*
X422920Y134558D01*
X422964Y134630D01*
X423017Y134698D01*
X423046Y134766D01*
X423085Y134830D01*
X423109Y134911D01*
X423143Y134990D01*
X423155Y135063D01*
X423176Y135135D01*
X423179Y135219D01*
X423193Y135304D01*
X423186Y135378D01*
X423189Y135452D01*
X423171Y135536D01*
X423163Y135620D01*
X423138Y135691D01*
X423122Y135763D01*
X423059Y135912D01*
X421954Y138123D01*
X423119Y141617D01*
X424542Y142328D01*
X424583Y142356D01*
X424628Y142376D01*
X424714Y142444D01*
X424806Y142505D01*
X424839Y142542D01*
X424878Y142572D01*
X424945Y142660D01*
X425018Y142742D01*
X425041Y142786D01*
X425071Y142825D01*
X425114Y142926D01*
X425165Y143024D01*
X425176Y143072D01*
X425195Y143118D01*
X425212Y143227D01*
X425237Y143334D01*
X425235Y143383D01*
X425243Y143432D01*
X425232Y143542D01*
X425229Y143652D01*
X425216Y143699D01*
X425211Y143749D01*
X425173Y143852D01*
X425143Y143958D01*
X425118Y144001D01*
X425101Y144047D01*
X425038Y144138D01*
X424983Y144233D01*
X424949Y144268D01*
X424921Y144309D01*
X424838Y144381D01*
X424760Y144460D01*
X424718Y144485D01*
X424681Y144518D01*
X424542Y144599D01*
X423119Y145310D01*
X421954Y148804D01*
X423601Y152098D01*
X427095Y153263D01*
X438378Y147621D01*
X438387Y147618D01*
X438395Y147613D01*
X438457Y147588D01*
X438472Y147580D01*
X438487Y147576D01*
X438544Y147553D01*
X438765Y147479D01*
X438769Y147478D01*
X438773Y147476D01*
X438922Y147448D01*
X439076Y147417D01*
X439081Y147417D01*
X439086Y147416D01*
X439239Y147426D01*
X439394Y147435D01*
X439398Y147436D01*
X439403Y147436D01*
X439549Y147483D01*
X439697Y147530D01*
X439701Y147533D01*
X439705Y147534D01*
X439835Y147617D01*
X439967Y147699D01*
X439970Y147702D01*
X439974Y147704D01*
X440081Y147818D01*
X440187Y147929D01*
X440189Y147933D01*
X440192Y147936D01*
X440267Y148072D01*
X440342Y148206D01*
X440343Y148211D01*
X440346Y148215D01*
X440384Y148364D01*
X440424Y148513D01*
X440424Y148518D01*
X440425Y148522D01*
X440435Y148683D01*
X440435Y240157D01*
X440420Y240275D01*
X440413Y240394D01*
X440400Y240432D01*
X440395Y240473D01*
X440352Y240583D01*
X440315Y240696D01*
X440293Y240731D01*
X440278Y240768D01*
X440209Y240864D01*
X440145Y240965D01*
X440115Y240993D01*
X440092Y241026D01*
X440000Y241102D01*
X439913Y241183D01*
X439878Y241203D01*
X439847Y241228D01*
X439739Y241279D01*
X439635Y241337D01*
X439595Y241347D01*
X439559Y241364D01*
X439442Y241386D01*
X439327Y241416D01*
X439267Y241420D01*
X439247Y241424D01*
X439226Y241422D01*
X439166Y241426D01*
X436912Y241426D01*
X434625Y242374D01*
X432874Y244125D01*
X431926Y246412D01*
X431926Y248666D01*
X431911Y248784D01*
X431904Y248903D01*
X431891Y248941D01*
X431886Y248982D01*
X431843Y249092D01*
X431806Y249205D01*
X431784Y249240D01*
X431769Y249277D01*
X431700Y249373D01*
X431636Y249474D01*
X431606Y249502D01*
X431583Y249535D01*
X431491Y249611D01*
X431404Y249692D01*
X431369Y249712D01*
X431338Y249737D01*
X431230Y249788D01*
X431126Y249846D01*
X431086Y249856D01*
X431050Y249873D01*
X430933Y249895D01*
X430818Y249925D01*
X430758Y249929D01*
X430738Y249933D01*
X430717Y249931D01*
X430657Y249935D01*
X241597Y249935D01*
X241452Y249917D01*
X241307Y249902D01*
X241294Y249897D01*
X241281Y249895D01*
X241146Y249842D01*
X241009Y249791D01*
X240998Y249783D01*
X240985Y249778D01*
X240868Y249693D01*
X240748Y249610D01*
X240739Y249599D01*
X240728Y249592D01*
X240635Y249480D01*
X240540Y249369D01*
X240534Y249357D01*
X240525Y249347D01*
X240463Y249215D01*
X240398Y249084D01*
X240395Y249071D01*
X240390Y249059D01*
X240362Y248917D01*
X240332Y248773D01*
X240332Y248760D01*
X240330Y248747D01*
X240339Y248602D01*
X240345Y248456D01*
X240349Y248442D01*
X240350Y248429D01*
X240394Y248291D01*
X240437Y248151D01*
X240444Y248139D01*
X240448Y248127D01*
X240525Y248004D01*
X240601Y247879D01*
X240611Y247869D01*
X240618Y247858D01*
X240724Y247758D01*
X240828Y247656D01*
X240843Y247646D01*
X240849Y247640D01*
X240864Y247632D01*
X240962Y247567D01*
X243355Y246185D01*
X248480Y240078D01*
X251207Y232586D01*
X251207Y224614D01*
X248480Y217122D01*
X243356Y211015D01*
X236451Y207029D01*
X228600Y205645D01*
X220749Y207029D01*
X213845Y211015D01*
X208720Y217122D01*
X205993Y224614D01*
X205993Y232586D01*
X208720Y240078D01*
X213844Y246185D01*
X216238Y247567D01*
X216354Y247655D01*
X216472Y247740D01*
X216481Y247751D01*
X216491Y247759D01*
X216582Y247873D01*
X216675Y247985D01*
X216681Y247998D01*
X216689Y248008D01*
X216749Y248142D01*
X216810Y248273D01*
X216813Y248286D01*
X216818Y248299D01*
X216843Y248443D01*
X216870Y248586D01*
X216869Y248599D01*
X216872Y248612D01*
X216859Y248758D01*
X216850Y248903D01*
X216846Y248916D01*
X216845Y248929D01*
X216797Y249067D01*
X216752Y249205D01*
X216745Y249217D01*
X216741Y249230D01*
X216660Y249351D01*
X216582Y249474D01*
X216572Y249483D01*
X216565Y249495D01*
X216457Y249592D01*
X216351Y249692D01*
X216339Y249699D01*
X216329Y249708D01*
X216199Y249775D01*
X216072Y249846D01*
X216059Y249849D01*
X216047Y249855D01*
X215905Y249889D01*
X215764Y249925D01*
X215746Y249926D01*
X215737Y249928D01*
X215720Y249928D01*
X215603Y249935D01*
X38397Y249935D01*
X38252Y249917D01*
X38107Y249902D01*
X38094Y249897D01*
X38081Y249895D01*
X37946Y249842D01*
X37809Y249791D01*
X37798Y249783D01*
X37785Y249778D01*
X37668Y249693D01*
X37548Y249610D01*
X37539Y249599D01*
X37528Y249592D01*
X37435Y249480D01*
X37340Y249369D01*
X37334Y249357D01*
X37325Y249347D01*
X37263Y249215D01*
X37198Y249084D01*
X37195Y249071D01*
X37190Y249059D01*
X37162Y248917D01*
X37132Y248773D01*
X37132Y248760D01*
X37130Y248747D01*
X37139Y248602D01*
X37145Y248456D01*
X37149Y248442D01*
X37150Y248429D01*
X37194Y248291D01*
X37237Y248151D01*
X37244Y248139D01*
X37248Y248127D01*
X37325Y248004D01*
X37401Y247879D01*
X37411Y247869D01*
X37418Y247858D01*
X37524Y247758D01*
X37628Y247656D01*
X37643Y247646D01*
X37649Y247640D01*
X37664Y247632D01*
X37762Y247567D01*
X40155Y246185D01*
X45280Y240078D01*
X48007Y232586D01*
X48007Y224614D01*
X45280Y217122D01*
X40156Y211015D01*
X33251Y207029D01*
X25400Y205645D01*
X17549Y207029D01*
X10645Y211015D01*
X6306Y216185D01*
X6280Y216209D01*
X6260Y216238D01*
X6164Y216317D01*
X6073Y216401D01*
X6042Y216418D01*
X6015Y216441D01*
X5902Y216494D01*
X5793Y216553D01*
X5759Y216561D01*
X5727Y216576D01*
X5605Y216599D01*
X5485Y216630D01*
X5449Y216629D01*
X5414Y216636D01*
X5291Y216628D01*
X5167Y216627D01*
X5132Y216618D01*
X5097Y216616D01*
X4979Y216578D01*
X4859Y216546D01*
X4828Y216529D01*
X4795Y216518D01*
X4690Y216452D01*
X4581Y216391D01*
X4556Y216367D01*
X4526Y216348D01*
X4441Y216258D01*
X4351Y216172D01*
X4332Y216142D01*
X4308Y216116D01*
X4248Y216008D01*
X4182Y215903D01*
X4171Y215869D01*
X4154Y215838D01*
X4123Y215718D01*
X4086Y215600D01*
X4084Y215564D01*
X4075Y215530D01*
X4065Y215369D01*
X4065Y188774D01*
X4070Y188735D01*
X4067Y188695D01*
X4090Y188577D01*
X4105Y188459D01*
X4119Y188422D01*
X4127Y188383D01*
X4178Y188274D01*
X4222Y188163D01*
X4245Y188131D01*
X4262Y188095D01*
X4338Y188003D01*
X4408Y187906D01*
X4439Y187880D01*
X4464Y187850D01*
X4561Y187779D01*
X4653Y187703D01*
X4689Y187686D01*
X4722Y187662D01*
X4833Y187618D01*
X4941Y187567D01*
X4980Y187560D01*
X5017Y187545D01*
X5136Y187530D01*
X5253Y187508D01*
X5293Y187510D01*
X5333Y187505D01*
X5452Y187520D01*
X5571Y187527D01*
X5609Y187540D01*
X5648Y187545D01*
X5760Y187588D01*
X5873Y187625D01*
X5907Y187647D01*
X5944Y187661D01*
X6080Y187747D01*
X6443Y188011D01*
X8117Y188864D01*
X9904Y189445D01*
X10161Y189485D01*
X10161Y179070D01*
X10176Y178952D01*
X10183Y178833D01*
X10196Y178795D01*
X10201Y178755D01*
X10244Y178644D01*
X10281Y178531D01*
X10303Y178497D01*
X10318Y178459D01*
X10388Y178363D01*
X10451Y178262D01*
X10481Y178234D01*
X10504Y178202D01*
X10596Y178126D01*
X10683Y178044D01*
X10718Y178025D01*
X10749Y177999D01*
X10857Y177948D01*
X10961Y177891D01*
X11001Y177880D01*
X11037Y177863D01*
X11154Y177841D01*
X11269Y177811D01*
X11330Y177807D01*
X11350Y177803D01*
X11370Y177805D01*
X11430Y177801D01*
X12701Y177801D01*
X12701Y176530D01*
X12716Y176412D01*
X12723Y176293D01*
X12736Y176255D01*
X12741Y176214D01*
X12785Y176104D01*
X12821Y175991D01*
X12843Y175956D01*
X12858Y175919D01*
X12928Y175823D01*
X12991Y175722D01*
X13021Y175694D01*
X13045Y175661D01*
X13136Y175586D01*
X13223Y175504D01*
X13258Y175484D01*
X13290Y175459D01*
X13397Y175408D01*
X13502Y175350D01*
X13541Y175340D01*
X13577Y175323D01*
X13694Y175301D01*
X13809Y175271D01*
X13870Y175267D01*
X13890Y175263D01*
X13910Y175265D01*
X13970Y175261D01*
X24385Y175261D01*
X24345Y175004D01*
X23764Y173217D01*
X22911Y171543D01*
X21806Y170022D01*
X20478Y168694D01*
X18957Y167589D01*
X17283Y166736D01*
X16818Y166585D01*
X16791Y166572D01*
X16762Y166565D01*
X16647Y166505D01*
X16530Y166450D01*
X16507Y166431D01*
X16481Y166417D01*
X16385Y166329D01*
X16285Y166247D01*
X16268Y166223D01*
X16246Y166203D01*
X16175Y166094D01*
X16098Y165990D01*
X16087Y165962D01*
X16071Y165937D01*
X16029Y165815D01*
X15981Y165694D01*
X15977Y165664D01*
X15968Y165636D01*
X15957Y165507D01*
X15941Y165378D01*
X15945Y165349D01*
X15942Y165319D01*
X15965Y165191D01*
X15981Y165063D01*
X15992Y165035D01*
X15997Y165006D01*
X16050Y164888D01*
X16098Y164767D01*
X16115Y164743D01*
X16127Y164716D01*
X16208Y164615D01*
X16284Y164510D01*
X16307Y164491D01*
X16326Y164467D01*
X16429Y164390D01*
X16529Y164307D01*
X16556Y164294D01*
X16580Y164276D01*
X16725Y164205D01*
X19750Y162952D01*
X23252Y159450D01*
X25147Y154876D01*
X25147Y149924D01*
X23252Y145350D01*
X19751Y141848D01*
X17395Y140873D01*
X17274Y140804D01*
X17152Y140739D01*
X17137Y140725D01*
X17119Y140715D01*
X17019Y140618D01*
X16916Y140525D01*
X16905Y140508D01*
X16891Y140494D01*
X16818Y140376D01*
X16742Y140259D01*
X16735Y140240D01*
X16724Y140223D01*
X16684Y140090D01*
X16638Y139958D01*
X16637Y139938D01*
X16631Y139919D01*
X16624Y139780D01*
X16613Y139641D01*
X16617Y139621D01*
X16616Y139601D01*
X16644Y139465D01*
X16668Y139328D01*
X16676Y139309D01*
X16680Y139290D01*
X16741Y139165D01*
X16798Y139038D01*
X16811Y139022D01*
X16820Y139004D01*
X16910Y138898D01*
X16997Y138790D01*
X17013Y138777D01*
X17026Y138762D01*
X17140Y138682D01*
X17251Y138598D01*
X17276Y138586D01*
X17286Y138579D01*
X17305Y138572D01*
X17395Y138527D01*
X19750Y137552D01*
X23252Y134050D01*
X24059Y132102D01*
X24073Y132077D01*
X24083Y132049D01*
X24152Y131939D01*
X24216Y131826D01*
X24237Y131805D01*
X24253Y131780D01*
X24347Y131691D01*
X24438Y131598D01*
X24463Y131582D01*
X24484Y131562D01*
X24598Y131499D01*
X24709Y131431D01*
X24737Y131423D01*
X24763Y131408D01*
X24889Y131376D01*
X25013Y131338D01*
X25042Y131336D01*
X25071Y131329D01*
X25231Y131319D01*
X74422Y131319D01*
X74540Y131334D01*
X74659Y131341D01*
X74697Y131354D01*
X74738Y131359D01*
X74848Y131402D01*
X74961Y131439D01*
X74996Y131461D01*
X75033Y131476D01*
X75129Y131545D01*
X75230Y131609D01*
X75258Y131639D01*
X75291Y131662D01*
X75367Y131754D01*
X75448Y131841D01*
X75468Y131876D01*
X75493Y131907D01*
X75544Y132015D01*
X75602Y132119D01*
X75612Y132159D01*
X75629Y132195D01*
X75651Y132312D01*
X75681Y132427D01*
X75685Y132487D01*
X75689Y132507D01*
X75687Y132528D01*
X75691Y132588D01*
X75691Y145775D01*
X75679Y145873D01*
X75676Y145972D01*
X75659Y146030D01*
X75651Y146090D01*
X75615Y146182D01*
X75587Y146278D01*
X75557Y146330D01*
X75534Y146386D01*
X75476Y146466D01*
X75426Y146552D01*
X75360Y146627D01*
X75348Y146643D01*
X75338Y146651D01*
X75320Y146672D01*
X73765Y148227D01*
X72643Y150935D01*
X72643Y153865D01*
X73765Y156573D01*
X75837Y158645D01*
X78545Y159767D01*
X81475Y159767D01*
X84183Y158645D01*
X86255Y156573D01*
X87377Y153865D01*
X87377Y150935D01*
X86255Y148227D01*
X84700Y146672D01*
X84640Y146594D01*
X84572Y146522D01*
X84543Y146469D01*
X84506Y146421D01*
X84466Y146330D01*
X84418Y146244D01*
X84403Y146185D01*
X84379Y146129D01*
X84364Y146031D01*
X84339Y145936D01*
X84333Y145836D01*
X84329Y145815D01*
X84331Y145803D01*
X84329Y145775D01*
X84329Y132588D01*
X84344Y132470D01*
X84351Y132351D01*
X84364Y132313D01*
X84369Y132272D01*
X84413Y132161D01*
X84449Y132049D01*
X84471Y132014D01*
X84486Y131977D01*
X84555Y131881D01*
X84619Y131780D01*
X84649Y131752D01*
X84672Y131719D01*
X84764Y131643D01*
X84851Y131562D01*
X84886Y131542D01*
X84917Y131517D01*
X85025Y131466D01*
X85129Y131408D01*
X85169Y131398D01*
X85205Y131381D01*
X85322Y131359D01*
X85437Y131329D01*
X85497Y131325D01*
X85517Y131321D01*
X85538Y131323D01*
X85598Y131319D01*
X108469Y131319D01*
X130449Y109338D01*
X130527Y109278D01*
X130600Y109210D01*
X130653Y109181D01*
X130700Y109144D01*
X130791Y109104D01*
X130878Y109056D01*
X130937Y109041D01*
X130992Y109017D01*
X131090Y109002D01*
X131186Y108977D01*
X131286Y108971D01*
X131306Y108967D01*
X131319Y108969D01*
X131347Y108967D01*
X133545Y108967D01*
X134896Y108407D01*
X134944Y108394D01*
X134989Y108373D01*
X135097Y108352D01*
X135203Y108323D01*
X135253Y108322D01*
X135302Y108313D01*
X135411Y108320D01*
X135521Y108318D01*
X135569Y108330D01*
X135619Y108333D01*
X135723Y108367D01*
X135830Y108392D01*
X135874Y108416D01*
X135921Y108431D01*
X136014Y108490D01*
X136111Y108541D01*
X136148Y108574D01*
X136190Y108601D01*
X136265Y108681D01*
X136347Y108755D01*
X136374Y108796D01*
X136408Y108833D01*
X136461Y108929D01*
X136521Y109021D01*
X136538Y109068D01*
X136562Y109111D01*
X136589Y109217D01*
X136625Y109321D01*
X136629Y109371D01*
X136641Y109419D01*
X136651Y109580D01*
X136651Y116565D01*
X136639Y116663D01*
X136636Y116762D01*
X136619Y116820D01*
X136611Y116880D01*
X136575Y116972D01*
X136547Y117068D01*
X136517Y117120D01*
X136494Y117176D01*
X136436Y117256D01*
X136386Y117342D01*
X136320Y117417D01*
X136308Y117433D01*
X136298Y117441D01*
X136280Y117462D01*
X134725Y119017D01*
X133603Y121725D01*
X133603Y124655D01*
X134725Y127363D01*
X135496Y128135D01*
X135581Y128244D01*
X135670Y128351D01*
X135679Y128370D01*
X135691Y128386D01*
X135747Y128514D01*
X135806Y128639D01*
X135810Y128659D01*
X135818Y128678D01*
X135840Y128816D01*
X135866Y128952D01*
X135864Y128972D01*
X135868Y128992D01*
X135854Y129131D01*
X135846Y129269D01*
X135840Y129288D01*
X135838Y129308D01*
X135791Y129440D01*
X135748Y129571D01*
X135737Y129589D01*
X135730Y129608D01*
X135652Y129723D01*
X135578Y129840D01*
X135563Y129854D01*
X135552Y129871D01*
X135448Y129963D01*
X135346Y130058D01*
X135328Y130068D01*
X135313Y130081D01*
X135189Y130144D01*
X135068Y130212D01*
X135048Y130217D01*
X135030Y130226D01*
X134894Y130256D01*
X134760Y130291D01*
X134732Y130293D01*
X134720Y130296D01*
X134699Y130295D01*
X134599Y130301D01*
X129021Y130301D01*
X117601Y141721D01*
X117601Y172945D01*
X117589Y173044D01*
X117586Y173143D01*
X117569Y173201D01*
X117561Y173261D01*
X117525Y173353D01*
X117497Y173448D01*
X117467Y173500D01*
X117444Y173557D01*
X117386Y173637D01*
X117336Y173722D01*
X117270Y173797D01*
X117258Y173814D01*
X117248Y173822D01*
X117230Y173843D01*
X110343Y180730D01*
X108620Y182452D01*
X108613Y182458D01*
X108607Y182465D01*
X108487Y182555D01*
X108369Y182647D01*
X108360Y182651D01*
X108353Y182657D01*
X108208Y182727D01*
X107587Y182985D01*
X105515Y185057D01*
X104393Y187765D01*
X104393Y190695D01*
X105515Y193403D01*
X107587Y195475D01*
X110295Y196597D01*
X113225Y196597D01*
X115933Y195475D01*
X118005Y193403D01*
X119127Y190695D01*
X119127Y187765D01*
X118396Y186000D01*
X118388Y185971D01*
X118375Y185945D01*
X118346Y185818D01*
X118312Y185693D01*
X118311Y185664D01*
X118305Y185635D01*
X118309Y185505D01*
X118307Y185375D01*
X118314Y185346D01*
X118315Y185317D01*
X118351Y185192D01*
X118381Y185066D01*
X118395Y185040D01*
X118403Y185011D01*
X118469Y184900D01*
X118530Y184785D01*
X118550Y184763D01*
X118565Y184738D01*
X118671Y184617D01*
X123337Y179950D01*
X126239Y177049D01*
X126239Y145825D01*
X126251Y145726D01*
X126254Y145627D01*
X126271Y145569D01*
X126279Y145509D01*
X126315Y145417D01*
X126343Y145322D01*
X126373Y145270D01*
X126396Y145213D01*
X126454Y145133D01*
X126504Y145048D01*
X126570Y144973D01*
X126582Y144956D01*
X126592Y144948D01*
X126610Y144927D01*
X132227Y139310D01*
X132305Y139250D01*
X132378Y139182D01*
X132431Y139153D01*
X132478Y139116D01*
X132569Y139076D01*
X132656Y139028D01*
X132715Y139013D01*
X132770Y138989D01*
X132868Y138974D01*
X132964Y138949D01*
X133064Y138943D01*
X133084Y138939D01*
X133097Y138941D01*
X133125Y138939D01*
X149109Y138939D01*
X156719Y131329D01*
X156719Y108225D01*
X156731Y108127D01*
X156734Y108028D01*
X156751Y107970D01*
X156759Y107910D01*
X156795Y107818D01*
X156823Y107722D01*
X156853Y107670D01*
X156876Y107614D01*
X156934Y107534D01*
X156984Y107448D01*
X157050Y107373D01*
X157062Y107357D01*
X157072Y107349D01*
X157090Y107328D01*
X158645Y105773D01*
X159767Y103065D01*
X159767Y100135D01*
X158645Y97427D01*
X156573Y95355D01*
X153865Y94233D01*
X150935Y94233D01*
X148227Y95355D01*
X147455Y96126D01*
X147346Y96211D01*
X147239Y96300D01*
X147220Y96309D01*
X147204Y96321D01*
X147076Y96377D01*
X146951Y96436D01*
X146931Y96440D01*
X146912Y96448D01*
X146774Y96470D01*
X146638Y96496D01*
X146618Y96494D01*
X146598Y96498D01*
X146459Y96484D01*
X146321Y96476D01*
X146302Y96470D01*
X146282Y96468D01*
X146150Y96421D01*
X146019Y96378D01*
X146001Y96367D01*
X145982Y96360D01*
X145867Y96282D01*
X145750Y96208D01*
X145736Y96193D01*
X145719Y96182D01*
X145627Y96078D01*
X145532Y95976D01*
X145522Y95958D01*
X145509Y95943D01*
X145446Y95819D01*
X145378Y95698D01*
X145373Y95678D01*
X145364Y95660D01*
X145334Y95524D01*
X145299Y95390D01*
X145297Y95362D01*
X145294Y95350D01*
X145295Y95329D01*
X145289Y95229D01*
X145289Y88381D01*
X128789Y71881D01*
X128743Y71881D01*
X128605Y71864D01*
X128466Y71851D01*
X128447Y71844D01*
X128428Y71841D01*
X128298Y71790D01*
X128167Y71743D01*
X128150Y71732D01*
X128132Y71724D01*
X128019Y71643D01*
X127904Y71564D01*
X127891Y71549D01*
X127875Y71538D01*
X127785Y71430D01*
X127694Y71326D01*
X127684Y71308D01*
X127672Y71293D01*
X127613Y71167D01*
X127549Y71043D01*
X127545Y71023D01*
X127536Y71005D01*
X127510Y70869D01*
X127480Y70732D01*
X127480Y70712D01*
X127476Y70693D01*
X127485Y70554D01*
X127489Y70414D01*
X127495Y70395D01*
X127496Y70375D01*
X127539Y70243D01*
X127578Y70109D01*
X127588Y70092D01*
X127594Y70073D01*
X127657Y69973D01*
X128732Y67379D01*
X128732Y64701D01*
X127707Y62227D01*
X126356Y60876D01*
X126296Y60798D01*
X126228Y60726D01*
X126199Y60673D01*
X126162Y60625D01*
X126122Y60534D01*
X126074Y60447D01*
X126059Y60389D01*
X126035Y60333D01*
X126020Y60235D01*
X125995Y60140D01*
X125989Y60040D01*
X125985Y60019D01*
X125987Y60007D01*
X125985Y59979D01*
X125985Y37350D01*
X125997Y37252D01*
X126000Y37153D01*
X126017Y37095D01*
X126025Y37035D01*
X126061Y36943D01*
X126089Y36847D01*
X126119Y36795D01*
X126142Y36739D01*
X126200Y36659D01*
X126250Y36573D01*
X126316Y36498D01*
X126328Y36482D01*
X126338Y36474D01*
X126356Y36453D01*
X127627Y35182D01*
X128652Y32708D01*
X128652Y30030D01*
X127627Y27556D01*
X125733Y25662D01*
X123259Y24637D01*
X120581Y24637D01*
X118107Y25662D01*
X116213Y27556D01*
X115188Y30030D01*
X115188Y32708D01*
X116213Y35182D01*
X117484Y36453D01*
X117544Y36531D01*
X117612Y36603D01*
X117641Y36656D01*
X117678Y36704D01*
X117718Y36795D01*
X117766Y36882D01*
X117781Y36940D01*
X117805Y36996D01*
X117820Y37094D01*
X117845Y37189D01*
X117851Y37289D01*
X117855Y37310D01*
X117853Y37322D01*
X117855Y37350D01*
X117855Y60139D01*
X117843Y60237D01*
X117840Y60336D01*
X117823Y60394D01*
X117815Y60454D01*
X117779Y60546D01*
X117751Y60642D01*
X117721Y60694D01*
X117698Y60750D01*
X117640Y60830D01*
X117590Y60916D01*
X117524Y60991D01*
X117512Y61007D01*
X117502Y61015D01*
X117484Y61036D01*
X116293Y62227D01*
X115268Y64701D01*
X115268Y67379D01*
X116323Y69925D01*
X116328Y69931D01*
X116337Y69950D01*
X116349Y69965D01*
X116404Y70093D01*
X116464Y70219D01*
X116468Y70239D01*
X116476Y70257D01*
X116497Y70395D01*
X116524Y70532D01*
X116522Y70551D01*
X116526Y70571D01*
X116512Y70710D01*
X116504Y70849D01*
X116498Y70868D01*
X116496Y70888D01*
X116449Y71019D01*
X116406Y71151D01*
X116395Y71168D01*
X116388Y71187D01*
X116310Y71302D01*
X116236Y71420D01*
X116221Y71434D01*
X116210Y71450D01*
X116105Y71543D01*
X116004Y71638D01*
X115987Y71648D01*
X115972Y71661D01*
X115847Y71725D01*
X115726Y71792D01*
X115706Y71797D01*
X115688Y71806D01*
X115552Y71836D01*
X115418Y71871D01*
X115390Y71873D01*
X115378Y71875D01*
X115358Y71875D01*
X115257Y71881D01*
X25231Y71881D01*
X25202Y71878D01*
X25173Y71880D01*
X25045Y71858D01*
X24916Y71841D01*
X24889Y71831D01*
X24859Y71826D01*
X24741Y71772D01*
X24620Y71724D01*
X24596Y71707D01*
X24569Y71695D01*
X24468Y71614D01*
X24363Y71538D01*
X24344Y71515D01*
X24321Y71496D01*
X24243Y71393D01*
X24160Y71293D01*
X24147Y71266D01*
X24130Y71242D01*
X24059Y71098D01*
X23252Y69150D01*
X19750Y65648D01*
X15176Y63753D01*
X10224Y63753D01*
X5820Y65578D01*
X5772Y65591D01*
X5727Y65612D01*
X5619Y65633D01*
X5513Y65662D01*
X5463Y65662D01*
X5414Y65672D01*
X5305Y65665D01*
X5195Y65667D01*
X5147Y65655D01*
X5097Y65652D01*
X4993Y65618D01*
X4886Y65593D01*
X4842Y65569D01*
X4795Y65554D01*
X4702Y65495D01*
X4605Y65444D01*
X4568Y65410D01*
X4526Y65384D01*
X4451Y65304D01*
X4369Y65230D01*
X4342Y65188D01*
X4308Y65152D01*
X4255Y65056D01*
X4195Y64964D01*
X4178Y64917D01*
X4154Y64874D01*
X4127Y64767D01*
X4091Y64663D01*
X4087Y64614D01*
X4075Y64566D01*
X4065Y64405D01*
X4065Y52597D01*
X4073Y52528D01*
X4072Y52458D01*
X4093Y52370D01*
X4105Y52281D01*
X4130Y52216D01*
X4147Y52149D01*
X4189Y52069D01*
X4222Y51986D01*
X4263Y51929D01*
X4295Y51868D01*
X4356Y51801D01*
X4408Y51728D01*
X4462Y51684D01*
X4509Y51632D01*
X4584Y51583D01*
X4653Y51526D01*
X4717Y51496D01*
X4775Y51457D01*
X4860Y51428D01*
X4941Y51390D01*
X5010Y51377D01*
X5076Y51354D01*
X5165Y51347D01*
X5253Y51330D01*
X5323Y51335D01*
X5393Y51329D01*
X5481Y51344D01*
X5571Y51350D01*
X5637Y51371D01*
X5706Y51383D01*
X5788Y51420D01*
X5873Y51448D01*
X5932Y51485D01*
X5996Y51514D01*
X6066Y51570D01*
X6142Y51618D01*
X6190Y51669D01*
X6244Y51713D01*
X6299Y51784D01*
X6360Y51850D01*
X6394Y51911D01*
X6436Y51967D01*
X6507Y52111D01*
X7424Y54325D01*
X9175Y56076D01*
X11462Y57024D01*
X13938Y57024D01*
X16225Y56076D01*
X17976Y54325D01*
X18924Y52038D01*
X18924Y49562D01*
X18760Y49166D01*
X18759Y49165D01*
X18759Y49164D01*
X18713Y48994D01*
X18676Y48859D01*
X18676Y48858D01*
X18675Y48857D01*
X18673Y48695D01*
X18671Y48541D01*
X18671Y48540D01*
X18671Y48539D01*
X18708Y48385D01*
X18745Y48232D01*
X18745Y48231D01*
X18745Y48230D01*
X18817Y48096D01*
X18894Y47951D01*
X18894Y47950D01*
X18895Y47949D01*
X18995Y47839D01*
X19107Y47715D01*
X19108Y47715D01*
X19109Y47714D01*
X19246Y47625D01*
X19373Y47541D01*
X19374Y47540D01*
X19375Y47540D01*
X19532Y47486D01*
X19674Y47437D01*
X19675Y47437D01*
X19676Y47437D01*
X19841Y47424D01*
X19991Y47412D01*
X19992Y47412D01*
X19993Y47412D01*
X20153Y47430D01*
X25400Y48355D01*
X33251Y46971D01*
X40155Y42985D01*
X45280Y36878D01*
X48007Y29386D01*
X48007Y21414D01*
X45280Y13922D01*
X40156Y7815D01*
X37762Y6433D01*
X37646Y6345D01*
X37528Y6260D01*
X37519Y6249D01*
X37509Y6241D01*
X37418Y6127D01*
X37325Y6015D01*
X37319Y6002D01*
X37311Y5992D01*
X37251Y5858D01*
X37190Y5727D01*
X37187Y5714D01*
X37182Y5701D01*
X37157Y5557D01*
X37130Y5414D01*
X37131Y5401D01*
X37128Y5388D01*
X37141Y5242D01*
X37150Y5097D01*
X37154Y5084D01*
X37155Y5071D01*
X37203Y4933D01*
X37248Y4795D01*
X37255Y4783D01*
X37259Y4770D01*
X37340Y4649D01*
X37418Y4526D01*
X37428Y4517D01*
X37435Y4505D01*
X37543Y4408D01*
X37649Y4308D01*
X37661Y4301D01*
X37671Y4292D01*
X37801Y4225D01*
X37928Y4154D01*
X37941Y4151D01*
X37953Y4145D01*
X38095Y4111D01*
X38236Y4075D01*
X38254Y4074D01*
X38263Y4072D01*
X38280Y4072D01*
X38397Y4065D01*
X215603Y4065D01*
X215748Y4083D01*
G37*
G36*
X124784Y80531D02*
X124784Y80531D01*
X124883Y80534D01*
X124941Y80551D01*
X125001Y80559D01*
X125093Y80595D01*
X125188Y80623D01*
X125240Y80653D01*
X125297Y80676D01*
X125377Y80734D01*
X125462Y80784D01*
X125537Y80850D01*
X125554Y80862D01*
X125562Y80872D01*
X125583Y80890D01*
X136280Y91587D01*
X136340Y91665D01*
X136408Y91738D01*
X136437Y91791D01*
X136474Y91838D01*
X136514Y91929D01*
X136562Y92016D01*
X136577Y92075D01*
X136601Y92130D01*
X136616Y92228D01*
X136641Y92324D01*
X136647Y92424D01*
X136651Y92444D01*
X136649Y92457D01*
X136651Y92485D01*
X136651Y93620D01*
X136645Y93670D01*
X136647Y93719D01*
X136625Y93827D01*
X136611Y93936D01*
X136593Y93982D01*
X136583Y94031D01*
X136535Y94129D01*
X136494Y94231D01*
X136465Y94272D01*
X136443Y94316D01*
X136372Y94400D01*
X136308Y94489D01*
X136269Y94521D01*
X136237Y94558D01*
X136147Y94621D01*
X136063Y94692D01*
X136018Y94713D01*
X135977Y94741D01*
X135874Y94780D01*
X135775Y94827D01*
X135726Y94836D01*
X135680Y94854D01*
X135570Y94866D01*
X135463Y94887D01*
X135413Y94884D01*
X135364Y94889D01*
X135255Y94874D01*
X135145Y94867D01*
X135098Y94852D01*
X135049Y94845D01*
X134896Y94793D01*
X133545Y94233D01*
X130615Y94233D01*
X127907Y95355D01*
X125835Y97427D01*
X124713Y100135D01*
X124713Y102333D01*
X124701Y102432D01*
X124698Y102531D01*
X124681Y102589D01*
X124673Y102649D01*
X124637Y102741D01*
X124609Y102836D01*
X124579Y102888D01*
X124556Y102945D01*
X124498Y103025D01*
X124448Y103110D01*
X124382Y103185D01*
X124370Y103202D01*
X124360Y103210D01*
X124342Y103231D01*
X105263Y122310D01*
X105185Y122370D01*
X105112Y122438D01*
X105059Y122467D01*
X105012Y122504D01*
X104921Y122544D01*
X104834Y122592D01*
X104775Y122607D01*
X104720Y122631D01*
X104622Y122646D01*
X104526Y122671D01*
X104426Y122677D01*
X104406Y122681D01*
X104393Y122679D01*
X104365Y122681D01*
X25231Y122681D01*
X25202Y122678D01*
X25173Y122680D01*
X25045Y122658D01*
X24916Y122641D01*
X24889Y122631D01*
X24859Y122626D01*
X24741Y122572D01*
X24620Y122524D01*
X24596Y122507D01*
X24569Y122495D01*
X24468Y122414D01*
X24363Y122338D01*
X24344Y122315D01*
X24321Y122296D01*
X24243Y122193D01*
X24160Y122093D01*
X24147Y122066D01*
X24130Y122042D01*
X24059Y121898D01*
X23252Y119950D01*
X19751Y116448D01*
X17395Y115473D01*
X17274Y115404D01*
X17152Y115339D01*
X17137Y115325D01*
X17119Y115315D01*
X17019Y115218D01*
X16916Y115125D01*
X16905Y115108D01*
X16891Y115094D01*
X16818Y114976D01*
X16742Y114859D01*
X16735Y114840D01*
X16724Y114823D01*
X16684Y114690D01*
X16638Y114558D01*
X16637Y114538D01*
X16631Y114519D01*
X16624Y114380D01*
X16613Y114241D01*
X16617Y114221D01*
X16616Y114201D01*
X16644Y114065D01*
X16668Y113928D01*
X16676Y113909D01*
X16680Y113890D01*
X16741Y113765D01*
X16798Y113638D01*
X16811Y113622D01*
X16820Y113604D01*
X16910Y113498D01*
X16997Y113390D01*
X17013Y113377D01*
X17026Y113362D01*
X17140Y113282D01*
X17251Y113198D01*
X17276Y113186D01*
X17286Y113179D01*
X17305Y113172D01*
X17395Y113127D01*
X19750Y112152D01*
X23252Y108650D01*
X25147Y104076D01*
X25147Y99124D01*
X23252Y94550D01*
X19750Y91048D01*
X17395Y90073D01*
X17275Y90004D01*
X17152Y89939D01*
X17137Y89925D01*
X17119Y89915D01*
X17019Y89818D01*
X16916Y89725D01*
X16905Y89708D01*
X16891Y89694D01*
X16818Y89576D01*
X16742Y89459D01*
X16735Y89440D01*
X16724Y89423D01*
X16684Y89290D01*
X16638Y89158D01*
X16637Y89138D01*
X16631Y89119D01*
X16624Y88980D01*
X16613Y88841D01*
X16617Y88821D01*
X16616Y88801D01*
X16644Y88665D01*
X16668Y88528D01*
X16676Y88509D01*
X16680Y88490D01*
X16741Y88365D01*
X16798Y88238D01*
X16811Y88222D01*
X16820Y88204D01*
X16910Y88098D01*
X16997Y87990D01*
X17013Y87977D01*
X17026Y87962D01*
X17140Y87882D01*
X17251Y87798D01*
X17276Y87786D01*
X17286Y87779D01*
X17305Y87772D01*
X17395Y87727D01*
X19750Y86752D01*
X23252Y83250D01*
X24059Y81302D01*
X24073Y81277D01*
X24083Y81249D01*
X24152Y81139D01*
X24216Y81026D01*
X24237Y81005D01*
X24253Y80980D01*
X24347Y80891D01*
X24438Y80798D01*
X24463Y80782D01*
X24484Y80762D01*
X24598Y80699D01*
X24709Y80631D01*
X24737Y80623D01*
X24763Y80608D01*
X24889Y80576D01*
X25013Y80538D01*
X25042Y80536D01*
X25071Y80529D01*
X25231Y80519D01*
X124685Y80519D01*
X124784Y80531D01*
G37*
%LPC*%
G36*
X408961Y165101D02*
X408961Y165101D01*
X401960Y168001D01*
X396601Y173360D01*
X393701Y180361D01*
X393701Y187939D01*
X396601Y194940D01*
X401960Y200299D01*
X408961Y203199D01*
X416539Y203199D01*
X423540Y200299D01*
X428899Y194940D01*
X431799Y187939D01*
X431799Y180361D01*
X428899Y173360D01*
X423540Y168001D01*
X416539Y165101D01*
X408961Y165101D01*
G37*
%LPD*%
%LPC*%
G36*
X408961Y50801D02*
X408961Y50801D01*
X401960Y53701D01*
X396601Y59060D01*
X393701Y66061D01*
X393701Y73639D01*
X396601Y80640D01*
X401960Y85999D01*
X408961Y88899D01*
X416539Y88899D01*
X423540Y85999D01*
X428899Y80640D01*
X431799Y73639D01*
X431799Y66061D01*
X428899Y59060D01*
X423540Y53701D01*
X416539Y50801D01*
X408961Y50801D01*
G37*
%LPD*%
%LPC*%
G36*
X15239Y180339D02*
X15239Y180339D01*
X15239Y189485D01*
X15496Y189445D01*
X17283Y188864D01*
X18957Y188011D01*
X20478Y186906D01*
X21806Y185578D01*
X22911Y184057D01*
X23764Y182383D01*
X24345Y180596D01*
X24385Y180339D01*
X15239Y180339D01*
G37*
%LPD*%
G36*
X394354Y132029D02*
X394354Y132029D01*
X394376Y132033D01*
X394383Y132048D01*
X394392Y132054D01*
X394391Y132064D01*
X394398Y132080D01*
X394398Y134620D01*
X394386Y134639D01*
X394382Y134661D01*
X394367Y134668D01*
X394361Y134677D01*
X394351Y134676D01*
X394335Y134683D01*
X385509Y134683D01*
X385490Y134671D01*
X385467Y134667D01*
X385460Y134652D01*
X385451Y134646D01*
X385453Y134636D01*
X385446Y134620D01*
X385446Y132080D01*
X385458Y132061D01*
X385461Y132039D01*
X385477Y132032D01*
X385483Y132023D01*
X385493Y132024D01*
X385509Y132017D01*
X394335Y132017D01*
X394354Y132029D01*
G37*
G36*
X287610Y119329D02*
X287610Y119329D01*
X287633Y119333D01*
X287640Y119348D01*
X287649Y119354D01*
X287647Y119364D01*
X287654Y119380D01*
X287654Y121920D01*
X287642Y121939D01*
X287639Y121961D01*
X287623Y121968D01*
X287617Y121977D01*
X287607Y121976D01*
X287592Y121983D01*
X278765Y121983D01*
X278746Y121971D01*
X278724Y121967D01*
X278717Y121952D01*
X278708Y121946D01*
X278709Y121936D01*
X278702Y121920D01*
X278702Y119380D01*
X278714Y119361D01*
X278718Y119339D01*
X278733Y119332D01*
X278739Y119323D01*
X278749Y119324D01*
X278765Y119317D01*
X287592Y119317D01*
X287610Y119329D01*
G37*
D10*
X426754Y148463D02*
X436753Y143463D01*
X426754Y138464D01*
X426754Y132091D02*
X421754Y127092D01*
X436753Y127092D01*
X436753Y132091D02*
X436753Y122092D01*
X426754Y115720D02*
X421754Y110720D01*
X436753Y110720D01*
X436753Y105721D02*
X436753Y115720D01*
D11*
X323850Y171450D03*
X349250Y158750D03*
X323850Y146050D03*
X323850Y120650D03*
X323850Y95250D03*
X349250Y133350D03*
X349250Y107950D03*
D12*
X349250Y82550D03*
D13*
X280543Y120650D03*
X290957Y120650D03*
X392557Y133350D03*
X382143Y133350D03*
D14*
X12700Y50800D03*
X438150Y247650D03*
D11*
X12700Y76200D03*
X266700Y12700D03*
X292100Y12700D03*
X12700Y177800D03*
X12700Y152400D03*
X12700Y127000D03*
X12700Y101600D03*
D15*
X80010Y152400D03*
X132080Y101600D03*
D16*
X106680Y127000D01*
X80010Y127000D02*
X80010Y152400D01*
X80010Y127000D02*
X106680Y127000D01*
X80010Y127000D02*
X12700Y127000D01*
D15*
X111760Y189230D03*
D16*
X111760Y185420D02*
X121920Y175260D01*
X121920Y143510D01*
X130810Y134620D01*
X147320Y134620D01*
X152400Y129540D01*
X152400Y101600D01*
D15*
X152400Y101600D03*
D16*
X111760Y185420D02*
X111760Y189230D01*
D15*
X107950Y66040D03*
D17*
X52070Y57150D03*
D15*
X134620Y144780D03*
D17*
X231140Y182880D03*
X383540Y157480D03*
D16*
X392557Y151257D02*
X392557Y133350D01*
X392557Y151257D02*
X393700Y152400D01*
X392557Y133350D02*
X407670Y133350D01*
X392557Y133350D02*
X392557Y118237D01*
X391160Y116840D01*
D17*
X58420Y86360D03*
X62230Y114300D03*
X36830Y139700D03*
X189230Y50800D03*
X191770Y168910D03*
X293370Y219710D03*
X254000Y50800D03*
X304800Y38100D03*
D15*
X245110Y171450D03*
X260350Y127000D03*
D18*
X266700Y120650D02*
X280543Y120650D01*
X266700Y120650D02*
X260350Y127000D01*
X260350Y156210D01*
X245110Y171450D01*
D17*
X121920Y31369D03*
D19*
X121920Y65960D01*
X122000Y66040D01*
D17*
X122000Y66040D03*
D15*
X140970Y123190D03*
D16*
X127000Y76200D02*
X12700Y76200D01*
X127000Y76200D02*
X140970Y90170D01*
X140970Y123190D01*
D18*
X290957Y120650D02*
X323850Y120650D01*
X290957Y120650D02*
X280670Y120650D01*
X349250Y133350D02*
X382143Y133350D01*
X391160Y133350D01*
D20*
X336550Y89989D02*
X329111Y82550D01*
X336550Y89989D02*
X336550Y95250D01*
X349250Y107950D01*
X281940Y22860D02*
X292100Y12700D01*
X298450Y82550D02*
X329111Y82550D01*
X298450Y82550D02*
X281940Y66040D01*
X281940Y22860D01*
X316660Y107950D02*
X329111Y107950D01*
X336550Y115389D01*
X336550Y133350D01*
X323850Y146050D01*
X276860Y22860D02*
X266700Y12700D01*
X276860Y68150D02*
X316660Y107950D01*
X276860Y68150D02*
X276860Y22860D01*
M02*
