M48
;GenerationSoftware,Autodesk,EAGLE,9.6.0*%
;CreationDate,2020-08-25T17:23:22Z*%
FMAT,2
ICI,OFF
METRIC,TZ,000.000
T6C0.381
T5C0.508
T4C1.000
T3C1.016
T2C3.200
T1C3.302
%
G90
M71
T1
X2540Y22860
X22860Y22860
X22860Y2540
X2540Y2540
T2
X41275Y18415
X41275Y6985
T3
X1270Y10160
X26670Y1270
X1270Y7620
X29210Y1270
X1270Y17780
X1270Y15240
X1270Y12700
T4
X34925Y13335
X32385Y12065
X32385Y14605
X34925Y15875
X32385Y17145
X34925Y10795
X34925Y8255
X32385Y9525
T5
X14097Y12319
X8001Y15240
X13208Y10160
X11176Y18923
X15240Y10160
X10795Y6604
X13462Y14478
X24511Y17145
X26035Y12700
T6
X6223Y11430
X5842Y8636
X38354Y15748
X23114Y18288
X12200Y6604
X12192Y3137
X25400Y5080
X5207Y5715
X29337Y21971
X30480Y3810
X19177Y16891
X18923Y5080
X3683Y13970
M30