M48
;GenerationSoftware,Autodesk,EAGLE,9.6.0*%
;CreationDate,2020-07-30T22:12:44Z*%
FMAT,2
ICI,OFF
METRIC,TZ,000.000
T6C0.381
T5C0.508
T4C1.000
T3C1.016
T2C3.200
T1C3.302
%
G90
M71
T1
X107696Y100584
X160274Y74676
X22860Y80264
X22860Y2540
X22860Y22860
X2540Y2540
X2540Y22860
X22860Y100584
X2540Y80264
X75438Y2540
X75438Y22860
X55118Y2540
X55118Y22860
X2540Y100584
X75438Y80264
X128016Y2540
X128016Y22860
X107696Y2540
X107696Y22860
X107696Y80264
X75438Y100584
X180594Y2540
X180594Y22860
X160274Y2540
X160274Y22860
X55118Y80264
X55118Y100584
X22860Y28448
X22860Y48768
X2540Y28448
X2540Y48768
X128016Y80264
X128016Y100584
X75438Y28448
X75438Y48768
X55118Y28448
X55118Y48768
X160274Y100584
X160274Y80264
X128016Y28448
X128016Y48768
X107696Y28448
X107696Y48768
X180594Y100584
X180594Y80264
X180594Y28448
X180594Y48768
X160274Y28448
X160274Y48768
X22860Y54356
X22860Y74676
X2540Y54356
X2540Y74676
X75438Y54356
X75438Y74676
X55118Y54356
X55118Y74676
X128016Y54356
X128016Y74676
X107696Y54356
X107696Y74676
X180594Y54356
X180594Y74676
X160274Y54356
T2
X41275Y6985
X41275Y18415
X93853Y6985
X93853Y18415
X146431Y6985
X146431Y18415
X199009Y18415
X41275Y32893
X41275Y44323
X93853Y32893
X93853Y44323
X146431Y32893
X146431Y44323
X199009Y32893
X199009Y44323
X199009Y70231
X93853Y84709
X93853Y96139
X146431Y58801
X199009Y6985
X146431Y70231
X41275Y58801
X146431Y84709
X146431Y96139
X41275Y70231
X41275Y84709
X41275Y96139
X93853Y58801
X93853Y70231
X199009Y58801
X199009Y96139
X199009Y84709
T3
X186944Y53086
X159004Y69596
X159004Y64516
X159004Y61976
X29210Y101854
X26670Y101854
X1270Y85344
X26670Y78994
X29210Y78994
X1270Y95504
X1270Y92964
X1270Y90424
X1270Y87884
X81788Y101854
X79248Y101854
X53848Y85344
X79248Y78994
X81788Y78994
X53848Y95504
X53848Y92964
X53848Y90424
X53848Y87884
X134366Y101854
X131826Y101854
X106426Y85344
X131826Y78994
X134366Y78994
X106426Y95504
X106426Y92964
X106426Y90424
X106426Y87884
X186944Y101854
X184404Y101854
X159004Y85344
X184404Y78994
X186944Y78994
X159004Y95504
X159004Y92964
X159004Y90424
X159004Y87884
X159004Y67056
X29210Y24130
X26670Y24130
X1270Y7620
X26670Y1270
X29210Y1270
X1270Y17780
X1270Y15240
X1270Y12700
X1270Y10160
X81788Y24130
X79248Y24130
X53848Y7620
X79248Y1270
X81788Y1270
X53848Y17780
X53848Y15240
X53848Y12700
X53848Y10160
X134366Y24130
X131826Y24130
X106426Y7620
X131826Y1270
X134366Y1270
X106426Y17780
X106426Y15240
X106426Y12700
X106426Y10160
X186944Y24130
X184404Y24130
X159004Y7620
X184404Y1270
X186944Y1270
X159004Y17780
X159004Y15240
X159004Y12700
X159004Y10160
X29210Y50038
X26670Y50038
X1270Y33528
X26670Y27178
X29210Y27178
X1270Y43688
X1270Y41148
X1270Y38608
X1270Y36068
X81788Y50038
X79248Y50038
X53848Y33528
X79248Y27178
X81788Y27178
X53848Y43688
X53848Y41148
X53848Y38608
X53848Y36068
X134366Y50038
X131826Y50038
X106426Y33528
X131826Y27178
X134366Y27178
X106426Y43688
X106426Y41148
X106426Y38608
X106426Y36068
X186944Y50038
X184404Y50038
X159004Y33528
X184404Y27178
X186944Y27178
X159004Y43688
X159004Y41148
X159004Y38608
X159004Y36068
X29210Y75946
X26670Y75946
X1270Y59436
X26670Y53086
X29210Y53086
X1270Y69596
X1270Y67056
X1270Y64516
X1270Y61976
X81788Y75946
X79248Y75946
X53848Y59436
X79248Y53086
X81788Y53086
X53848Y69596
X53848Y67056
X53848Y64516
X53848Y61976
X134366Y75946
X131826Y75946
X106426Y59436
X131826Y53086
X134366Y53086
X106426Y69596
X106426Y67056
X106426Y64516
X106426Y61976
X186944Y75946
X184404Y75946
X159004Y59436
X184404Y53086
T4
X34925Y65151
X34925Y39243
X32385Y61341
X87503Y65151
X84963Y61341
X87503Y67691
X84963Y68961
X34925Y34163
X34925Y36703
X32385Y9525
X32385Y43053
X34925Y13335
X32385Y12065
X32385Y40513
X84963Y17145
X34925Y41783
X34925Y67691
X84963Y63881
X84963Y66421
X87503Y60071
X87503Y62611
X34925Y60071
X34925Y62611
X32385Y68961
X32385Y35433
X32385Y37973
X32385Y63881
X32385Y66421
X34925Y10795
X34925Y8255
X137541Y17145
X140081Y15875
X137541Y68961
X140081Y67691
X137541Y66421
X137541Y63881
X137541Y61341
X140081Y65151
X140081Y62611
X140081Y60071
X137541Y14605
X137541Y12065
X84963Y43053
X87503Y41783
X84963Y40513
X84963Y37973
X84963Y35433
X87503Y39243
X87503Y36703
X190119Y68961
X192659Y67691
X190119Y66421
X190119Y63881
X190119Y61341
X192659Y65151
X192659Y62611
X192659Y60071
X87503Y34163
X137541Y9525
X140081Y13335
X140081Y10795
X140081Y8255
X32385Y94869
X34925Y93599
X32385Y92329
X32385Y89789
X32385Y87249
X34925Y91059
X34925Y88519
X34925Y85979
X32385Y17145
X137541Y43053
X140081Y41783
X137541Y40513
X137541Y37973
X137541Y35433
X140081Y39243
X140081Y36703
X84963Y94869
X87503Y93599
X84963Y92329
X84963Y89789
X84963Y87249
X87503Y91059
X87503Y88519
X87503Y85979
X140081Y34163
X34925Y15875
X87503Y15875
X84963Y14605
X190119Y17145
X192659Y15875
X190119Y14605
X190119Y12065
X137541Y94869
X140081Y93599
X137541Y92329
X137541Y89789
X137541Y87249
X140081Y91059
X140081Y88519
X140081Y85979
X190119Y9525
X190119Y43053
X192659Y41783
X190119Y40513
X190119Y37973
X190119Y35433
X192659Y39243
X192659Y36703
X192659Y34163
X190119Y94869
X192659Y93599
X190119Y92329
X190119Y89789
X190119Y87249
X192659Y91059
X192659Y88519
X192659Y85979
X192659Y13335
X192659Y10795
X192659Y8255
X84963Y12065
X84963Y9525
X87503Y13335
X87503Y10795
X87503Y8255
X32385Y14605
T5
X120396Y61976
X115951Y58420
X110363Y57531
X118618Y66294
X129667Y68961
X131191Y64516
X119253Y64135
X165735Y67056
X170942Y61976
X168910Y70739
X172974Y61976
X168529Y58420
X162941Y57531
X171196Y66294
X182245Y68961
X183769Y64516
X171831Y64135
X8001Y92964
X13208Y87884
X11176Y96647
X15240Y87884
X10795Y84328
X5207Y83439
X13462Y92202
X24511Y94869
X26035Y90424
X14097Y90043
X60579Y92964
X65786Y87884
X63754Y96647
X67818Y87884
X63373Y84328
X168529Y6604
X66040Y92202
X77089Y94869
X78613Y90424
X66675Y90043
X113157Y92964
X118364Y87884
X116332Y96647
X120396Y87884
X115951Y84328
X110363Y83439
X118618Y92202
X129667Y94869
X131191Y90424
X119253Y90043
X165735Y92964
X170942Y87884
X168910Y96647
X172974Y87884
X168529Y84328
X57785Y83439
X8001Y15240
X13208Y10160
X171831Y90043
X183769Y90424
X182245Y94869
X11176Y18923
X15240Y10160
X10795Y6604
X5207Y5715
X13462Y14478
X24511Y17145
X26035Y12700
X14097Y12319
X60579Y15240
X65786Y10160
X63754Y18923
X67818Y10160
X63373Y6604
X57785Y5715
X66040Y14478
X77089Y17145
X78613Y12700
X66675Y12319
X113157Y15240
X118364Y10160
X116332Y18923
X120396Y10160
X115951Y6604
X110363Y5715
X118618Y14478
X129667Y17145
X131191Y12700
X119253Y12319
X165735Y15240
X170942Y10160
X168910Y18923
X172974Y10160
X78613Y38608
X171196Y92202
X162941Y5715
X171196Y14478
X182245Y17145
X183769Y12700
X171831Y12319
X8001Y41148
X13208Y36068
X11176Y44831
X162941Y83439
X15240Y36068
X10795Y32512
X5207Y31623
X13462Y40386
X24511Y43053
X26035Y38608
X14097Y38227
X60579Y41148
X65786Y36068
X63754Y44831
X67818Y36068
X63373Y32512
X57785Y31623
X66040Y40386
X77089Y43053
X66675Y38227
X113157Y41148
X118364Y36068
X118364Y61976
X116332Y44831
X120396Y36068
X115951Y32512
X110363Y31623
X118618Y40386
X129667Y43053
X131191Y38608
X119253Y38227
X165735Y41148
X170942Y36068
X168910Y44831
X172974Y36068
X168529Y32512
X162941Y31623
X171196Y40386
X182245Y43053
X183769Y38608
X171831Y38227
X8001Y67056
X13208Y61976
X11176Y70739
X15240Y61976
X10795Y58420
X5207Y57531
X13462Y66294
X24511Y68961
X26035Y64516
X14097Y64135
X60579Y67056
X65786Y61976
X63754Y70739
X67818Y61976
X63373Y58420
X57785Y57531
X66040Y66294
X77089Y68961
X78613Y64516
X66675Y64135
X113157Y67056
X116332Y70739
T6
X169934Y32512
X169926Y29045
X117356Y32512
X117348Y29045
X64778Y32512
X64770Y29045
X64770Y80861
X12200Y32512
X12192Y29045
X169934Y6604
X169926Y3137
X117356Y6604
X117348Y3137
X64778Y6604
X64770Y3137
X12200Y6604
X12192Y3137
X64778Y84328
X117348Y80861
X117356Y84328
X12200Y84328
X12192Y80861
X169934Y58420
X169926Y54953
X169934Y84328
X117356Y58420
X169926Y80861
X117348Y54953
X64778Y58420
X64770Y54953
X12200Y58420
X12192Y54953
M30