G04 EAGLE Gerber RS-274X export*
G75*
%MOMM*%
%FSLAX34Y34*%
%LPD*%
%IN*%
%IPPOS*%
%AMOC8*
5,1,8,0,0,1.08239X$1,22.5*%
G01*
%ADD10C,0.203200*%
%ADD11C,0.000000*%
%ADD12C,0.254000*%


D10*
X444500Y0D02*
X0Y0D01*
X0Y254000D01*
X444500Y254000D01*
X444500Y0D01*
D11*
X396750Y69850D02*
X396755Y70243D01*
X396769Y70635D01*
X396793Y71027D01*
X396827Y71418D01*
X396870Y71809D01*
X396923Y72198D01*
X396986Y72585D01*
X397057Y72971D01*
X397139Y73356D01*
X397229Y73738D01*
X397330Y74117D01*
X397439Y74495D01*
X397558Y74869D01*
X397685Y75240D01*
X397822Y75608D01*
X397968Y75973D01*
X398123Y76334D01*
X398286Y76691D01*
X398458Y77044D01*
X398639Y77392D01*
X398829Y77736D01*
X399026Y78076D01*
X399232Y78410D01*
X399446Y78739D01*
X399669Y79063D01*
X399899Y79381D01*
X400136Y79694D01*
X400382Y80000D01*
X400635Y80301D01*
X400895Y80595D01*
X401162Y80883D01*
X401436Y81164D01*
X401717Y81438D01*
X402005Y81705D01*
X402299Y81965D01*
X402600Y82218D01*
X402906Y82464D01*
X403219Y82701D01*
X403537Y82931D01*
X403861Y83154D01*
X404190Y83368D01*
X404524Y83574D01*
X404864Y83771D01*
X405208Y83961D01*
X405556Y84142D01*
X405909Y84314D01*
X406266Y84477D01*
X406627Y84632D01*
X406992Y84778D01*
X407360Y84915D01*
X407731Y85042D01*
X408105Y85161D01*
X408483Y85270D01*
X408862Y85371D01*
X409244Y85461D01*
X409629Y85543D01*
X410015Y85614D01*
X410402Y85677D01*
X410791Y85730D01*
X411182Y85773D01*
X411573Y85807D01*
X411965Y85831D01*
X412357Y85845D01*
X412750Y85850D01*
X413143Y85845D01*
X413535Y85831D01*
X413927Y85807D01*
X414318Y85773D01*
X414709Y85730D01*
X415098Y85677D01*
X415485Y85614D01*
X415871Y85543D01*
X416256Y85461D01*
X416638Y85371D01*
X417017Y85270D01*
X417395Y85161D01*
X417769Y85042D01*
X418140Y84915D01*
X418508Y84778D01*
X418873Y84632D01*
X419234Y84477D01*
X419591Y84314D01*
X419944Y84142D01*
X420292Y83961D01*
X420636Y83771D01*
X420976Y83574D01*
X421310Y83368D01*
X421639Y83154D01*
X421963Y82931D01*
X422281Y82701D01*
X422594Y82464D01*
X422900Y82218D01*
X423201Y81965D01*
X423495Y81705D01*
X423783Y81438D01*
X424064Y81164D01*
X424338Y80883D01*
X424605Y80595D01*
X424865Y80301D01*
X425118Y80000D01*
X425364Y79694D01*
X425601Y79381D01*
X425831Y79063D01*
X426054Y78739D01*
X426268Y78410D01*
X426474Y78076D01*
X426671Y77736D01*
X426861Y77392D01*
X427042Y77044D01*
X427214Y76691D01*
X427377Y76334D01*
X427532Y75973D01*
X427678Y75608D01*
X427815Y75240D01*
X427942Y74869D01*
X428061Y74495D01*
X428170Y74117D01*
X428271Y73738D01*
X428361Y73356D01*
X428443Y72971D01*
X428514Y72585D01*
X428577Y72198D01*
X428630Y71809D01*
X428673Y71418D01*
X428707Y71027D01*
X428731Y70635D01*
X428745Y70243D01*
X428750Y69850D01*
X428745Y69457D01*
X428731Y69065D01*
X428707Y68673D01*
X428673Y68282D01*
X428630Y67891D01*
X428577Y67502D01*
X428514Y67115D01*
X428443Y66729D01*
X428361Y66344D01*
X428271Y65962D01*
X428170Y65583D01*
X428061Y65205D01*
X427942Y64831D01*
X427815Y64460D01*
X427678Y64092D01*
X427532Y63727D01*
X427377Y63366D01*
X427214Y63009D01*
X427042Y62656D01*
X426861Y62308D01*
X426671Y61964D01*
X426474Y61624D01*
X426268Y61290D01*
X426054Y60961D01*
X425831Y60637D01*
X425601Y60319D01*
X425364Y60006D01*
X425118Y59700D01*
X424865Y59399D01*
X424605Y59105D01*
X424338Y58817D01*
X424064Y58536D01*
X423783Y58262D01*
X423495Y57995D01*
X423201Y57735D01*
X422900Y57482D01*
X422594Y57236D01*
X422281Y56999D01*
X421963Y56769D01*
X421639Y56546D01*
X421310Y56332D01*
X420976Y56126D01*
X420636Y55929D01*
X420292Y55739D01*
X419944Y55558D01*
X419591Y55386D01*
X419234Y55223D01*
X418873Y55068D01*
X418508Y54922D01*
X418140Y54785D01*
X417769Y54658D01*
X417395Y54539D01*
X417017Y54430D01*
X416638Y54329D01*
X416256Y54239D01*
X415871Y54157D01*
X415485Y54086D01*
X415098Y54023D01*
X414709Y53970D01*
X414318Y53927D01*
X413927Y53893D01*
X413535Y53869D01*
X413143Y53855D01*
X412750Y53850D01*
X412357Y53855D01*
X411965Y53869D01*
X411573Y53893D01*
X411182Y53927D01*
X410791Y53970D01*
X410402Y54023D01*
X410015Y54086D01*
X409629Y54157D01*
X409244Y54239D01*
X408862Y54329D01*
X408483Y54430D01*
X408105Y54539D01*
X407731Y54658D01*
X407360Y54785D01*
X406992Y54922D01*
X406627Y55068D01*
X406266Y55223D01*
X405909Y55386D01*
X405556Y55558D01*
X405208Y55739D01*
X404864Y55929D01*
X404524Y56126D01*
X404190Y56332D01*
X403861Y56546D01*
X403537Y56769D01*
X403219Y56999D01*
X402906Y57236D01*
X402600Y57482D01*
X402299Y57735D01*
X402005Y57995D01*
X401717Y58262D01*
X401436Y58536D01*
X401162Y58817D01*
X400895Y59105D01*
X400635Y59399D01*
X400382Y59700D01*
X400136Y60006D01*
X399899Y60319D01*
X399669Y60637D01*
X399446Y60961D01*
X399232Y61290D01*
X399026Y61624D01*
X398829Y61964D01*
X398639Y62308D01*
X398458Y62656D01*
X398286Y63009D01*
X398123Y63366D01*
X397968Y63727D01*
X397822Y64092D01*
X397685Y64460D01*
X397558Y64831D01*
X397439Y65205D01*
X397330Y65583D01*
X397229Y65962D01*
X397139Y66344D01*
X397057Y66729D01*
X396986Y67115D01*
X396923Y67502D01*
X396870Y67891D01*
X396827Y68282D01*
X396793Y68673D01*
X396769Y69065D01*
X396755Y69457D01*
X396750Y69850D01*
X396750Y184150D02*
X396755Y184543D01*
X396769Y184935D01*
X396793Y185327D01*
X396827Y185718D01*
X396870Y186109D01*
X396923Y186498D01*
X396986Y186885D01*
X397057Y187271D01*
X397139Y187656D01*
X397229Y188038D01*
X397330Y188417D01*
X397439Y188795D01*
X397558Y189169D01*
X397685Y189540D01*
X397822Y189908D01*
X397968Y190273D01*
X398123Y190634D01*
X398286Y190991D01*
X398458Y191344D01*
X398639Y191692D01*
X398829Y192036D01*
X399026Y192376D01*
X399232Y192710D01*
X399446Y193039D01*
X399669Y193363D01*
X399899Y193681D01*
X400136Y193994D01*
X400382Y194300D01*
X400635Y194601D01*
X400895Y194895D01*
X401162Y195183D01*
X401436Y195464D01*
X401717Y195738D01*
X402005Y196005D01*
X402299Y196265D01*
X402600Y196518D01*
X402906Y196764D01*
X403219Y197001D01*
X403537Y197231D01*
X403861Y197454D01*
X404190Y197668D01*
X404524Y197874D01*
X404864Y198071D01*
X405208Y198261D01*
X405556Y198442D01*
X405909Y198614D01*
X406266Y198777D01*
X406627Y198932D01*
X406992Y199078D01*
X407360Y199215D01*
X407731Y199342D01*
X408105Y199461D01*
X408483Y199570D01*
X408862Y199671D01*
X409244Y199761D01*
X409629Y199843D01*
X410015Y199914D01*
X410402Y199977D01*
X410791Y200030D01*
X411182Y200073D01*
X411573Y200107D01*
X411965Y200131D01*
X412357Y200145D01*
X412750Y200150D01*
X413143Y200145D01*
X413535Y200131D01*
X413927Y200107D01*
X414318Y200073D01*
X414709Y200030D01*
X415098Y199977D01*
X415485Y199914D01*
X415871Y199843D01*
X416256Y199761D01*
X416638Y199671D01*
X417017Y199570D01*
X417395Y199461D01*
X417769Y199342D01*
X418140Y199215D01*
X418508Y199078D01*
X418873Y198932D01*
X419234Y198777D01*
X419591Y198614D01*
X419944Y198442D01*
X420292Y198261D01*
X420636Y198071D01*
X420976Y197874D01*
X421310Y197668D01*
X421639Y197454D01*
X421963Y197231D01*
X422281Y197001D01*
X422594Y196764D01*
X422900Y196518D01*
X423201Y196265D01*
X423495Y196005D01*
X423783Y195738D01*
X424064Y195464D01*
X424338Y195183D01*
X424605Y194895D01*
X424865Y194601D01*
X425118Y194300D01*
X425364Y193994D01*
X425601Y193681D01*
X425831Y193363D01*
X426054Y193039D01*
X426268Y192710D01*
X426474Y192376D01*
X426671Y192036D01*
X426861Y191692D01*
X427042Y191344D01*
X427214Y190991D01*
X427377Y190634D01*
X427532Y190273D01*
X427678Y189908D01*
X427815Y189540D01*
X427942Y189169D01*
X428061Y188795D01*
X428170Y188417D01*
X428271Y188038D01*
X428361Y187656D01*
X428443Y187271D01*
X428514Y186885D01*
X428577Y186498D01*
X428630Y186109D01*
X428673Y185718D01*
X428707Y185327D01*
X428731Y184935D01*
X428745Y184543D01*
X428750Y184150D01*
X428745Y183757D01*
X428731Y183365D01*
X428707Y182973D01*
X428673Y182582D01*
X428630Y182191D01*
X428577Y181802D01*
X428514Y181415D01*
X428443Y181029D01*
X428361Y180644D01*
X428271Y180262D01*
X428170Y179883D01*
X428061Y179505D01*
X427942Y179131D01*
X427815Y178760D01*
X427678Y178392D01*
X427532Y178027D01*
X427377Y177666D01*
X427214Y177309D01*
X427042Y176956D01*
X426861Y176608D01*
X426671Y176264D01*
X426474Y175924D01*
X426268Y175590D01*
X426054Y175261D01*
X425831Y174937D01*
X425601Y174619D01*
X425364Y174306D01*
X425118Y174000D01*
X424865Y173699D01*
X424605Y173405D01*
X424338Y173117D01*
X424064Y172836D01*
X423783Y172562D01*
X423495Y172295D01*
X423201Y172035D01*
X422900Y171782D01*
X422594Y171536D01*
X422281Y171299D01*
X421963Y171069D01*
X421639Y170846D01*
X421310Y170632D01*
X420976Y170426D01*
X420636Y170229D01*
X420292Y170039D01*
X419944Y169858D01*
X419591Y169686D01*
X419234Y169523D01*
X418873Y169368D01*
X418508Y169222D01*
X418140Y169085D01*
X417769Y168958D01*
X417395Y168839D01*
X417017Y168730D01*
X416638Y168629D01*
X416256Y168539D01*
X415871Y168457D01*
X415485Y168386D01*
X415098Y168323D01*
X414709Y168270D01*
X414318Y168227D01*
X413927Y168193D01*
X413535Y168169D01*
X413143Y168155D01*
X412750Y168150D01*
X412357Y168155D01*
X411965Y168169D01*
X411573Y168193D01*
X411182Y168227D01*
X410791Y168270D01*
X410402Y168323D01*
X410015Y168386D01*
X409629Y168457D01*
X409244Y168539D01*
X408862Y168629D01*
X408483Y168730D01*
X408105Y168839D01*
X407731Y168958D01*
X407360Y169085D01*
X406992Y169222D01*
X406627Y169368D01*
X406266Y169523D01*
X405909Y169686D01*
X405556Y169858D01*
X405208Y170039D01*
X404864Y170229D01*
X404524Y170426D01*
X404190Y170632D01*
X403861Y170846D01*
X403537Y171069D01*
X403219Y171299D01*
X402906Y171536D01*
X402600Y171782D01*
X402299Y172035D01*
X402005Y172295D01*
X401717Y172562D01*
X401436Y172836D01*
X401162Y173117D01*
X400895Y173405D01*
X400635Y173699D01*
X400382Y174000D01*
X400136Y174306D01*
X399899Y174619D01*
X399669Y174937D01*
X399446Y175261D01*
X399232Y175590D01*
X399026Y175924D01*
X398829Y176264D01*
X398639Y176608D01*
X398458Y176956D01*
X398286Y177309D01*
X398123Y177666D01*
X397968Y178027D01*
X397822Y178392D01*
X397685Y178760D01*
X397558Y179131D01*
X397439Y179505D01*
X397330Y179883D01*
X397229Y180262D01*
X397139Y180644D01*
X397057Y181029D01*
X396986Y181415D01*
X396923Y181802D01*
X396870Y182191D01*
X396827Y182582D01*
X396793Y182973D01*
X396769Y183365D01*
X396755Y183757D01*
X396750Y184150D01*
X212090Y25400D02*
X212095Y25805D01*
X212110Y26210D01*
X212135Y26615D01*
X212170Y27018D01*
X212214Y27421D01*
X212269Y27823D01*
X212333Y28223D01*
X212407Y28621D01*
X212491Y29017D01*
X212585Y29412D01*
X212688Y29803D01*
X212801Y30193D01*
X212923Y30579D01*
X213055Y30962D01*
X213196Y31342D01*
X213347Y31718D01*
X213506Y32091D01*
X213675Y32459D01*
X213853Y32823D01*
X214039Y33183D01*
X214235Y33538D01*
X214439Y33888D01*
X214651Y34233D01*
X214872Y34572D01*
X215102Y34907D01*
X215339Y35235D01*
X215584Y35557D01*
X215838Y35874D01*
X216098Y36184D01*
X216367Y36487D01*
X216643Y36784D01*
X216926Y37074D01*
X217216Y37357D01*
X217513Y37633D01*
X217816Y37902D01*
X218126Y38162D01*
X218443Y38416D01*
X218765Y38661D01*
X219093Y38898D01*
X219428Y39128D01*
X219767Y39349D01*
X220112Y39561D01*
X220462Y39765D01*
X220817Y39961D01*
X221177Y40147D01*
X221541Y40325D01*
X221909Y40494D01*
X222282Y40653D01*
X222658Y40804D01*
X223038Y40945D01*
X223421Y41077D01*
X223807Y41199D01*
X224197Y41312D01*
X224588Y41415D01*
X224983Y41509D01*
X225379Y41593D01*
X225777Y41667D01*
X226177Y41731D01*
X226579Y41786D01*
X226982Y41830D01*
X227385Y41865D01*
X227790Y41890D01*
X228195Y41905D01*
X228600Y41910D01*
X229005Y41905D01*
X229410Y41890D01*
X229815Y41865D01*
X230218Y41830D01*
X230621Y41786D01*
X231023Y41731D01*
X231423Y41667D01*
X231821Y41593D01*
X232217Y41509D01*
X232612Y41415D01*
X233003Y41312D01*
X233393Y41199D01*
X233779Y41077D01*
X234162Y40945D01*
X234542Y40804D01*
X234918Y40653D01*
X235291Y40494D01*
X235659Y40325D01*
X236023Y40147D01*
X236383Y39961D01*
X236738Y39765D01*
X237088Y39561D01*
X237433Y39349D01*
X237772Y39128D01*
X238107Y38898D01*
X238435Y38661D01*
X238757Y38416D01*
X239074Y38162D01*
X239384Y37902D01*
X239687Y37633D01*
X239984Y37357D01*
X240274Y37074D01*
X240557Y36784D01*
X240833Y36487D01*
X241102Y36184D01*
X241362Y35874D01*
X241616Y35557D01*
X241861Y35235D01*
X242098Y34907D01*
X242328Y34572D01*
X242549Y34233D01*
X242761Y33888D01*
X242965Y33538D01*
X243161Y33183D01*
X243347Y32823D01*
X243525Y32459D01*
X243694Y32091D01*
X243853Y31718D01*
X244004Y31342D01*
X244145Y30962D01*
X244277Y30579D01*
X244399Y30193D01*
X244512Y29803D01*
X244615Y29412D01*
X244709Y29017D01*
X244793Y28621D01*
X244867Y28223D01*
X244931Y27823D01*
X244986Y27421D01*
X245030Y27018D01*
X245065Y26615D01*
X245090Y26210D01*
X245105Y25805D01*
X245110Y25400D01*
X245105Y24995D01*
X245090Y24590D01*
X245065Y24185D01*
X245030Y23782D01*
X244986Y23379D01*
X244931Y22977D01*
X244867Y22577D01*
X244793Y22179D01*
X244709Y21783D01*
X244615Y21388D01*
X244512Y20997D01*
X244399Y20607D01*
X244277Y20221D01*
X244145Y19838D01*
X244004Y19458D01*
X243853Y19082D01*
X243694Y18709D01*
X243525Y18341D01*
X243347Y17977D01*
X243161Y17617D01*
X242965Y17262D01*
X242761Y16912D01*
X242549Y16567D01*
X242328Y16228D01*
X242098Y15893D01*
X241861Y15565D01*
X241616Y15243D01*
X241362Y14926D01*
X241102Y14616D01*
X240833Y14313D01*
X240557Y14016D01*
X240274Y13726D01*
X239984Y13443D01*
X239687Y13167D01*
X239384Y12898D01*
X239074Y12638D01*
X238757Y12384D01*
X238435Y12139D01*
X238107Y11902D01*
X237772Y11672D01*
X237433Y11451D01*
X237088Y11239D01*
X236738Y11035D01*
X236383Y10839D01*
X236023Y10653D01*
X235659Y10475D01*
X235291Y10306D01*
X234918Y10147D01*
X234542Y9996D01*
X234162Y9855D01*
X233779Y9723D01*
X233393Y9601D01*
X233003Y9488D01*
X232612Y9385D01*
X232217Y9291D01*
X231821Y9207D01*
X231423Y9133D01*
X231023Y9069D01*
X230621Y9014D01*
X230218Y8970D01*
X229815Y8935D01*
X229410Y8910D01*
X229005Y8895D01*
X228600Y8890D01*
X228195Y8895D01*
X227790Y8910D01*
X227385Y8935D01*
X226982Y8970D01*
X226579Y9014D01*
X226177Y9069D01*
X225777Y9133D01*
X225379Y9207D01*
X224983Y9291D01*
X224588Y9385D01*
X224197Y9488D01*
X223807Y9601D01*
X223421Y9723D01*
X223038Y9855D01*
X222658Y9996D01*
X222282Y10147D01*
X221909Y10306D01*
X221541Y10475D01*
X221177Y10653D01*
X220817Y10839D01*
X220462Y11035D01*
X220112Y11239D01*
X219767Y11451D01*
X219428Y11672D01*
X219093Y11902D01*
X218765Y12139D01*
X218443Y12384D01*
X218126Y12638D01*
X217816Y12898D01*
X217513Y13167D01*
X217216Y13443D01*
X216926Y13726D01*
X216643Y14016D01*
X216367Y14313D01*
X216098Y14616D01*
X215838Y14926D01*
X215584Y15243D01*
X215339Y15565D01*
X215102Y15893D01*
X214872Y16228D01*
X214651Y16567D01*
X214439Y16912D01*
X214235Y17262D01*
X214039Y17617D01*
X213853Y17977D01*
X213675Y18341D01*
X213506Y18709D01*
X213347Y19082D01*
X213196Y19458D01*
X213055Y19838D01*
X212923Y20221D01*
X212801Y20607D01*
X212688Y20997D01*
X212585Y21388D01*
X212491Y21783D01*
X212407Y22179D01*
X212333Y22577D01*
X212269Y22977D01*
X212214Y23379D01*
X212170Y23782D01*
X212135Y24185D01*
X212110Y24590D01*
X212095Y24995D01*
X212090Y25400D01*
X212090Y228600D02*
X212095Y229005D01*
X212110Y229410D01*
X212135Y229815D01*
X212170Y230218D01*
X212214Y230621D01*
X212269Y231023D01*
X212333Y231423D01*
X212407Y231821D01*
X212491Y232217D01*
X212585Y232612D01*
X212688Y233003D01*
X212801Y233393D01*
X212923Y233779D01*
X213055Y234162D01*
X213196Y234542D01*
X213347Y234918D01*
X213506Y235291D01*
X213675Y235659D01*
X213853Y236023D01*
X214039Y236383D01*
X214235Y236738D01*
X214439Y237088D01*
X214651Y237433D01*
X214872Y237772D01*
X215102Y238107D01*
X215339Y238435D01*
X215584Y238757D01*
X215838Y239074D01*
X216098Y239384D01*
X216367Y239687D01*
X216643Y239984D01*
X216926Y240274D01*
X217216Y240557D01*
X217513Y240833D01*
X217816Y241102D01*
X218126Y241362D01*
X218443Y241616D01*
X218765Y241861D01*
X219093Y242098D01*
X219428Y242328D01*
X219767Y242549D01*
X220112Y242761D01*
X220462Y242965D01*
X220817Y243161D01*
X221177Y243347D01*
X221541Y243525D01*
X221909Y243694D01*
X222282Y243853D01*
X222658Y244004D01*
X223038Y244145D01*
X223421Y244277D01*
X223807Y244399D01*
X224197Y244512D01*
X224588Y244615D01*
X224983Y244709D01*
X225379Y244793D01*
X225777Y244867D01*
X226177Y244931D01*
X226579Y244986D01*
X226982Y245030D01*
X227385Y245065D01*
X227790Y245090D01*
X228195Y245105D01*
X228600Y245110D01*
X229005Y245105D01*
X229410Y245090D01*
X229815Y245065D01*
X230218Y245030D01*
X230621Y244986D01*
X231023Y244931D01*
X231423Y244867D01*
X231821Y244793D01*
X232217Y244709D01*
X232612Y244615D01*
X233003Y244512D01*
X233393Y244399D01*
X233779Y244277D01*
X234162Y244145D01*
X234542Y244004D01*
X234918Y243853D01*
X235291Y243694D01*
X235659Y243525D01*
X236023Y243347D01*
X236383Y243161D01*
X236738Y242965D01*
X237088Y242761D01*
X237433Y242549D01*
X237772Y242328D01*
X238107Y242098D01*
X238435Y241861D01*
X238757Y241616D01*
X239074Y241362D01*
X239384Y241102D01*
X239687Y240833D01*
X239984Y240557D01*
X240274Y240274D01*
X240557Y239984D01*
X240833Y239687D01*
X241102Y239384D01*
X241362Y239074D01*
X241616Y238757D01*
X241861Y238435D01*
X242098Y238107D01*
X242328Y237772D01*
X242549Y237433D01*
X242761Y237088D01*
X242965Y236738D01*
X243161Y236383D01*
X243347Y236023D01*
X243525Y235659D01*
X243694Y235291D01*
X243853Y234918D01*
X244004Y234542D01*
X244145Y234162D01*
X244277Y233779D01*
X244399Y233393D01*
X244512Y233003D01*
X244615Y232612D01*
X244709Y232217D01*
X244793Y231821D01*
X244867Y231423D01*
X244931Y231023D01*
X244986Y230621D01*
X245030Y230218D01*
X245065Y229815D01*
X245090Y229410D01*
X245105Y229005D01*
X245110Y228600D01*
X245105Y228195D01*
X245090Y227790D01*
X245065Y227385D01*
X245030Y226982D01*
X244986Y226579D01*
X244931Y226177D01*
X244867Y225777D01*
X244793Y225379D01*
X244709Y224983D01*
X244615Y224588D01*
X244512Y224197D01*
X244399Y223807D01*
X244277Y223421D01*
X244145Y223038D01*
X244004Y222658D01*
X243853Y222282D01*
X243694Y221909D01*
X243525Y221541D01*
X243347Y221177D01*
X243161Y220817D01*
X242965Y220462D01*
X242761Y220112D01*
X242549Y219767D01*
X242328Y219428D01*
X242098Y219093D01*
X241861Y218765D01*
X241616Y218443D01*
X241362Y218126D01*
X241102Y217816D01*
X240833Y217513D01*
X240557Y217216D01*
X240274Y216926D01*
X239984Y216643D01*
X239687Y216367D01*
X239384Y216098D01*
X239074Y215838D01*
X238757Y215584D01*
X238435Y215339D01*
X238107Y215102D01*
X237772Y214872D01*
X237433Y214651D01*
X237088Y214439D01*
X236738Y214235D01*
X236383Y214039D01*
X236023Y213853D01*
X235659Y213675D01*
X235291Y213506D01*
X234918Y213347D01*
X234542Y213196D01*
X234162Y213055D01*
X233779Y212923D01*
X233393Y212801D01*
X233003Y212688D01*
X232612Y212585D01*
X232217Y212491D01*
X231821Y212407D01*
X231423Y212333D01*
X231023Y212269D01*
X230621Y212214D01*
X230218Y212170D01*
X229815Y212135D01*
X229410Y212110D01*
X229005Y212095D01*
X228600Y212090D01*
X228195Y212095D01*
X227790Y212110D01*
X227385Y212135D01*
X226982Y212170D01*
X226579Y212214D01*
X226177Y212269D01*
X225777Y212333D01*
X225379Y212407D01*
X224983Y212491D01*
X224588Y212585D01*
X224197Y212688D01*
X223807Y212801D01*
X223421Y212923D01*
X223038Y213055D01*
X222658Y213196D01*
X222282Y213347D01*
X221909Y213506D01*
X221541Y213675D01*
X221177Y213853D01*
X220817Y214039D01*
X220462Y214235D01*
X220112Y214439D01*
X219767Y214651D01*
X219428Y214872D01*
X219093Y215102D01*
X218765Y215339D01*
X218443Y215584D01*
X218126Y215838D01*
X217816Y216098D01*
X217513Y216367D01*
X217216Y216643D01*
X216926Y216926D01*
X216643Y217216D01*
X216367Y217513D01*
X216098Y217816D01*
X215838Y218126D01*
X215584Y218443D01*
X215339Y218765D01*
X215102Y219093D01*
X214872Y219428D01*
X214651Y219767D01*
X214439Y220112D01*
X214235Y220462D01*
X214039Y220817D01*
X213853Y221177D01*
X213675Y221541D01*
X213506Y221909D01*
X213347Y222282D01*
X213196Y222658D01*
X213055Y223038D01*
X212923Y223421D01*
X212801Y223807D01*
X212688Y224197D01*
X212585Y224588D01*
X212491Y224983D01*
X212407Y225379D01*
X212333Y225777D01*
X212269Y226177D01*
X212214Y226579D01*
X212170Y226982D01*
X212135Y227385D01*
X212110Y227790D01*
X212095Y228195D01*
X212090Y228600D01*
X8890Y25400D02*
X8895Y25805D01*
X8910Y26210D01*
X8935Y26615D01*
X8970Y27018D01*
X9014Y27421D01*
X9069Y27823D01*
X9133Y28223D01*
X9207Y28621D01*
X9291Y29017D01*
X9385Y29412D01*
X9488Y29803D01*
X9601Y30193D01*
X9723Y30579D01*
X9855Y30962D01*
X9996Y31342D01*
X10147Y31718D01*
X10306Y32091D01*
X10475Y32459D01*
X10653Y32823D01*
X10839Y33183D01*
X11035Y33538D01*
X11239Y33888D01*
X11451Y34233D01*
X11672Y34572D01*
X11902Y34907D01*
X12139Y35235D01*
X12384Y35557D01*
X12638Y35874D01*
X12898Y36184D01*
X13167Y36487D01*
X13443Y36784D01*
X13726Y37074D01*
X14016Y37357D01*
X14313Y37633D01*
X14616Y37902D01*
X14926Y38162D01*
X15243Y38416D01*
X15565Y38661D01*
X15893Y38898D01*
X16228Y39128D01*
X16567Y39349D01*
X16912Y39561D01*
X17262Y39765D01*
X17617Y39961D01*
X17977Y40147D01*
X18341Y40325D01*
X18709Y40494D01*
X19082Y40653D01*
X19458Y40804D01*
X19838Y40945D01*
X20221Y41077D01*
X20607Y41199D01*
X20997Y41312D01*
X21388Y41415D01*
X21783Y41509D01*
X22179Y41593D01*
X22577Y41667D01*
X22977Y41731D01*
X23379Y41786D01*
X23782Y41830D01*
X24185Y41865D01*
X24590Y41890D01*
X24995Y41905D01*
X25400Y41910D01*
X25805Y41905D01*
X26210Y41890D01*
X26615Y41865D01*
X27018Y41830D01*
X27421Y41786D01*
X27823Y41731D01*
X28223Y41667D01*
X28621Y41593D01*
X29017Y41509D01*
X29412Y41415D01*
X29803Y41312D01*
X30193Y41199D01*
X30579Y41077D01*
X30962Y40945D01*
X31342Y40804D01*
X31718Y40653D01*
X32091Y40494D01*
X32459Y40325D01*
X32823Y40147D01*
X33183Y39961D01*
X33538Y39765D01*
X33888Y39561D01*
X34233Y39349D01*
X34572Y39128D01*
X34907Y38898D01*
X35235Y38661D01*
X35557Y38416D01*
X35874Y38162D01*
X36184Y37902D01*
X36487Y37633D01*
X36784Y37357D01*
X37074Y37074D01*
X37357Y36784D01*
X37633Y36487D01*
X37902Y36184D01*
X38162Y35874D01*
X38416Y35557D01*
X38661Y35235D01*
X38898Y34907D01*
X39128Y34572D01*
X39349Y34233D01*
X39561Y33888D01*
X39765Y33538D01*
X39961Y33183D01*
X40147Y32823D01*
X40325Y32459D01*
X40494Y32091D01*
X40653Y31718D01*
X40804Y31342D01*
X40945Y30962D01*
X41077Y30579D01*
X41199Y30193D01*
X41312Y29803D01*
X41415Y29412D01*
X41509Y29017D01*
X41593Y28621D01*
X41667Y28223D01*
X41731Y27823D01*
X41786Y27421D01*
X41830Y27018D01*
X41865Y26615D01*
X41890Y26210D01*
X41905Y25805D01*
X41910Y25400D01*
X41905Y24995D01*
X41890Y24590D01*
X41865Y24185D01*
X41830Y23782D01*
X41786Y23379D01*
X41731Y22977D01*
X41667Y22577D01*
X41593Y22179D01*
X41509Y21783D01*
X41415Y21388D01*
X41312Y20997D01*
X41199Y20607D01*
X41077Y20221D01*
X40945Y19838D01*
X40804Y19458D01*
X40653Y19082D01*
X40494Y18709D01*
X40325Y18341D01*
X40147Y17977D01*
X39961Y17617D01*
X39765Y17262D01*
X39561Y16912D01*
X39349Y16567D01*
X39128Y16228D01*
X38898Y15893D01*
X38661Y15565D01*
X38416Y15243D01*
X38162Y14926D01*
X37902Y14616D01*
X37633Y14313D01*
X37357Y14016D01*
X37074Y13726D01*
X36784Y13443D01*
X36487Y13167D01*
X36184Y12898D01*
X35874Y12638D01*
X35557Y12384D01*
X35235Y12139D01*
X34907Y11902D01*
X34572Y11672D01*
X34233Y11451D01*
X33888Y11239D01*
X33538Y11035D01*
X33183Y10839D01*
X32823Y10653D01*
X32459Y10475D01*
X32091Y10306D01*
X31718Y10147D01*
X31342Y9996D01*
X30962Y9855D01*
X30579Y9723D01*
X30193Y9601D01*
X29803Y9488D01*
X29412Y9385D01*
X29017Y9291D01*
X28621Y9207D01*
X28223Y9133D01*
X27823Y9069D01*
X27421Y9014D01*
X27018Y8970D01*
X26615Y8935D01*
X26210Y8910D01*
X25805Y8895D01*
X25400Y8890D01*
X24995Y8895D01*
X24590Y8910D01*
X24185Y8935D01*
X23782Y8970D01*
X23379Y9014D01*
X22977Y9069D01*
X22577Y9133D01*
X22179Y9207D01*
X21783Y9291D01*
X21388Y9385D01*
X20997Y9488D01*
X20607Y9601D01*
X20221Y9723D01*
X19838Y9855D01*
X19458Y9996D01*
X19082Y10147D01*
X18709Y10306D01*
X18341Y10475D01*
X17977Y10653D01*
X17617Y10839D01*
X17262Y11035D01*
X16912Y11239D01*
X16567Y11451D01*
X16228Y11672D01*
X15893Y11902D01*
X15565Y12139D01*
X15243Y12384D01*
X14926Y12638D01*
X14616Y12898D01*
X14313Y13167D01*
X14016Y13443D01*
X13726Y13726D01*
X13443Y14016D01*
X13167Y14313D01*
X12898Y14616D01*
X12638Y14926D01*
X12384Y15243D01*
X12139Y15565D01*
X11902Y15893D01*
X11672Y16228D01*
X11451Y16567D01*
X11239Y16912D01*
X11035Y17262D01*
X10839Y17617D01*
X10653Y17977D01*
X10475Y18341D01*
X10306Y18709D01*
X10147Y19082D01*
X9996Y19458D01*
X9855Y19838D01*
X9723Y20221D01*
X9601Y20607D01*
X9488Y20997D01*
X9385Y21388D01*
X9291Y21783D01*
X9207Y22179D01*
X9133Y22577D01*
X9069Y22977D01*
X9014Y23379D01*
X8970Y23782D01*
X8935Y24185D01*
X8910Y24590D01*
X8895Y24995D01*
X8890Y25400D01*
X8890Y228600D02*
X8895Y229005D01*
X8910Y229410D01*
X8935Y229815D01*
X8970Y230218D01*
X9014Y230621D01*
X9069Y231023D01*
X9133Y231423D01*
X9207Y231821D01*
X9291Y232217D01*
X9385Y232612D01*
X9488Y233003D01*
X9601Y233393D01*
X9723Y233779D01*
X9855Y234162D01*
X9996Y234542D01*
X10147Y234918D01*
X10306Y235291D01*
X10475Y235659D01*
X10653Y236023D01*
X10839Y236383D01*
X11035Y236738D01*
X11239Y237088D01*
X11451Y237433D01*
X11672Y237772D01*
X11902Y238107D01*
X12139Y238435D01*
X12384Y238757D01*
X12638Y239074D01*
X12898Y239384D01*
X13167Y239687D01*
X13443Y239984D01*
X13726Y240274D01*
X14016Y240557D01*
X14313Y240833D01*
X14616Y241102D01*
X14926Y241362D01*
X15243Y241616D01*
X15565Y241861D01*
X15893Y242098D01*
X16228Y242328D01*
X16567Y242549D01*
X16912Y242761D01*
X17262Y242965D01*
X17617Y243161D01*
X17977Y243347D01*
X18341Y243525D01*
X18709Y243694D01*
X19082Y243853D01*
X19458Y244004D01*
X19838Y244145D01*
X20221Y244277D01*
X20607Y244399D01*
X20997Y244512D01*
X21388Y244615D01*
X21783Y244709D01*
X22179Y244793D01*
X22577Y244867D01*
X22977Y244931D01*
X23379Y244986D01*
X23782Y245030D01*
X24185Y245065D01*
X24590Y245090D01*
X24995Y245105D01*
X25400Y245110D01*
X25805Y245105D01*
X26210Y245090D01*
X26615Y245065D01*
X27018Y245030D01*
X27421Y244986D01*
X27823Y244931D01*
X28223Y244867D01*
X28621Y244793D01*
X29017Y244709D01*
X29412Y244615D01*
X29803Y244512D01*
X30193Y244399D01*
X30579Y244277D01*
X30962Y244145D01*
X31342Y244004D01*
X31718Y243853D01*
X32091Y243694D01*
X32459Y243525D01*
X32823Y243347D01*
X33183Y243161D01*
X33538Y242965D01*
X33888Y242761D01*
X34233Y242549D01*
X34572Y242328D01*
X34907Y242098D01*
X35235Y241861D01*
X35557Y241616D01*
X35874Y241362D01*
X36184Y241102D01*
X36487Y240833D01*
X36784Y240557D01*
X37074Y240274D01*
X37357Y239984D01*
X37633Y239687D01*
X37902Y239384D01*
X38162Y239074D01*
X38416Y238757D01*
X38661Y238435D01*
X38898Y238107D01*
X39128Y237772D01*
X39349Y237433D01*
X39561Y237088D01*
X39765Y236738D01*
X39961Y236383D01*
X40147Y236023D01*
X40325Y235659D01*
X40494Y235291D01*
X40653Y234918D01*
X40804Y234542D01*
X40945Y234162D01*
X41077Y233779D01*
X41199Y233393D01*
X41312Y233003D01*
X41415Y232612D01*
X41509Y232217D01*
X41593Y231821D01*
X41667Y231423D01*
X41731Y231023D01*
X41786Y230621D01*
X41830Y230218D01*
X41865Y229815D01*
X41890Y229410D01*
X41905Y229005D01*
X41910Y228600D01*
X41905Y228195D01*
X41890Y227790D01*
X41865Y227385D01*
X41830Y226982D01*
X41786Y226579D01*
X41731Y226177D01*
X41667Y225777D01*
X41593Y225379D01*
X41509Y224983D01*
X41415Y224588D01*
X41312Y224197D01*
X41199Y223807D01*
X41077Y223421D01*
X40945Y223038D01*
X40804Y222658D01*
X40653Y222282D01*
X40494Y221909D01*
X40325Y221541D01*
X40147Y221177D01*
X39961Y220817D01*
X39765Y220462D01*
X39561Y220112D01*
X39349Y219767D01*
X39128Y219428D01*
X38898Y219093D01*
X38661Y218765D01*
X38416Y218443D01*
X38162Y218126D01*
X37902Y217816D01*
X37633Y217513D01*
X37357Y217216D01*
X37074Y216926D01*
X36784Y216643D01*
X36487Y216367D01*
X36184Y216098D01*
X35874Y215838D01*
X35557Y215584D01*
X35235Y215339D01*
X34907Y215102D01*
X34572Y214872D01*
X34233Y214651D01*
X33888Y214439D01*
X33538Y214235D01*
X33183Y214039D01*
X32823Y213853D01*
X32459Y213675D01*
X32091Y213506D01*
X31718Y213347D01*
X31342Y213196D01*
X30962Y213055D01*
X30579Y212923D01*
X30193Y212801D01*
X29803Y212688D01*
X29412Y212585D01*
X29017Y212491D01*
X28621Y212407D01*
X28223Y212333D01*
X27823Y212269D01*
X27421Y212214D01*
X27018Y212170D01*
X26615Y212135D01*
X26210Y212110D01*
X25805Y212095D01*
X25400Y212090D01*
X24995Y212095D01*
X24590Y212110D01*
X24185Y212135D01*
X23782Y212170D01*
X23379Y212214D01*
X22977Y212269D01*
X22577Y212333D01*
X22179Y212407D01*
X21783Y212491D01*
X21388Y212585D01*
X20997Y212688D01*
X20607Y212801D01*
X20221Y212923D01*
X19838Y213055D01*
X19458Y213196D01*
X19082Y213347D01*
X18709Y213506D01*
X18341Y213675D01*
X17977Y213853D01*
X17617Y214039D01*
X17262Y214235D01*
X16912Y214439D01*
X16567Y214651D01*
X16228Y214872D01*
X15893Y215102D01*
X15565Y215339D01*
X15243Y215584D01*
X14926Y215838D01*
X14616Y216098D01*
X14313Y216367D01*
X14016Y216643D01*
X13726Y216926D01*
X13443Y217216D01*
X13167Y217513D01*
X12898Y217816D01*
X12638Y218126D01*
X12384Y218443D01*
X12139Y218765D01*
X11902Y219093D01*
X11672Y219428D01*
X11451Y219767D01*
X11239Y220112D01*
X11035Y220462D01*
X10839Y220817D01*
X10653Y221177D01*
X10475Y221541D01*
X10306Y221909D01*
X10147Y222282D01*
X9996Y222658D01*
X9855Y223038D01*
X9723Y223421D01*
X9601Y223807D01*
X9488Y224197D01*
X9385Y224588D01*
X9291Y224983D01*
X9207Y225379D01*
X9133Y225777D01*
X9069Y226177D01*
X9014Y226579D01*
X8970Y226982D01*
X8935Y227385D01*
X8910Y227790D01*
X8895Y228195D01*
X8890Y228600D01*
D12*
X0Y0D02*
X444500Y0D01*
X444500Y254000D01*
X0Y254000D01*
X0Y0D01*
X413274Y85850D02*
X414319Y85782D01*
X415358Y85645D01*
X416385Y85440D01*
X417397Y85169D01*
X418389Y84833D01*
X419357Y84432D01*
X420296Y83968D01*
X421204Y83445D01*
X422075Y82863D01*
X422906Y82225D01*
X423693Y81534D01*
X424434Y80793D01*
X425125Y80006D01*
X425763Y79175D01*
X426345Y78304D01*
X426868Y77396D01*
X427332Y76457D01*
X427733Y75489D01*
X428069Y74497D01*
X428340Y73485D01*
X428545Y72458D01*
X428682Y71419D01*
X428750Y70374D01*
X428750Y69326D01*
X428682Y68281D01*
X428545Y67242D01*
X428340Y66215D01*
X428069Y65203D01*
X427733Y64211D01*
X427332Y63243D01*
X426868Y62304D01*
X426345Y61396D01*
X425763Y60525D01*
X425125Y59694D01*
X424434Y58907D01*
X423693Y58166D01*
X422906Y57475D01*
X422075Y56838D01*
X421204Y56256D01*
X420296Y55732D01*
X419357Y55268D01*
X418389Y54867D01*
X417397Y54531D01*
X416385Y54260D01*
X415358Y54055D01*
X414319Y53919D01*
X413274Y53850D01*
X412226Y53850D01*
X411181Y53919D01*
X410142Y54055D01*
X409115Y54260D01*
X408103Y54531D01*
X407111Y54867D01*
X406143Y55268D01*
X405204Y55732D01*
X404296Y56256D01*
X403425Y56838D01*
X402594Y57475D01*
X401807Y58166D01*
X401066Y58907D01*
X400375Y59694D01*
X399738Y60525D01*
X399156Y61396D01*
X398632Y62304D01*
X398168Y63243D01*
X397767Y64211D01*
X397431Y65203D01*
X397160Y66215D01*
X396955Y67242D01*
X396819Y68281D01*
X396750Y69326D01*
X396750Y70374D01*
X396819Y71419D01*
X396955Y72458D01*
X397160Y73485D01*
X397431Y74497D01*
X397767Y75489D01*
X398168Y76457D01*
X398632Y77396D01*
X399156Y78304D01*
X399738Y79175D01*
X400375Y80006D01*
X401066Y80793D01*
X401807Y81534D01*
X402594Y82225D01*
X403425Y82863D01*
X404296Y83445D01*
X405204Y83968D01*
X406143Y84432D01*
X407111Y84833D01*
X408103Y85169D01*
X409115Y85440D01*
X410142Y85645D01*
X411181Y85782D01*
X412226Y85850D01*
X413274Y85850D01*
X413274Y200150D02*
X414319Y200082D01*
X415358Y199945D01*
X416385Y199740D01*
X417397Y199469D01*
X418389Y199133D01*
X419357Y198732D01*
X420296Y198268D01*
X421204Y197745D01*
X422075Y197163D01*
X422906Y196525D01*
X423693Y195834D01*
X424434Y195093D01*
X425125Y194306D01*
X425763Y193475D01*
X426345Y192604D01*
X426868Y191696D01*
X427332Y190757D01*
X427733Y189789D01*
X428069Y188797D01*
X428340Y187785D01*
X428545Y186758D01*
X428682Y185719D01*
X428750Y184674D01*
X428750Y183626D01*
X428682Y182581D01*
X428545Y181542D01*
X428340Y180515D01*
X428069Y179503D01*
X427733Y178511D01*
X427332Y177543D01*
X426868Y176604D01*
X426345Y175696D01*
X425763Y174825D01*
X425125Y173994D01*
X424434Y173207D01*
X423693Y172466D01*
X422906Y171775D01*
X422075Y171138D01*
X421204Y170556D01*
X420296Y170032D01*
X419357Y169568D01*
X418389Y169167D01*
X417397Y168831D01*
X416385Y168560D01*
X415358Y168355D01*
X414319Y168219D01*
X413274Y168150D01*
X412226Y168150D01*
X411181Y168219D01*
X410142Y168355D01*
X409115Y168560D01*
X408103Y168831D01*
X407111Y169167D01*
X406143Y169568D01*
X405204Y170032D01*
X404296Y170556D01*
X403425Y171138D01*
X402594Y171775D01*
X401807Y172466D01*
X401066Y173207D01*
X400375Y173994D01*
X399738Y174825D01*
X399156Y175696D01*
X398632Y176604D01*
X398168Y177543D01*
X397767Y178511D01*
X397431Y179503D01*
X397160Y180515D01*
X396955Y181542D01*
X396819Y182581D01*
X396750Y183626D01*
X396750Y184674D01*
X396819Y185719D01*
X396955Y186758D01*
X397160Y187785D01*
X397431Y188797D01*
X397767Y189789D01*
X398168Y190757D01*
X398632Y191696D01*
X399156Y192604D01*
X399738Y193475D01*
X400375Y194306D01*
X401066Y195093D01*
X401807Y195834D01*
X402594Y196525D01*
X403425Y197163D01*
X404296Y197745D01*
X405204Y198268D01*
X406143Y198732D01*
X407111Y199133D01*
X408103Y199469D01*
X409115Y199740D01*
X410142Y199945D01*
X411181Y200082D01*
X412226Y200150D01*
X413274Y200150D01*
X229140Y41910D02*
X230219Y41839D01*
X231291Y41698D01*
X232351Y41487D01*
X233395Y41208D01*
X234419Y40860D01*
X235417Y40446D01*
X236387Y39968D01*
X237323Y39428D01*
X238222Y38827D01*
X239079Y38169D01*
X239892Y37457D01*
X240657Y36692D01*
X241369Y35879D01*
X242027Y35022D01*
X242628Y34123D01*
X243168Y33187D01*
X243646Y32217D01*
X244060Y31219D01*
X244408Y30195D01*
X244687Y29151D01*
X244898Y28091D01*
X245039Y27019D01*
X245110Y25940D01*
X245110Y24860D01*
X245039Y23781D01*
X244898Y22709D01*
X244687Y21649D01*
X244408Y20605D01*
X244060Y19581D01*
X243646Y18583D01*
X243168Y17613D01*
X242628Y16677D01*
X242027Y15778D01*
X241369Y14921D01*
X240657Y14108D01*
X239892Y13344D01*
X239079Y12631D01*
X238222Y11973D01*
X237323Y11372D01*
X236387Y10832D01*
X235417Y10354D01*
X234419Y9940D01*
X233395Y9592D01*
X232351Y9313D01*
X231291Y9102D01*
X230219Y8961D01*
X229140Y8890D01*
X228060Y8890D01*
X226981Y8961D01*
X225909Y9102D01*
X224849Y9313D01*
X223805Y9592D01*
X222781Y9940D01*
X221783Y10354D01*
X220813Y10832D01*
X219877Y11372D01*
X218978Y11973D01*
X218121Y12631D01*
X217308Y13344D01*
X216544Y14108D01*
X215831Y14921D01*
X215173Y15778D01*
X214572Y16677D01*
X214032Y17613D01*
X213554Y18583D01*
X213140Y19581D01*
X212792Y20605D01*
X212513Y21649D01*
X212302Y22709D01*
X212161Y23781D01*
X212090Y24860D01*
X212090Y25940D01*
X212161Y27019D01*
X212302Y28091D01*
X212513Y29151D01*
X212792Y30195D01*
X213140Y31219D01*
X213554Y32217D01*
X214032Y33187D01*
X214572Y34123D01*
X215173Y35022D01*
X215831Y35879D01*
X216544Y36692D01*
X217308Y37457D01*
X218121Y38169D01*
X218978Y38827D01*
X219877Y39428D01*
X220813Y39968D01*
X221783Y40446D01*
X222781Y40860D01*
X223805Y41208D01*
X224849Y41487D01*
X225909Y41698D01*
X226981Y41839D01*
X228060Y41910D01*
X229140Y41910D01*
X229140Y245110D02*
X230219Y245039D01*
X231291Y244898D01*
X232351Y244687D01*
X233395Y244408D01*
X234419Y244060D01*
X235417Y243646D01*
X236387Y243168D01*
X237323Y242628D01*
X238222Y242027D01*
X239079Y241369D01*
X239892Y240657D01*
X240657Y239892D01*
X241369Y239079D01*
X242027Y238222D01*
X242628Y237323D01*
X243168Y236387D01*
X243646Y235417D01*
X244060Y234419D01*
X244408Y233395D01*
X244687Y232351D01*
X244898Y231291D01*
X245039Y230219D01*
X245110Y229140D01*
X245110Y228060D01*
X245039Y226981D01*
X244898Y225909D01*
X244687Y224849D01*
X244408Y223805D01*
X244060Y222781D01*
X243646Y221783D01*
X243168Y220813D01*
X242628Y219877D01*
X242027Y218978D01*
X241369Y218121D01*
X240657Y217308D01*
X239892Y216544D01*
X239079Y215831D01*
X238222Y215173D01*
X237323Y214572D01*
X236387Y214032D01*
X235417Y213554D01*
X234419Y213140D01*
X233395Y212792D01*
X232351Y212513D01*
X231291Y212302D01*
X230219Y212161D01*
X229140Y212090D01*
X228060Y212090D01*
X226981Y212161D01*
X225909Y212302D01*
X224849Y212513D01*
X223805Y212792D01*
X222781Y213140D01*
X221783Y213554D01*
X220813Y214032D01*
X219877Y214572D01*
X218978Y215173D01*
X218121Y215831D01*
X217308Y216544D01*
X216544Y217308D01*
X215831Y218121D01*
X215173Y218978D01*
X214572Y219877D01*
X214032Y220813D01*
X213554Y221783D01*
X213140Y222781D01*
X212792Y223805D01*
X212513Y224849D01*
X212302Y225909D01*
X212161Y226981D01*
X212090Y228060D01*
X212090Y229140D01*
X212161Y230219D01*
X212302Y231291D01*
X212513Y232351D01*
X212792Y233395D01*
X213140Y234419D01*
X213554Y235417D01*
X214032Y236387D01*
X214572Y237323D01*
X215173Y238222D01*
X215831Y239079D01*
X216544Y239892D01*
X217308Y240657D01*
X218121Y241369D01*
X218978Y242027D01*
X219877Y242628D01*
X220813Y243168D01*
X221783Y243646D01*
X222781Y244060D01*
X223805Y244408D01*
X224849Y244687D01*
X225909Y244898D01*
X226981Y245039D01*
X228060Y245110D01*
X229140Y245110D01*
X25940Y41910D02*
X27019Y41839D01*
X28091Y41698D01*
X29151Y41487D01*
X30195Y41208D01*
X31219Y40860D01*
X32217Y40446D01*
X33187Y39968D01*
X34123Y39428D01*
X35022Y38827D01*
X35879Y38169D01*
X36692Y37457D01*
X37457Y36692D01*
X38169Y35879D01*
X38827Y35022D01*
X39428Y34123D01*
X39968Y33187D01*
X40446Y32217D01*
X40860Y31219D01*
X41208Y30195D01*
X41487Y29151D01*
X41698Y28091D01*
X41839Y27019D01*
X41910Y25940D01*
X41910Y24860D01*
X41839Y23781D01*
X41698Y22709D01*
X41487Y21649D01*
X41208Y20605D01*
X40860Y19581D01*
X40446Y18583D01*
X39968Y17613D01*
X39428Y16677D01*
X38827Y15778D01*
X38169Y14921D01*
X37457Y14108D01*
X36692Y13344D01*
X35879Y12631D01*
X35022Y11973D01*
X34123Y11372D01*
X33187Y10832D01*
X32217Y10354D01*
X31219Y9940D01*
X30195Y9592D01*
X29151Y9313D01*
X28091Y9102D01*
X27019Y8961D01*
X25940Y8890D01*
X24860Y8890D01*
X23781Y8961D01*
X22709Y9102D01*
X21649Y9313D01*
X20605Y9592D01*
X19581Y9940D01*
X18583Y10354D01*
X17613Y10832D01*
X16677Y11372D01*
X15778Y11973D01*
X14921Y12631D01*
X14108Y13344D01*
X13344Y14108D01*
X12631Y14921D01*
X11973Y15778D01*
X11372Y16677D01*
X10832Y17613D01*
X10354Y18583D01*
X9940Y19581D01*
X9592Y20605D01*
X9313Y21649D01*
X9102Y22709D01*
X8961Y23781D01*
X8890Y24860D01*
X8890Y25940D01*
X8961Y27019D01*
X9102Y28091D01*
X9313Y29151D01*
X9592Y30195D01*
X9940Y31219D01*
X10354Y32217D01*
X10832Y33187D01*
X11372Y34123D01*
X11973Y35022D01*
X12631Y35879D01*
X13344Y36692D01*
X14108Y37457D01*
X14921Y38169D01*
X15778Y38827D01*
X16677Y39428D01*
X17613Y39968D01*
X18583Y40446D01*
X19581Y40860D01*
X20605Y41208D01*
X21649Y41487D01*
X22709Y41698D01*
X23781Y41839D01*
X24860Y41910D01*
X25940Y41910D01*
X25940Y245110D02*
X27019Y245039D01*
X28091Y244898D01*
X29151Y244687D01*
X30195Y244408D01*
X31219Y244060D01*
X32217Y243646D01*
X33187Y243168D01*
X34123Y242628D01*
X35022Y242027D01*
X35879Y241369D01*
X36692Y240657D01*
X37457Y239892D01*
X38169Y239079D01*
X38827Y238222D01*
X39428Y237323D01*
X39968Y236387D01*
X40446Y235417D01*
X40860Y234419D01*
X41208Y233395D01*
X41487Y232351D01*
X41698Y231291D01*
X41839Y230219D01*
X41910Y229140D01*
X41910Y228060D01*
X41839Y226981D01*
X41698Y225909D01*
X41487Y224849D01*
X41208Y223805D01*
X40860Y222781D01*
X40446Y221783D01*
X39968Y220813D01*
X39428Y219877D01*
X38827Y218978D01*
X38169Y218121D01*
X37457Y217308D01*
X36692Y216544D01*
X35879Y215831D01*
X35022Y215173D01*
X34123Y214572D01*
X33187Y214032D01*
X32217Y213554D01*
X31219Y213140D01*
X30195Y212792D01*
X29151Y212513D01*
X28091Y212302D01*
X27019Y212161D01*
X25940Y212090D01*
X24860Y212090D01*
X23781Y212161D01*
X22709Y212302D01*
X21649Y212513D01*
X20605Y212792D01*
X19581Y213140D01*
X18583Y213554D01*
X17613Y214032D01*
X16677Y214572D01*
X15778Y215173D01*
X14921Y215831D01*
X14108Y216544D01*
X13344Y217308D01*
X12631Y218121D01*
X11973Y218978D01*
X11372Y219877D01*
X10832Y220813D01*
X10354Y221783D01*
X9940Y222781D01*
X9592Y223805D01*
X9313Y224849D01*
X9102Y225909D01*
X8961Y226981D01*
X8890Y228060D01*
X8890Y229140D01*
X8961Y230219D01*
X9102Y231291D01*
X9313Y232351D01*
X9592Y233395D01*
X9940Y234419D01*
X10354Y235417D01*
X10832Y236387D01*
X11372Y237323D01*
X11973Y238222D01*
X12631Y239079D01*
X13344Y239892D01*
X14108Y240657D01*
X14921Y241369D01*
X15778Y242027D01*
X16677Y242628D01*
X17613Y243168D01*
X18583Y243646D01*
X19581Y244060D01*
X20605Y244408D01*
X21649Y244687D01*
X22709Y244898D01*
X23781Y245039D01*
X24860Y245110D01*
X25940Y245110D01*
M02*
