G04 EAGLE Gerber RS-274X export*
G75*
%MOMM*%
%FSLAX34Y34*%
%LPD*%
%INTop Copper*%
%IPPOS*%
%AMOC8*
5,1,8,0,0,1.08239X$1,22.5*%
G01*
%ADD10R,1.200000X2.000000*%
%ADD11R,0.600000X1.350000*%
%ADD12R,1.100000X0.250000*%
%ADD13R,1.100000X1.000000*%
%ADD14R,1.000000X1.100000*%
%ADD15C,1.879600*%
%ADD16R,1.879600X1.879600*%
%ADD17R,1.270000X0.660400*%
%ADD18C,0.635000*%
%ADD19C,0.300000*%
%ADD20R,0.660400X1.270000*%
%ADD21C,0.863600*%
%ADD22C,0.254000*%
%ADD23C,0.736600*%
%ADD24C,1.016000*%
%ADD25C,0.203200*%

G36*
X144800Y4080D02*
X144800Y4080D01*
X144919Y4087D01*
X144957Y4100D01*
X144998Y4105D01*
X145108Y4148D01*
X145221Y4185D01*
X145256Y4207D01*
X145293Y4222D01*
X145389Y4291D01*
X145490Y4355D01*
X145518Y4385D01*
X145551Y4408D01*
X145627Y4500D01*
X145708Y4587D01*
X145728Y4622D01*
X145753Y4653D01*
X145804Y4761D01*
X145862Y4865D01*
X145872Y4905D01*
X145889Y4941D01*
X145911Y5058D01*
X145941Y5173D01*
X145945Y5233D01*
X145949Y5253D01*
X145947Y5274D01*
X145951Y5334D01*
X145951Y25313D01*
X147737Y27099D01*
X162263Y27099D01*
X164049Y25313D01*
X164049Y5334D01*
X164064Y5216D01*
X164071Y5097D01*
X164084Y5059D01*
X164089Y5018D01*
X164132Y4908D01*
X164169Y4795D01*
X164191Y4760D01*
X164206Y4723D01*
X164275Y4627D01*
X164339Y4526D01*
X164369Y4498D01*
X164392Y4465D01*
X164484Y4389D01*
X164571Y4308D01*
X164606Y4288D01*
X164637Y4263D01*
X164745Y4212D01*
X164849Y4154D01*
X164889Y4144D01*
X164925Y4127D01*
X165042Y4105D01*
X165157Y4075D01*
X165217Y4071D01*
X165237Y4067D01*
X165258Y4069D01*
X165318Y4065D01*
X215603Y4065D01*
X215748Y4083D01*
X215893Y4098D01*
X215906Y4103D01*
X215919Y4105D01*
X216054Y4158D01*
X216191Y4209D01*
X216202Y4217D01*
X216215Y4222D01*
X216332Y4307D01*
X216452Y4390D01*
X216461Y4401D01*
X216472Y4408D01*
X216565Y4520D01*
X216660Y4631D01*
X216666Y4643D01*
X216675Y4653D01*
X216737Y4785D01*
X216802Y4916D01*
X216805Y4929D01*
X216810Y4941D01*
X216838Y5083D01*
X216868Y5227D01*
X216868Y5240D01*
X216870Y5253D01*
X216861Y5398D01*
X216855Y5544D01*
X216851Y5558D01*
X216850Y5571D01*
X216806Y5709D01*
X216763Y5849D01*
X216756Y5861D01*
X216752Y5873D01*
X216675Y5996D01*
X216599Y6121D01*
X216589Y6131D01*
X216582Y6142D01*
X216476Y6242D01*
X216372Y6344D01*
X216357Y6354D01*
X216351Y6360D01*
X216336Y6368D01*
X216238Y6433D01*
X213845Y7815D01*
X208720Y13922D01*
X205993Y21414D01*
X205993Y29386D01*
X208720Y36878D01*
X213845Y42985D01*
X220749Y46971D01*
X228600Y48355D01*
X236451Y46971D01*
X243355Y42985D01*
X248480Y36878D01*
X251207Y29386D01*
X251207Y21414D01*
X248480Y13922D01*
X243356Y7815D01*
X240962Y6433D01*
X240846Y6345D01*
X240728Y6260D01*
X240719Y6249D01*
X240709Y6241D01*
X240618Y6127D01*
X240525Y6015D01*
X240519Y6002D01*
X240511Y5992D01*
X240451Y5858D01*
X240390Y5727D01*
X240387Y5714D01*
X240382Y5701D01*
X240357Y5557D01*
X240330Y5414D01*
X240331Y5401D01*
X240328Y5388D01*
X240341Y5242D01*
X240350Y5097D01*
X240354Y5084D01*
X240355Y5071D01*
X240403Y4933D01*
X240448Y4795D01*
X240455Y4783D01*
X240459Y4770D01*
X240540Y4649D01*
X240618Y4526D01*
X240628Y4517D01*
X240635Y4505D01*
X240743Y4408D01*
X240849Y4308D01*
X240861Y4301D01*
X240871Y4292D01*
X241001Y4225D01*
X241128Y4154D01*
X241141Y4151D01*
X241153Y4145D01*
X241295Y4111D01*
X241436Y4075D01*
X241454Y4074D01*
X241463Y4072D01*
X241480Y4072D01*
X241597Y4065D01*
X254905Y4065D01*
X254954Y4071D01*
X255004Y4069D01*
X255111Y4091D01*
X255221Y4105D01*
X255267Y4123D01*
X255315Y4133D01*
X255414Y4181D01*
X255516Y4222D01*
X255556Y4251D01*
X255601Y4273D01*
X255685Y4344D01*
X255774Y4408D01*
X255805Y4447D01*
X255843Y4479D01*
X255906Y4569D01*
X255976Y4653D01*
X255998Y4698D01*
X256026Y4739D01*
X256065Y4842D01*
X256112Y4941D01*
X256121Y4990D01*
X256139Y5036D01*
X256151Y5146D01*
X256172Y5253D01*
X256169Y5303D01*
X256174Y5352D01*
X256159Y5461D01*
X256152Y5571D01*
X256137Y5618D01*
X256130Y5667D01*
X256078Y5820D01*
X254253Y10224D01*
X254253Y15176D01*
X256148Y19750D01*
X259650Y23252D01*
X264224Y25147D01*
X269176Y25147D01*
X273750Y23252D01*
X277252Y19750D01*
X278227Y17395D01*
X278296Y17275D01*
X278361Y17152D01*
X278375Y17137D01*
X278385Y17119D01*
X278482Y17019D01*
X278575Y16916D01*
X278592Y16905D01*
X278606Y16891D01*
X278724Y16818D01*
X278841Y16742D01*
X278860Y16735D01*
X278877Y16724D01*
X279010Y16684D01*
X279142Y16638D01*
X279162Y16637D01*
X279181Y16631D01*
X279320Y16624D01*
X279459Y16613D01*
X279479Y16617D01*
X279499Y16616D01*
X279635Y16644D01*
X279772Y16668D01*
X279791Y16676D01*
X279810Y16680D01*
X279935Y16741D01*
X280062Y16798D01*
X280078Y16811D01*
X280096Y16820D01*
X280202Y16910D01*
X280310Y16997D01*
X280323Y17013D01*
X280338Y17026D01*
X280418Y17140D01*
X280502Y17251D01*
X280514Y17276D01*
X280521Y17286D01*
X280528Y17305D01*
X280573Y17395D01*
X281548Y19750D01*
X285050Y23252D01*
X289624Y25147D01*
X294576Y25147D01*
X299150Y23252D01*
X302652Y19750D01*
X304547Y15176D01*
X304547Y10224D01*
X302722Y5820D01*
X302709Y5772D01*
X302688Y5727D01*
X302667Y5619D01*
X302638Y5513D01*
X302638Y5463D01*
X302628Y5414D01*
X302635Y5305D01*
X302633Y5195D01*
X302645Y5147D01*
X302648Y5097D01*
X302682Y4993D01*
X302707Y4886D01*
X302731Y4842D01*
X302746Y4795D01*
X302805Y4702D01*
X302856Y4605D01*
X302890Y4568D01*
X302916Y4526D01*
X302996Y4451D01*
X303070Y4369D01*
X303112Y4342D01*
X303148Y4308D01*
X303244Y4255D01*
X303336Y4195D01*
X303383Y4178D01*
X303426Y4154D01*
X303533Y4127D01*
X303637Y4091D01*
X303686Y4087D01*
X303734Y4075D01*
X303895Y4065D01*
X439166Y4065D01*
X439284Y4080D01*
X439403Y4087D01*
X439441Y4100D01*
X439482Y4105D01*
X439592Y4148D01*
X439705Y4185D01*
X439740Y4207D01*
X439777Y4222D01*
X439873Y4291D01*
X439974Y4355D01*
X440002Y4385D01*
X440035Y4408D01*
X440111Y4500D01*
X440192Y4587D01*
X440212Y4622D01*
X440237Y4653D01*
X440288Y4761D01*
X440346Y4865D01*
X440356Y4905D01*
X440373Y4941D01*
X440395Y5058D01*
X440425Y5173D01*
X440429Y5233D01*
X440433Y5253D01*
X440431Y5274D01*
X440435Y5334D01*
X440435Y240157D01*
X440420Y240275D01*
X440413Y240394D01*
X440400Y240432D01*
X440395Y240473D01*
X440352Y240583D01*
X440315Y240696D01*
X440293Y240731D01*
X440278Y240768D01*
X440209Y240864D01*
X440145Y240965D01*
X440115Y240993D01*
X440092Y241026D01*
X440000Y241102D01*
X439913Y241183D01*
X439878Y241203D01*
X439847Y241228D01*
X439739Y241279D01*
X439635Y241337D01*
X439595Y241347D01*
X439559Y241364D01*
X439442Y241386D01*
X439327Y241416D01*
X439267Y241420D01*
X439247Y241424D01*
X439226Y241422D01*
X439166Y241426D01*
X436912Y241426D01*
X434625Y242374D01*
X432874Y244125D01*
X431926Y246412D01*
X431926Y248666D01*
X431911Y248784D01*
X431904Y248903D01*
X431891Y248941D01*
X431886Y248982D01*
X431843Y249092D01*
X431806Y249205D01*
X431784Y249240D01*
X431769Y249277D01*
X431700Y249373D01*
X431636Y249474D01*
X431606Y249502D01*
X431583Y249535D01*
X431491Y249611D01*
X431404Y249692D01*
X431369Y249712D01*
X431338Y249737D01*
X431230Y249788D01*
X431126Y249846D01*
X431086Y249856D01*
X431050Y249873D01*
X430933Y249895D01*
X430818Y249925D01*
X430758Y249929D01*
X430738Y249933D01*
X430717Y249931D01*
X430657Y249935D01*
X241597Y249935D01*
X241452Y249917D01*
X241307Y249902D01*
X241294Y249897D01*
X241281Y249895D01*
X241146Y249842D01*
X241009Y249791D01*
X240998Y249783D01*
X240985Y249778D01*
X240868Y249693D01*
X240748Y249610D01*
X240739Y249599D01*
X240728Y249592D01*
X240635Y249480D01*
X240540Y249369D01*
X240534Y249357D01*
X240525Y249347D01*
X240463Y249215D01*
X240398Y249084D01*
X240395Y249071D01*
X240390Y249059D01*
X240362Y248917D01*
X240332Y248773D01*
X240332Y248760D01*
X240330Y248747D01*
X240339Y248602D01*
X240345Y248456D01*
X240349Y248442D01*
X240350Y248429D01*
X240394Y248291D01*
X240437Y248151D01*
X240444Y248139D01*
X240448Y248127D01*
X240525Y248004D01*
X240601Y247879D01*
X240611Y247869D01*
X240618Y247858D01*
X240724Y247758D01*
X240828Y247656D01*
X240843Y247646D01*
X240849Y247640D01*
X240864Y247632D01*
X240962Y247567D01*
X243355Y246185D01*
X248480Y240078D01*
X251207Y232586D01*
X251207Y224614D01*
X248480Y217122D01*
X243356Y211015D01*
X236451Y207029D01*
X228600Y205645D01*
X220749Y207029D01*
X213845Y211015D01*
X208720Y217122D01*
X205993Y224614D01*
X205993Y232586D01*
X208720Y240078D01*
X213844Y246185D01*
X216238Y247567D01*
X216354Y247655D01*
X216472Y247740D01*
X216481Y247751D01*
X216491Y247759D01*
X216582Y247873D01*
X216675Y247985D01*
X216681Y247998D01*
X216689Y248008D01*
X216749Y248142D01*
X216810Y248273D01*
X216813Y248286D01*
X216818Y248299D01*
X216843Y248443D01*
X216870Y248586D01*
X216869Y248599D01*
X216872Y248612D01*
X216859Y248758D01*
X216850Y248903D01*
X216846Y248916D01*
X216845Y248929D01*
X216797Y249067D01*
X216752Y249205D01*
X216745Y249217D01*
X216741Y249230D01*
X216660Y249351D01*
X216582Y249474D01*
X216572Y249483D01*
X216565Y249495D01*
X216457Y249592D01*
X216351Y249692D01*
X216339Y249699D01*
X216329Y249708D01*
X216199Y249775D01*
X216072Y249846D01*
X216059Y249849D01*
X216047Y249855D01*
X215905Y249889D01*
X215764Y249925D01*
X215746Y249926D01*
X215737Y249928D01*
X215720Y249928D01*
X215603Y249935D01*
X165318Y249935D01*
X165200Y249920D01*
X165081Y249913D01*
X165043Y249900D01*
X165002Y249895D01*
X164892Y249852D01*
X164779Y249815D01*
X164744Y249793D01*
X164707Y249778D01*
X164611Y249709D01*
X164510Y249645D01*
X164482Y249615D01*
X164449Y249592D01*
X164373Y249500D01*
X164292Y249413D01*
X164272Y249378D01*
X164247Y249347D01*
X164196Y249239D01*
X164138Y249135D01*
X164128Y249095D01*
X164111Y249059D01*
X164089Y248942D01*
X164059Y248827D01*
X164055Y248767D01*
X164051Y248747D01*
X164053Y248726D01*
X164049Y248666D01*
X164049Y228687D01*
X162263Y226901D01*
X147737Y226901D01*
X145951Y228687D01*
X145951Y248666D01*
X145936Y248784D01*
X145929Y248903D01*
X145916Y248941D01*
X145911Y248982D01*
X145868Y249092D01*
X145831Y249205D01*
X145809Y249240D01*
X145794Y249277D01*
X145725Y249373D01*
X145661Y249474D01*
X145631Y249502D01*
X145608Y249535D01*
X145516Y249611D01*
X145429Y249692D01*
X145394Y249712D01*
X145363Y249737D01*
X145255Y249788D01*
X145151Y249846D01*
X145111Y249856D01*
X145075Y249873D01*
X144958Y249895D01*
X144843Y249925D01*
X144783Y249929D01*
X144763Y249933D01*
X144742Y249931D01*
X144682Y249935D01*
X109318Y249935D01*
X109200Y249920D01*
X109081Y249913D01*
X109043Y249900D01*
X109002Y249895D01*
X108892Y249852D01*
X108779Y249815D01*
X108744Y249793D01*
X108707Y249778D01*
X108611Y249709D01*
X108510Y249645D01*
X108482Y249615D01*
X108449Y249592D01*
X108373Y249500D01*
X108292Y249413D01*
X108272Y249378D01*
X108247Y249347D01*
X108196Y249239D01*
X108138Y249135D01*
X108128Y249095D01*
X108111Y249059D01*
X108089Y248942D01*
X108059Y248827D01*
X108055Y248767D01*
X108051Y248747D01*
X108053Y248726D01*
X108049Y248666D01*
X108049Y228687D01*
X106263Y226901D01*
X91737Y226901D01*
X89951Y228687D01*
X89951Y248666D01*
X89936Y248784D01*
X89929Y248903D01*
X89916Y248941D01*
X89911Y248982D01*
X89868Y249092D01*
X89831Y249205D01*
X89809Y249240D01*
X89794Y249277D01*
X89725Y249373D01*
X89661Y249474D01*
X89631Y249502D01*
X89608Y249535D01*
X89516Y249611D01*
X89429Y249692D01*
X89394Y249712D01*
X89363Y249737D01*
X89255Y249788D01*
X89151Y249846D01*
X89111Y249856D01*
X89075Y249873D01*
X88958Y249895D01*
X88843Y249925D01*
X88783Y249929D01*
X88763Y249933D01*
X88742Y249931D01*
X88682Y249935D01*
X38397Y249935D01*
X38252Y249917D01*
X38107Y249902D01*
X38094Y249897D01*
X38081Y249895D01*
X37946Y249842D01*
X37809Y249791D01*
X37798Y249783D01*
X37785Y249778D01*
X37668Y249693D01*
X37548Y249610D01*
X37539Y249599D01*
X37528Y249592D01*
X37435Y249480D01*
X37340Y249369D01*
X37334Y249357D01*
X37325Y249347D01*
X37263Y249215D01*
X37198Y249084D01*
X37195Y249071D01*
X37190Y249059D01*
X37162Y248916D01*
X37132Y248773D01*
X37132Y248760D01*
X37130Y248747D01*
X37139Y248602D01*
X37145Y248456D01*
X37149Y248442D01*
X37150Y248429D01*
X37194Y248291D01*
X37237Y248151D01*
X37244Y248139D01*
X37248Y248127D01*
X37325Y248004D01*
X37401Y247879D01*
X37411Y247869D01*
X37418Y247858D01*
X37524Y247758D01*
X37628Y247656D01*
X37643Y247646D01*
X37649Y247640D01*
X37664Y247632D01*
X37762Y247567D01*
X40155Y246185D01*
X45280Y240078D01*
X48007Y232586D01*
X48007Y224614D01*
X45280Y217122D01*
X40156Y211015D01*
X33251Y207029D01*
X25400Y205645D01*
X17549Y207029D01*
X10645Y211015D01*
X6306Y216185D01*
X6280Y216209D01*
X6260Y216238D01*
X6164Y216317D01*
X6073Y216401D01*
X6042Y216418D01*
X6015Y216441D01*
X5902Y216494D01*
X5793Y216553D01*
X5759Y216561D01*
X5727Y216576D01*
X5605Y216599D01*
X5485Y216630D01*
X5449Y216629D01*
X5414Y216636D01*
X5291Y216628D01*
X5167Y216627D01*
X5132Y216618D01*
X5097Y216616D01*
X4979Y216578D01*
X4859Y216546D01*
X4828Y216529D01*
X4795Y216518D01*
X4690Y216452D01*
X4581Y216391D01*
X4556Y216367D01*
X4526Y216348D01*
X4441Y216258D01*
X4351Y216172D01*
X4332Y216142D01*
X4308Y216116D01*
X4248Y216008D01*
X4182Y215903D01*
X4171Y215869D01*
X4154Y215838D01*
X4123Y215718D01*
X4086Y215600D01*
X4084Y215564D01*
X4075Y215530D01*
X4065Y215369D01*
X4065Y188774D01*
X4070Y188735D01*
X4067Y188695D01*
X4090Y188577D01*
X4105Y188459D01*
X4119Y188422D01*
X4127Y188383D01*
X4178Y188274D01*
X4222Y188163D01*
X4245Y188131D01*
X4262Y188095D01*
X4338Y188003D01*
X4408Y187906D01*
X4439Y187880D01*
X4464Y187850D01*
X4561Y187779D01*
X4653Y187703D01*
X4689Y187686D01*
X4722Y187662D01*
X4833Y187618D01*
X4941Y187567D01*
X4980Y187560D01*
X5017Y187545D01*
X5136Y187530D01*
X5253Y187508D01*
X5293Y187510D01*
X5333Y187505D01*
X5452Y187520D01*
X5571Y187527D01*
X5609Y187540D01*
X5648Y187545D01*
X5760Y187588D01*
X5873Y187625D01*
X5907Y187647D01*
X5944Y187661D01*
X6080Y187747D01*
X6443Y188011D01*
X8117Y188864D01*
X9904Y189445D01*
X10161Y189485D01*
X10161Y179070D01*
X10176Y178952D01*
X10183Y178833D01*
X10196Y178795D01*
X10201Y178755D01*
X10244Y178644D01*
X10281Y178531D01*
X10303Y178497D01*
X10318Y178459D01*
X10388Y178363D01*
X10451Y178262D01*
X10481Y178234D01*
X10504Y178202D01*
X10596Y178126D01*
X10683Y178044D01*
X10718Y178025D01*
X10749Y177999D01*
X10857Y177948D01*
X10961Y177891D01*
X11001Y177880D01*
X11037Y177863D01*
X11154Y177841D01*
X11269Y177811D01*
X11330Y177807D01*
X11350Y177803D01*
X11370Y177805D01*
X11430Y177801D01*
X12701Y177801D01*
X12701Y176530D01*
X12716Y176412D01*
X12723Y176293D01*
X12736Y176255D01*
X12741Y176214D01*
X12785Y176104D01*
X12821Y175991D01*
X12843Y175956D01*
X12858Y175919D01*
X12928Y175823D01*
X12991Y175722D01*
X13021Y175694D01*
X13045Y175661D01*
X13136Y175586D01*
X13223Y175504D01*
X13258Y175484D01*
X13290Y175459D01*
X13397Y175408D01*
X13502Y175350D01*
X13541Y175340D01*
X13577Y175323D01*
X13694Y175301D01*
X13809Y175271D01*
X13870Y175267D01*
X13890Y175263D01*
X13910Y175265D01*
X13970Y175261D01*
X24385Y175261D01*
X24345Y175004D01*
X23764Y173217D01*
X22911Y171543D01*
X21806Y170022D01*
X20478Y168694D01*
X18957Y167589D01*
X17283Y166736D01*
X16818Y166585D01*
X16791Y166572D01*
X16762Y166565D01*
X16648Y166505D01*
X16530Y166450D01*
X16507Y166431D01*
X16481Y166417D01*
X16385Y166330D01*
X16285Y166247D01*
X16268Y166223D01*
X16246Y166203D01*
X16174Y166094D01*
X16098Y165990D01*
X16087Y165962D01*
X16071Y165937D01*
X16029Y165814D01*
X15981Y165694D01*
X15977Y165664D01*
X15968Y165636D01*
X15957Y165507D01*
X15941Y165379D01*
X15945Y165349D01*
X15942Y165319D01*
X15965Y165191D01*
X15981Y165063D01*
X15992Y165035D01*
X15997Y165006D01*
X16050Y164888D01*
X16098Y164767D01*
X16115Y164743D01*
X16127Y164716D01*
X16208Y164615D01*
X16284Y164510D01*
X16307Y164491D01*
X16326Y164467D01*
X16430Y164389D01*
X16529Y164307D01*
X16556Y164294D01*
X16580Y164276D01*
X16725Y164205D01*
X19750Y162952D01*
X23252Y159450D01*
X24059Y157502D01*
X24073Y157477D01*
X24083Y157449D01*
X24152Y157339D01*
X24216Y157226D01*
X24237Y157205D01*
X24253Y157180D01*
X24347Y157091D01*
X24438Y156998D01*
X24463Y156982D01*
X24484Y156962D01*
X24598Y156899D01*
X24709Y156831D01*
X24737Y156823D01*
X24763Y156808D01*
X24889Y156776D01*
X25013Y156738D01*
X25042Y156736D01*
X25071Y156729D01*
X25231Y156719D01*
X39889Y156719D01*
X42790Y153817D01*
X64917Y131690D01*
X64995Y131630D01*
X65068Y131562D01*
X65121Y131533D01*
X65168Y131496D01*
X65259Y131456D01*
X65346Y131408D01*
X65405Y131393D01*
X65460Y131369D01*
X65558Y131354D01*
X65654Y131329D01*
X65754Y131323D01*
X65774Y131319D01*
X65787Y131321D01*
X65815Y131319D01*
X90932Y131319D01*
X91050Y131334D01*
X91169Y131341D01*
X91207Y131354D01*
X91248Y131359D01*
X91358Y131402D01*
X91471Y131439D01*
X91506Y131461D01*
X91543Y131476D01*
X91639Y131545D01*
X91740Y131609D01*
X91768Y131639D01*
X91801Y131662D01*
X91877Y131754D01*
X91958Y131841D01*
X91978Y131876D01*
X92003Y131907D01*
X92054Y132015D01*
X92112Y132119D01*
X92122Y132159D01*
X92139Y132195D01*
X92161Y132312D01*
X92191Y132427D01*
X92195Y132487D01*
X92199Y132507D01*
X92197Y132528D01*
X92201Y132588D01*
X92201Y141979D01*
X92407Y142184D01*
X92492Y142294D01*
X92581Y142401D01*
X92589Y142420D01*
X92602Y142436D01*
X92657Y142564D01*
X92716Y142689D01*
X92720Y142709D01*
X92728Y142728D01*
X92750Y142866D01*
X92776Y143002D01*
X92775Y143022D01*
X92778Y143042D01*
X92765Y143181D01*
X92756Y143319D01*
X92750Y143338D01*
X92748Y143358D01*
X92701Y143489D01*
X92658Y143621D01*
X92648Y143639D01*
X92641Y143658D01*
X92563Y143772D01*
X92488Y143890D01*
X92473Y143904D01*
X92462Y143921D01*
X92358Y144012D01*
X92257Y144108D01*
X92239Y144118D01*
X92224Y144131D01*
X92100Y144194D01*
X91978Y144262D01*
X91959Y144267D01*
X91940Y144276D01*
X91804Y144306D01*
X91670Y144341D01*
X91642Y144343D01*
X91630Y144346D01*
X91610Y144345D01*
X91509Y144351D01*
X86337Y144351D01*
X85031Y145658D01*
X85007Y145676D01*
X84988Y145698D01*
X84882Y145773D01*
X84779Y145853D01*
X84752Y145865D01*
X84728Y145881D01*
X84607Y145927D01*
X84487Y145979D01*
X84458Y145984D01*
X84431Y145994D01*
X84302Y146009D01*
X84173Y146029D01*
X84144Y146026D01*
X84115Y146029D01*
X83986Y146011D01*
X83857Y145999D01*
X83829Y145989D01*
X83800Y145985D01*
X83647Y145933D01*
X81475Y145033D01*
X78545Y145033D01*
X75837Y146155D01*
X73765Y148227D01*
X72643Y150935D01*
X72643Y153865D01*
X73765Y156573D01*
X75837Y158645D01*
X78545Y159767D01*
X81475Y159767D01*
X83647Y158867D01*
X83676Y158859D01*
X83702Y158846D01*
X83829Y158817D01*
X83954Y158783D01*
X83984Y158783D01*
X84012Y158776D01*
X84142Y158780D01*
X84272Y158778D01*
X84301Y158785D01*
X84330Y158786D01*
X84455Y158822D01*
X84581Y158852D01*
X84608Y158866D01*
X84636Y158874D01*
X84748Y158940D01*
X84862Y159001D01*
X84884Y159021D01*
X84910Y159036D01*
X85031Y159142D01*
X86337Y160449D01*
X87512Y160449D01*
X87630Y160464D01*
X87749Y160471D01*
X87787Y160484D01*
X87828Y160489D01*
X87938Y160532D01*
X88051Y160569D01*
X88086Y160591D01*
X88123Y160606D01*
X88219Y160675D01*
X88320Y160739D01*
X88348Y160769D01*
X88381Y160792D01*
X88457Y160884D01*
X88538Y160971D01*
X88558Y161006D01*
X88583Y161037D01*
X88634Y161145D01*
X88692Y161249D01*
X88702Y161289D01*
X88719Y161325D01*
X88741Y161442D01*
X88771Y161557D01*
X88775Y161617D01*
X88779Y161637D01*
X88777Y161658D01*
X88781Y161718D01*
X88781Y164739D01*
X93461Y169419D01*
X111985Y169419D01*
X112084Y169431D01*
X112183Y169434D01*
X112241Y169451D01*
X112301Y169459D01*
X112393Y169495D01*
X112488Y169523D01*
X112540Y169553D01*
X112597Y169576D01*
X112677Y169634D01*
X112762Y169684D01*
X112837Y169750D01*
X112854Y169762D01*
X112862Y169772D01*
X112883Y169790D01*
X117310Y174217D01*
X117370Y174295D01*
X117438Y174368D01*
X117467Y174421D01*
X117504Y174468D01*
X117544Y174559D01*
X117592Y174646D01*
X117607Y174705D01*
X117631Y174760D01*
X117646Y174858D01*
X117671Y174954D01*
X117677Y175054D01*
X117681Y175074D01*
X117679Y175087D01*
X117681Y175115D01*
X117681Y181809D01*
X117675Y181859D01*
X117677Y181908D01*
X117655Y182016D01*
X117641Y182125D01*
X117623Y182171D01*
X117613Y182220D01*
X117565Y182318D01*
X117524Y182421D01*
X117495Y182461D01*
X117473Y182505D01*
X117402Y182589D01*
X117338Y182678D01*
X117299Y182710D01*
X117267Y182747D01*
X117177Y182811D01*
X117093Y182881D01*
X117048Y182902D01*
X117007Y182931D01*
X116904Y182970D01*
X116805Y183016D01*
X116756Y183026D01*
X116710Y183043D01*
X116600Y183055D01*
X116493Y183076D01*
X116443Y183073D01*
X116394Y183079D01*
X116285Y183063D01*
X116175Y183056D01*
X116128Y183041D01*
X116079Y183034D01*
X115926Y182982D01*
X113225Y181863D01*
X110295Y181863D01*
X107587Y182985D01*
X105515Y185057D01*
X104393Y187765D01*
X104393Y190695D01*
X105515Y193403D01*
X105728Y193616D01*
X105801Y193710D01*
X105879Y193799D01*
X105898Y193835D01*
X105923Y193867D01*
X105970Y193976D01*
X106024Y194082D01*
X106033Y194122D01*
X106049Y194159D01*
X106068Y194277D01*
X106094Y194393D01*
X106092Y194433D01*
X106099Y194473D01*
X106088Y194592D01*
X106084Y194711D01*
X106073Y194749D01*
X106069Y194790D01*
X106029Y194902D01*
X105996Y195016D01*
X105975Y195051D01*
X105961Y195089D01*
X105951Y195104D01*
X105951Y211213D01*
X107737Y212999D01*
X116303Y212999D01*
X116322Y212989D01*
X116354Y212964D01*
X116463Y212917D01*
X116569Y212863D01*
X116608Y212854D01*
X116646Y212838D01*
X116763Y212819D01*
X116879Y212793D01*
X116920Y212794D01*
X116960Y212788D01*
X117078Y212799D01*
X117197Y212803D01*
X117236Y212814D01*
X117276Y212818D01*
X117388Y212858D01*
X117503Y212891D01*
X117538Y212912D01*
X117576Y212925D01*
X117674Y212992D01*
X117685Y212999D01*
X126303Y212999D01*
X126322Y212989D01*
X126354Y212964D01*
X126463Y212917D01*
X126569Y212863D01*
X126609Y212854D01*
X126646Y212838D01*
X126764Y212819D01*
X126879Y212793D01*
X126920Y212794D01*
X126960Y212788D01*
X127079Y212799D01*
X127197Y212803D01*
X127236Y212814D01*
X127276Y212818D01*
X127389Y212858D01*
X127503Y212891D01*
X127538Y212912D01*
X127576Y212925D01*
X127674Y212992D01*
X127685Y212999D01*
X136263Y212999D01*
X136653Y212609D01*
X136737Y212544D01*
X136814Y212472D01*
X136862Y212447D01*
X136904Y212414D01*
X137001Y212372D01*
X137094Y212322D01*
X137147Y212309D01*
X137196Y212287D01*
X137301Y212271D01*
X137403Y212245D01*
X137457Y212246D01*
X137510Y212237D01*
X137616Y212247D01*
X137721Y212248D01*
X137805Y212265D01*
X137827Y212267D01*
X137842Y212272D01*
X137879Y212280D01*
X138666Y212491D01*
X140501Y212491D01*
X140501Y203430D01*
X140516Y203312D01*
X140523Y203193D01*
X140525Y203186D01*
X140511Y203130D01*
X140507Y203070D01*
X140503Y203050D01*
X140505Y203030D01*
X140501Y202970D01*
X140501Y193909D01*
X138666Y193909D01*
X137917Y194110D01*
X137792Y194127D01*
X137668Y194151D01*
X137635Y194149D01*
X137601Y194153D01*
X137476Y194139D01*
X137351Y194131D01*
X137319Y194121D01*
X137286Y194117D01*
X137168Y194072D01*
X137049Y194033D01*
X137020Y194015D01*
X136989Y194003D01*
X136886Y193930D01*
X136780Y193863D01*
X136757Y193838D01*
X136729Y193819D01*
X136648Y193723D01*
X136562Y193631D01*
X136546Y193602D01*
X136524Y193576D01*
X136469Y193463D01*
X136408Y193353D01*
X136400Y193320D01*
X136385Y193290D01*
X136360Y193166D01*
X136329Y193045D01*
X136326Y192996D01*
X136322Y192978D01*
X136323Y192956D01*
X136319Y192884D01*
X136319Y191398D01*
X136334Y191280D01*
X136341Y191161D01*
X136354Y191123D01*
X136359Y191082D01*
X136402Y190972D01*
X136439Y190859D01*
X136461Y190824D01*
X136476Y190787D01*
X136545Y190691D01*
X136609Y190590D01*
X136639Y190562D01*
X136662Y190529D01*
X136754Y190453D01*
X136841Y190372D01*
X136876Y190352D01*
X136907Y190327D01*
X137015Y190276D01*
X137119Y190218D01*
X137159Y190208D01*
X137195Y190191D01*
X137312Y190169D01*
X137427Y190139D01*
X137487Y190135D01*
X137507Y190131D01*
X137528Y190133D01*
X137588Y190129D01*
X206047Y190129D01*
X206145Y190141D01*
X206244Y190144D01*
X206303Y190161D01*
X206363Y190169D01*
X206455Y190205D01*
X206550Y190233D01*
X206602Y190263D01*
X206658Y190286D01*
X206738Y190344D01*
X206824Y190394D01*
X206899Y190460D01*
X206916Y190472D01*
X206924Y190482D01*
X206945Y190500D01*
X217645Y201201D01*
X220633Y202439D01*
X239107Y202439D01*
X242095Y201201D01*
X252001Y191295D01*
X253239Y188307D01*
X253239Y180155D01*
X253255Y180030D01*
X253264Y179905D01*
X253274Y179873D01*
X253279Y179840D01*
X253325Y179723D01*
X253365Y179604D01*
X253383Y179575D01*
X253396Y179544D01*
X253469Y179443D01*
X253538Y179337D01*
X253563Y179314D01*
X253582Y179287D01*
X253679Y179207D01*
X253772Y179121D01*
X253801Y179105D01*
X253827Y179084D01*
X253941Y179030D01*
X254052Y178971D01*
X254085Y178963D01*
X254115Y178948D01*
X254238Y178925D01*
X254361Y178895D01*
X254394Y178895D01*
X254427Y178889D01*
X254553Y178896D01*
X254679Y178898D01*
X254727Y178907D01*
X254745Y178908D01*
X254765Y178915D01*
X254837Y178929D01*
X255066Y178991D01*
X258401Y178991D01*
X258401Y172680D01*
X258416Y172562D01*
X258423Y172443D01*
X258435Y172405D01*
X258441Y172365D01*
X258484Y172254D01*
X258521Y172141D01*
X258543Y172107D01*
X258558Y172069D01*
X258627Y171973D01*
X258691Y171872D01*
X258721Y171844D01*
X258744Y171812D01*
X258836Y171736D01*
X258923Y171654D01*
X258958Y171635D01*
X258989Y171609D01*
X259097Y171558D01*
X259201Y171501D01*
X259241Y171491D01*
X259277Y171473D01*
X259394Y171451D01*
X259509Y171421D01*
X259569Y171417D01*
X259589Y171414D01*
X259610Y171415D01*
X259670Y171411D01*
X262130Y171411D01*
X262248Y171426D01*
X262367Y171433D01*
X262405Y171446D01*
X262446Y171451D01*
X262556Y171495D01*
X262669Y171531D01*
X262704Y171553D01*
X262741Y171568D01*
X262837Y171638D01*
X262938Y171701D01*
X262966Y171731D01*
X262999Y171755D01*
X263075Y171846D01*
X263156Y171933D01*
X263176Y171968D01*
X263201Y172000D01*
X263252Y172107D01*
X263310Y172212D01*
X263320Y172251D01*
X263337Y172287D01*
X263359Y172404D01*
X263389Y172520D01*
X263393Y172580D01*
X263397Y172600D01*
X263395Y172620D01*
X263399Y172680D01*
X263399Y178991D01*
X266734Y178991D01*
X267381Y178818D01*
X267960Y178483D01*
X268143Y178300D01*
X268230Y178232D01*
X268270Y178195D01*
X268279Y178190D01*
X268327Y178148D01*
X268363Y178130D01*
X268394Y178105D01*
X268504Y178058D01*
X268610Y178003D01*
X268649Y177995D01*
X268686Y177979D01*
X268804Y177960D01*
X268920Y177934D01*
X268961Y177935D01*
X269000Y177929D01*
X269119Y177940D01*
X269238Y177943D01*
X269277Y177955D01*
X269317Y177959D01*
X269429Y177999D01*
X269543Y178032D01*
X269578Y178052D01*
X269616Y178066D01*
X269715Y178133D01*
X269817Y178193D01*
X269863Y178233D01*
X269879Y178245D01*
X269893Y178260D01*
X269938Y178300D01*
X271137Y179499D01*
X284663Y179499D01*
X286449Y177713D01*
X286449Y176775D01*
X286466Y176637D01*
X286479Y176498D01*
X286486Y176479D01*
X286489Y176459D01*
X286540Y176330D01*
X286587Y176199D01*
X286598Y176182D01*
X286606Y176163D01*
X286687Y176051D01*
X286765Y175936D01*
X286781Y175922D01*
X286792Y175906D01*
X286900Y175817D01*
X287004Y175725D01*
X287022Y175716D01*
X287037Y175703D01*
X287163Y175644D01*
X287287Y175581D01*
X287307Y175576D01*
X287325Y175568D01*
X287461Y175542D01*
X287597Y175511D01*
X287618Y175512D01*
X287637Y175508D01*
X287776Y175516D01*
X287915Y175521D01*
X287935Y175526D01*
X287955Y175528D01*
X288087Y175571D01*
X288221Y175609D01*
X288238Y175619D01*
X288257Y175626D01*
X288375Y175700D01*
X288495Y175771D01*
X288516Y175789D01*
X288526Y175796D01*
X288529Y175799D01*
X297942Y175799D01*
X298060Y175814D01*
X298179Y175821D01*
X298217Y175834D01*
X298258Y175839D01*
X298368Y175882D01*
X298481Y175919D01*
X298516Y175941D01*
X298553Y175956D01*
X298649Y176025D01*
X298750Y176089D01*
X298778Y176119D01*
X298811Y176142D01*
X298887Y176234D01*
X298968Y176321D01*
X298988Y176356D01*
X299013Y176387D01*
X299064Y176495D01*
X299122Y176599D01*
X299132Y176639D01*
X299149Y176675D01*
X299171Y176792D01*
X299201Y176907D01*
X299205Y176967D01*
X299209Y176987D01*
X299207Y177008D01*
X299211Y177068D01*
X299211Y187209D01*
X305190Y193187D01*
X308091Y196089D01*
X338339Y196089D01*
X348489Y185939D01*
X348489Y172466D01*
X348504Y172348D01*
X348511Y172229D01*
X348524Y172191D01*
X348529Y172150D01*
X348572Y172040D01*
X348609Y171927D01*
X348631Y171892D01*
X348646Y171855D01*
X348715Y171759D01*
X348779Y171658D01*
X348809Y171630D01*
X348832Y171597D01*
X348924Y171521D01*
X349011Y171440D01*
X349046Y171420D01*
X349077Y171395D01*
X349185Y171344D01*
X349289Y171286D01*
X349329Y171276D01*
X349365Y171259D01*
X349482Y171237D01*
X349597Y171207D01*
X349657Y171203D01*
X349677Y171199D01*
X349698Y171201D01*
X349758Y171197D01*
X351726Y171197D01*
X356300Y169302D01*
X359802Y165800D01*
X361697Y161226D01*
X361697Y156274D01*
X359802Y151700D01*
X356301Y148198D01*
X353945Y147223D01*
X353824Y147154D01*
X353702Y147089D01*
X353687Y147075D01*
X353669Y147065D01*
X353569Y146968D01*
X353466Y146875D01*
X353455Y146858D01*
X353441Y146844D01*
X353368Y146726D01*
X353292Y146609D01*
X353285Y146590D01*
X353274Y146573D01*
X353234Y146440D01*
X353188Y146308D01*
X353187Y146288D01*
X353181Y146269D01*
X353174Y146130D01*
X353163Y145991D01*
X353167Y145971D01*
X353166Y145951D01*
X353194Y145815D01*
X353218Y145678D01*
X353226Y145659D01*
X353230Y145640D01*
X353291Y145515D01*
X353348Y145388D01*
X353361Y145372D01*
X353370Y145354D01*
X353460Y145248D01*
X353547Y145140D01*
X353563Y145127D01*
X353576Y145112D01*
X353690Y145032D01*
X353801Y144948D01*
X353826Y144936D01*
X353836Y144929D01*
X353855Y144922D01*
X353945Y144877D01*
X356300Y143902D01*
X359802Y140400D01*
X361697Y135826D01*
X361697Y130874D01*
X359802Y126300D01*
X356300Y122798D01*
X353945Y121823D01*
X353825Y121754D01*
X353702Y121689D01*
X353687Y121675D01*
X353669Y121665D01*
X353569Y121568D01*
X353466Y121475D01*
X353455Y121458D01*
X353441Y121444D01*
X353368Y121326D01*
X353292Y121209D01*
X353285Y121190D01*
X353274Y121173D01*
X353234Y121040D01*
X353188Y120908D01*
X353187Y120888D01*
X353181Y120869D01*
X353174Y120730D01*
X353163Y120591D01*
X353167Y120571D01*
X353166Y120551D01*
X353194Y120415D01*
X353218Y120278D01*
X353226Y120259D01*
X353230Y120240D01*
X353291Y120115D01*
X353348Y119988D01*
X353361Y119972D01*
X353370Y119954D01*
X353460Y119848D01*
X353547Y119740D01*
X353563Y119727D01*
X353576Y119712D01*
X353690Y119632D01*
X353801Y119548D01*
X353826Y119536D01*
X353836Y119529D01*
X353855Y119522D01*
X353945Y119477D01*
X356300Y118502D01*
X359802Y115000D01*
X361697Y110426D01*
X361697Y105474D01*
X359802Y100900D01*
X356286Y97384D01*
X356273Y97378D01*
X356200Y97326D01*
X356122Y97281D01*
X356072Y97233D01*
X356015Y97192D01*
X355958Y97122D01*
X355894Y97060D01*
X355857Y97000D01*
X355812Y96947D01*
X355774Y96865D01*
X355727Y96789D01*
X355707Y96722D01*
X355677Y96659D01*
X355660Y96571D01*
X355634Y96485D01*
X355630Y96415D01*
X355617Y96346D01*
X355623Y96257D01*
X355618Y96167D01*
X355633Y96099D01*
X355637Y96029D01*
X355665Y95944D01*
X355683Y95856D01*
X355713Y95793D01*
X355735Y95727D01*
X355783Y95651D01*
X355822Y95570D01*
X355868Y95517D01*
X355905Y95458D01*
X355970Y95396D01*
X356029Y95328D01*
X356086Y95288D01*
X356137Y95240D01*
X356215Y95197D01*
X356289Y95145D01*
X356354Y95120D01*
X356415Y95086D01*
X356502Y95064D01*
X356586Y95032D01*
X356656Y95024D01*
X356723Y95007D01*
X356884Y94997D01*
X359911Y94997D01*
X361697Y93211D01*
X361697Y71889D01*
X359911Y70103D01*
X338589Y70103D01*
X336803Y71889D01*
X336803Y74901D01*
X336786Y75039D01*
X336773Y75178D01*
X336766Y75197D01*
X336763Y75217D01*
X336712Y75346D01*
X336665Y75477D01*
X336654Y75494D01*
X336646Y75513D01*
X336565Y75625D01*
X336487Y75740D01*
X336471Y75754D01*
X336460Y75770D01*
X336352Y75859D01*
X336248Y75951D01*
X336230Y75960D01*
X336215Y75973D01*
X336089Y76032D01*
X335965Y76095D01*
X335945Y76100D01*
X335927Y76108D01*
X335791Y76134D01*
X335655Y76165D01*
X335634Y76164D01*
X335615Y76168D01*
X335476Y76159D01*
X335337Y76155D01*
X335317Y76150D01*
X335297Y76148D01*
X335165Y76106D01*
X335031Y76067D01*
X335014Y76057D01*
X334995Y76050D01*
X334877Y75976D01*
X334757Y75905D01*
X334736Y75887D01*
X334726Y75880D01*
X334712Y75865D01*
X334637Y75799D01*
X331080Y72243D01*
X328179Y69341D01*
X309361Y69341D01*
X300873Y77830D01*
X300795Y77890D01*
X300722Y77958D01*
X300669Y77987D01*
X300622Y78024D01*
X300531Y78064D01*
X300444Y78112D01*
X300385Y78127D01*
X300330Y78151D01*
X300232Y78166D01*
X300136Y78191D01*
X300036Y78197D01*
X300016Y78201D01*
X300003Y78199D01*
X299975Y78201D01*
X288515Y78201D01*
X288506Y78208D01*
X288399Y78297D01*
X288380Y78305D01*
X288364Y78318D01*
X288236Y78373D01*
X288111Y78432D01*
X288091Y78436D01*
X288072Y78444D01*
X287935Y78466D01*
X287798Y78492D01*
X287778Y78491D01*
X287758Y78494D01*
X287620Y78481D01*
X287481Y78472D01*
X287462Y78466D01*
X287442Y78464D01*
X287311Y78417D01*
X287179Y78374D01*
X287161Y78364D01*
X287142Y78357D01*
X287027Y78279D01*
X286910Y78204D01*
X286896Y78189D01*
X286879Y78178D01*
X286787Y78074D01*
X286692Y77973D01*
X286682Y77955D01*
X286669Y77940D01*
X286605Y77816D01*
X286538Y77694D01*
X286533Y77675D01*
X286524Y77657D01*
X286494Y77521D01*
X286459Y77386D01*
X286457Y77358D01*
X286454Y77346D01*
X286455Y77326D01*
X286449Y77225D01*
X286449Y76287D01*
X284663Y74501D01*
X271137Y74501D01*
X269938Y75700D01*
X269844Y75773D01*
X269755Y75852D01*
X269719Y75870D01*
X269687Y75895D01*
X269578Y75942D01*
X269472Y75997D01*
X269432Y76005D01*
X269395Y76021D01*
X269277Y76040D01*
X269161Y76066D01*
X269121Y76065D01*
X269081Y76071D01*
X268962Y76060D01*
X268843Y76056D01*
X268805Y76045D01*
X268764Y76041D01*
X268652Y76001D01*
X268538Y75968D01*
X268503Y75948D01*
X268465Y75934D01*
X268367Y75867D01*
X268264Y75807D01*
X268219Y75767D01*
X268202Y75755D01*
X268188Y75740D01*
X268143Y75700D01*
X267960Y75517D01*
X267381Y75182D01*
X266734Y75009D01*
X263399Y75009D01*
X263399Y81320D01*
X263384Y81438D01*
X263377Y81557D01*
X263364Y81595D01*
X263359Y81635D01*
X263316Y81746D01*
X263279Y81859D01*
X263257Y81893D01*
X263242Y81931D01*
X263173Y82027D01*
X263109Y82128D01*
X263079Y82156D01*
X263056Y82188D01*
X262964Y82264D01*
X262877Y82346D01*
X262842Y82365D01*
X262811Y82391D01*
X262703Y82442D01*
X262599Y82499D01*
X262559Y82509D01*
X262523Y82527D01*
X262406Y82549D01*
X262291Y82579D01*
X262231Y82583D01*
X262211Y82586D01*
X262190Y82585D01*
X262130Y82589D01*
X260939Y82589D01*
X260939Y83780D01*
X260924Y83898D01*
X260917Y84017D01*
X260904Y84055D01*
X260899Y84096D01*
X260855Y84206D01*
X260819Y84319D01*
X260797Y84354D01*
X260782Y84391D01*
X260712Y84487D01*
X260649Y84588D01*
X260619Y84616D01*
X260595Y84649D01*
X260504Y84725D01*
X260417Y84806D01*
X260382Y84826D01*
X260350Y84851D01*
X260243Y84902D01*
X260138Y84960D01*
X260099Y84970D01*
X260063Y84987D01*
X259946Y85009D01*
X259830Y85039D01*
X259770Y85043D01*
X259750Y85047D01*
X259730Y85045D01*
X259670Y85049D01*
X252859Y85049D01*
X252859Y87122D01*
X252844Y87240D01*
X252837Y87359D01*
X252824Y87397D01*
X252819Y87438D01*
X252776Y87548D01*
X252739Y87661D01*
X252717Y87696D01*
X252702Y87733D01*
X252633Y87829D01*
X252569Y87930D01*
X252539Y87958D01*
X252516Y87991D01*
X252424Y88067D01*
X252337Y88148D01*
X252302Y88168D01*
X252271Y88193D01*
X252163Y88244D01*
X252059Y88302D01*
X252019Y88312D01*
X251983Y88329D01*
X251866Y88351D01*
X251751Y88381D01*
X251691Y88385D01*
X251671Y88389D01*
X251650Y88387D01*
X251590Y88391D01*
X248401Y88391D01*
X240791Y96001D01*
X240791Y108175D01*
X240779Y108274D01*
X240776Y108373D01*
X240759Y108431D01*
X240751Y108491D01*
X240715Y108583D01*
X240687Y108678D01*
X240657Y108730D01*
X240634Y108787D01*
X240576Y108867D01*
X240526Y108952D01*
X240460Y109027D01*
X240448Y109044D01*
X240438Y109052D01*
X240420Y109073D01*
X237058Y112435D01*
X236980Y112495D01*
X236907Y112563D01*
X236855Y112592D01*
X236807Y112629D01*
X236716Y112669D01*
X236629Y112717D01*
X236570Y112732D01*
X236515Y112756D01*
X236417Y112771D01*
X236321Y112796D01*
X236221Y112802D01*
X236201Y112806D01*
X236188Y112804D01*
X236160Y112806D01*
X212024Y112806D01*
X211986Y112816D01*
X211887Y112822D01*
X211867Y112826D01*
X211854Y112824D01*
X211825Y112826D01*
X207397Y112826D01*
X205611Y114612D01*
X205611Y139688D01*
X207397Y141474D01*
X208764Y141474D01*
X208902Y141491D01*
X209041Y141504D01*
X209060Y141511D01*
X209080Y141514D01*
X209209Y141565D01*
X209340Y141612D01*
X209357Y141623D01*
X209376Y141631D01*
X209488Y141712D01*
X209603Y141790D01*
X209617Y141806D01*
X209633Y141817D01*
X209722Y141925D01*
X209814Y142029D01*
X209823Y142047D01*
X209836Y142062D01*
X209895Y142188D01*
X209958Y142312D01*
X209963Y142332D01*
X209971Y142350D01*
X209997Y142486D01*
X210028Y142622D01*
X210027Y142643D01*
X210031Y142662D01*
X210022Y142801D01*
X210018Y142940D01*
X210013Y142960D01*
X210011Y142980D01*
X209969Y143112D01*
X209930Y143246D01*
X209920Y143263D01*
X209913Y143282D01*
X209839Y143400D01*
X209768Y143520D01*
X209750Y143541D01*
X209743Y143551D01*
X209728Y143565D01*
X209662Y143641D01*
X209323Y143980D01*
X209245Y144040D01*
X209172Y144108D01*
X209119Y144137D01*
X209072Y144174D01*
X208981Y144214D01*
X208894Y144262D01*
X208835Y144277D01*
X208780Y144301D01*
X208682Y144316D01*
X208586Y144341D01*
X208486Y144347D01*
X208466Y144351D01*
X208453Y144349D01*
X208425Y144351D01*
X206987Y144351D01*
X205201Y146137D01*
X205201Y158663D01*
X206987Y160449D01*
X208162Y160449D01*
X208280Y160464D01*
X208399Y160471D01*
X208437Y160484D01*
X208478Y160489D01*
X208588Y160532D01*
X208701Y160569D01*
X208736Y160591D01*
X208773Y160606D01*
X208869Y160675D01*
X208970Y160739D01*
X208998Y160769D01*
X209031Y160792D01*
X209107Y160884D01*
X209188Y160971D01*
X209208Y161006D01*
X209233Y161037D01*
X209284Y161145D01*
X209342Y161249D01*
X209352Y161289D01*
X209369Y161325D01*
X209391Y161442D01*
X209421Y161557D01*
X209425Y161617D01*
X209429Y161637D01*
X209427Y161658D01*
X209431Y161718D01*
X209431Y162132D01*
X209416Y162250D01*
X209409Y162369D01*
X209396Y162407D01*
X209391Y162448D01*
X209348Y162558D01*
X209311Y162671D01*
X209289Y162706D01*
X209274Y162743D01*
X209205Y162839D01*
X209141Y162940D01*
X209111Y162968D01*
X209088Y163001D01*
X208996Y163077D01*
X208909Y163158D01*
X208874Y163178D01*
X208843Y163203D01*
X208735Y163254D01*
X208631Y163312D01*
X208591Y163322D01*
X208555Y163339D01*
X208438Y163361D01*
X208323Y163391D01*
X208263Y163395D01*
X208243Y163399D01*
X208222Y163397D01*
X208162Y163401D01*
X206987Y163401D01*
X205201Y165187D01*
X205201Y177713D01*
X205250Y177761D01*
X205310Y177839D01*
X205378Y177911D01*
X205407Y177964D01*
X205444Y178012D01*
X205484Y178103D01*
X205532Y178190D01*
X205547Y178249D01*
X205571Y178304D01*
X205586Y178402D01*
X205611Y178498D01*
X205617Y178598D01*
X205621Y178618D01*
X205619Y178631D01*
X205621Y178659D01*
X205621Y180222D01*
X205606Y180340D01*
X205599Y180459D01*
X205586Y180497D01*
X205581Y180538D01*
X205538Y180648D01*
X205501Y180761D01*
X205479Y180796D01*
X205464Y180833D01*
X205395Y180929D01*
X205331Y181030D01*
X205301Y181058D01*
X205278Y181091D01*
X205186Y181167D01*
X205099Y181248D01*
X205064Y181268D01*
X205033Y181293D01*
X204925Y181344D01*
X204821Y181402D01*
X204781Y181412D01*
X204745Y181429D01*
X204628Y181451D01*
X204513Y181481D01*
X204453Y181485D01*
X204433Y181489D01*
X204412Y181487D01*
X204352Y181491D01*
X175085Y181491D01*
X174947Y181474D01*
X174808Y181461D01*
X174789Y181454D01*
X174769Y181451D01*
X174640Y181400D01*
X174509Y181353D01*
X174492Y181342D01*
X174473Y181334D01*
X174361Y181253D01*
X174246Y181175D01*
X174232Y181159D01*
X174216Y181148D01*
X174127Y181040D01*
X174035Y180936D01*
X174026Y180918D01*
X174013Y180903D01*
X173954Y180777D01*
X173891Y180653D01*
X173886Y180633D01*
X173878Y180615D01*
X173852Y180478D01*
X173821Y180343D01*
X173822Y180322D01*
X173818Y180303D01*
X173826Y180164D01*
X173831Y180025D01*
X173836Y180005D01*
X173838Y179985D01*
X173880Y179853D01*
X173919Y179719D01*
X173929Y179702D01*
X173936Y179683D01*
X174010Y179565D01*
X174081Y179445D01*
X174099Y179424D01*
X174106Y179414D01*
X174121Y179400D01*
X174187Y179325D01*
X175799Y177713D01*
X175799Y165187D01*
X174013Y163401D01*
X172838Y163401D01*
X172720Y163386D01*
X172601Y163379D01*
X172563Y163366D01*
X172522Y163361D01*
X172412Y163318D01*
X172299Y163281D01*
X172264Y163259D01*
X172227Y163244D01*
X172131Y163175D01*
X172030Y163111D01*
X172002Y163081D01*
X171969Y163058D01*
X171893Y162966D01*
X171812Y162879D01*
X171792Y162844D01*
X171767Y162813D01*
X171716Y162705D01*
X171658Y162601D01*
X171648Y162561D01*
X171631Y162525D01*
X171609Y162408D01*
X171579Y162293D01*
X171575Y162233D01*
X171571Y162213D01*
X171573Y162192D01*
X171569Y162132D01*
X171569Y161718D01*
X171584Y161600D01*
X171591Y161481D01*
X171604Y161443D01*
X171609Y161402D01*
X171652Y161292D01*
X171689Y161179D01*
X171711Y161144D01*
X171726Y161107D01*
X171795Y161011D01*
X171859Y160910D01*
X171889Y160882D01*
X171912Y160849D01*
X172004Y160773D01*
X172091Y160692D01*
X172126Y160672D01*
X172157Y160647D01*
X172265Y160596D01*
X172369Y160538D01*
X172409Y160528D01*
X172445Y160511D01*
X172562Y160489D01*
X172677Y160459D01*
X172737Y160455D01*
X172757Y160451D01*
X172778Y160453D01*
X172838Y160449D01*
X174013Y160449D01*
X175799Y158663D01*
X175799Y146137D01*
X174013Y144351D01*
X171958Y144351D01*
X171840Y144336D01*
X171721Y144329D01*
X171683Y144316D01*
X171642Y144311D01*
X171532Y144268D01*
X171419Y144231D01*
X171384Y144209D01*
X171347Y144194D01*
X171251Y144125D01*
X171150Y144061D01*
X171122Y144031D01*
X171089Y144008D01*
X171013Y143916D01*
X170932Y143829D01*
X170912Y143794D01*
X170887Y143763D01*
X170836Y143655D01*
X170778Y143551D01*
X170768Y143511D01*
X170751Y143475D01*
X170729Y143358D01*
X170699Y143243D01*
X170695Y143183D01*
X170691Y143163D01*
X170693Y143142D01*
X170689Y143082D01*
X170689Y142743D01*
X170704Y142625D01*
X170711Y142506D01*
X170724Y142468D01*
X170729Y142427D01*
X170772Y142317D01*
X170809Y142204D01*
X170831Y142169D01*
X170846Y142132D01*
X170915Y142036D01*
X170979Y141935D01*
X171009Y141907D01*
X171032Y141874D01*
X171124Y141798D01*
X171211Y141717D01*
X171246Y141697D01*
X171277Y141672D01*
X171385Y141621D01*
X171489Y141563D01*
X171529Y141553D01*
X171565Y141536D01*
X171682Y141514D01*
X171797Y141484D01*
X171857Y141480D01*
X171877Y141476D01*
X171898Y141478D01*
X171958Y141474D01*
X174673Y141474D01*
X176459Y139688D01*
X176459Y119662D01*
X176323Y119526D01*
X176262Y119448D01*
X176194Y119376D01*
X176165Y119323D01*
X176128Y119275D01*
X176088Y119184D01*
X176040Y119097D01*
X176025Y119039D01*
X176001Y118983D01*
X175986Y118885D01*
X175961Y118789D01*
X175955Y118689D01*
X175951Y118669D01*
X175953Y118656D01*
X175951Y118628D01*
X175951Y118394D01*
X175717Y118394D01*
X175648Y118386D01*
X175579Y118387D01*
X175491Y118366D01*
X175401Y118355D01*
X175337Y118329D01*
X175270Y118313D01*
X175190Y118271D01*
X175105Y118238D01*
X175050Y118197D01*
X174989Y118165D01*
X174863Y118064D01*
X174856Y118057D01*
X174848Y118051D01*
X174848Y118050D01*
X174752Y117935D01*
X174656Y117822D01*
X174651Y117813D01*
X174645Y117805D01*
X174582Y117671D01*
X174516Y117537D01*
X174514Y117527D01*
X174509Y117518D01*
X174481Y117371D01*
X174451Y117225D01*
X174452Y117215D01*
X174450Y117205D01*
X174459Y117056D01*
X174466Y116908D01*
X174469Y116898D01*
X174469Y116888D01*
X174515Y116746D01*
X174559Y116604D01*
X174564Y116595D01*
X174567Y116585D01*
X174647Y116459D01*
X174725Y116332D01*
X174732Y116325D01*
X174738Y116317D01*
X174846Y116215D01*
X174953Y116111D01*
X174962Y116106D01*
X174969Y116099D01*
X175099Y116027D01*
X175229Y115953D01*
X175239Y115950D01*
X175248Y115945D01*
X175391Y115908D01*
X175536Y115868D01*
X175546Y115868D01*
X175556Y115866D01*
X175716Y115856D01*
X175951Y115856D01*
X175951Y115541D01*
X175778Y114894D01*
X175443Y114315D01*
X174970Y113842D01*
X174391Y113507D01*
X173744Y113334D01*
X169179Y113334D01*
X169179Y116587D01*
X169164Y116705D01*
X169157Y116824D01*
X169145Y116862D01*
X169140Y116903D01*
X169096Y117013D01*
X169059Y117126D01*
X169037Y117161D01*
X169023Y117198D01*
X168953Y117294D01*
X168889Y117395D01*
X168859Y117423D01*
X168836Y117456D01*
X168744Y117532D01*
X168657Y117613D01*
X168622Y117633D01*
X168591Y117658D01*
X168483Y117709D01*
X168379Y117767D01*
X168340Y117777D01*
X168303Y117794D01*
X168186Y117816D01*
X168071Y117846D01*
X168011Y117850D01*
X167991Y117854D01*
X167990Y117854D01*
X167970Y117852D01*
X167910Y117856D01*
X167792Y117841D01*
X167673Y117834D01*
X167634Y117821D01*
X167594Y117816D01*
X167484Y117773D01*
X167370Y117736D01*
X167336Y117714D01*
X167299Y117699D01*
X167202Y117630D01*
X167102Y117566D01*
X167074Y117536D01*
X167041Y117513D01*
X166965Y117421D01*
X166884Y117334D01*
X166864Y117299D01*
X166838Y117268D01*
X166788Y117160D01*
X166730Y117056D01*
X166720Y117016D01*
X166703Y116980D01*
X166681Y116863D01*
X166651Y116748D01*
X166647Y116688D01*
X166643Y116668D01*
X166644Y116647D01*
X166641Y116587D01*
X166641Y113334D01*
X162076Y113334D01*
X161429Y113507D01*
X160850Y113842D01*
X160377Y114315D01*
X160042Y114894D01*
X159869Y115541D01*
X159869Y116587D01*
X159854Y116705D01*
X159847Y116824D01*
X159834Y116862D01*
X159829Y116903D01*
X159786Y117013D01*
X159749Y117126D01*
X159727Y117161D01*
X159712Y117198D01*
X159643Y117294D01*
X159579Y117395D01*
X159549Y117423D01*
X159526Y117456D01*
X159434Y117532D01*
X159347Y117613D01*
X159312Y117633D01*
X159281Y117658D01*
X159173Y117709D01*
X159069Y117767D01*
X159029Y117777D01*
X158993Y117794D01*
X158876Y117816D01*
X158761Y117846D01*
X158701Y117850D01*
X158681Y117854D01*
X158660Y117852D01*
X158600Y117856D01*
X156240Y117856D01*
X156141Y117844D01*
X156042Y117841D01*
X155984Y117824D01*
X155924Y117816D01*
X155832Y117780D01*
X155737Y117752D01*
X155685Y117722D01*
X155628Y117699D01*
X155548Y117641D01*
X155463Y117591D01*
X155388Y117525D01*
X155371Y117513D01*
X155363Y117503D01*
X155342Y117485D01*
X148430Y110572D01*
X148387Y110517D01*
X148337Y110469D01*
X148290Y110392D01*
X148235Y110321D01*
X148207Y110257D01*
X148171Y110198D01*
X148144Y110112D01*
X148109Y110029D01*
X148098Y109960D01*
X148077Y109894D01*
X148073Y109804D01*
X148059Y109715D01*
X148065Y109645D01*
X148062Y109576D01*
X148080Y109488D01*
X148089Y109398D01*
X148112Y109333D01*
X148126Y109264D01*
X148166Y109184D01*
X148196Y109099D01*
X148235Y109042D01*
X148266Y108979D01*
X148324Y108910D01*
X148375Y108836D01*
X148427Y108790D01*
X148472Y108737D01*
X148546Y108685D01*
X148613Y108626D01*
X148675Y108594D01*
X148732Y108554D01*
X148816Y108522D01*
X148896Y108481D01*
X148965Y108466D01*
X149030Y108441D01*
X149119Y108431D01*
X149207Y108411D01*
X149276Y108413D01*
X149346Y108406D01*
X149435Y108418D01*
X149525Y108421D01*
X149592Y108440D01*
X149661Y108450D01*
X149813Y108502D01*
X150935Y108967D01*
X153865Y108967D01*
X156573Y107845D01*
X158645Y105773D01*
X159767Y103065D01*
X159767Y100135D01*
X158645Y97427D01*
X156573Y95355D01*
X153865Y94233D01*
X150935Y94233D01*
X148074Y95418D01*
X148026Y95431D01*
X147981Y95453D01*
X147873Y95473D01*
X147767Y95502D01*
X147717Y95503D01*
X147668Y95512D01*
X147559Y95506D01*
X147449Y95507D01*
X147401Y95496D01*
X147351Y95493D01*
X147247Y95459D01*
X147140Y95433D01*
X147096Y95410D01*
X147049Y95395D01*
X146956Y95336D01*
X146859Y95284D01*
X146822Y95251D01*
X146780Y95224D01*
X146705Y95144D01*
X146623Y95071D01*
X146596Y95029D01*
X146562Y94993D01*
X146509Y94897D01*
X146449Y94805D01*
X146432Y94758D01*
X146408Y94714D01*
X146381Y94608D01*
X146345Y94504D01*
X146341Y94454D01*
X146329Y94406D01*
X146319Y94246D01*
X146319Y61069D01*
X146331Y60970D01*
X146334Y60871D01*
X146351Y60813D01*
X146359Y60753D01*
X146395Y60661D01*
X146423Y60566D01*
X146453Y60514D01*
X146476Y60457D01*
X146534Y60377D01*
X146584Y60292D01*
X146650Y60217D01*
X146662Y60200D01*
X146672Y60192D01*
X146690Y60171D01*
X148049Y58813D01*
X148049Y42787D01*
X146690Y41429D01*
X146630Y41351D01*
X146562Y41279D01*
X146533Y41226D01*
X146496Y41178D01*
X146456Y41087D01*
X146408Y41000D01*
X146393Y40942D01*
X146369Y40886D01*
X146354Y40788D01*
X146329Y40692D01*
X146323Y40592D01*
X146319Y40572D01*
X146321Y40559D01*
X146319Y40531D01*
X146319Y38611D01*
X141489Y33781D01*
X129921Y33781D01*
X129803Y33766D01*
X129684Y33759D01*
X129646Y33746D01*
X129605Y33741D01*
X129495Y33698D01*
X129382Y33661D01*
X129347Y33639D01*
X129310Y33624D01*
X129214Y33555D01*
X129113Y33491D01*
X129085Y33461D01*
X129052Y33438D01*
X128976Y33346D01*
X128895Y33259D01*
X128875Y33224D01*
X128850Y33193D01*
X128799Y33085D01*
X128741Y32981D01*
X128731Y32941D01*
X128714Y32905D01*
X128692Y32788D01*
X128662Y32673D01*
X128658Y32613D01*
X128654Y32593D01*
X128656Y32572D01*
X128652Y32512D01*
X128652Y30030D01*
X127627Y27556D01*
X125733Y25662D01*
X123259Y24637D01*
X120581Y24637D01*
X118107Y25662D01*
X116836Y26933D01*
X116758Y26993D01*
X116686Y27061D01*
X116633Y27090D01*
X116585Y27127D01*
X116494Y27167D01*
X116407Y27215D01*
X116349Y27230D01*
X116293Y27254D01*
X116195Y27269D01*
X116100Y27294D01*
X116000Y27300D01*
X115979Y27304D01*
X115967Y27302D01*
X115939Y27304D01*
X109122Y27304D01*
X108984Y27287D01*
X108845Y27274D01*
X108826Y27267D01*
X108806Y27264D01*
X108677Y27213D01*
X108546Y27166D01*
X108529Y27155D01*
X108510Y27147D01*
X108398Y27066D01*
X108283Y26988D01*
X108269Y26972D01*
X108253Y26961D01*
X108164Y26853D01*
X108072Y26749D01*
X108063Y26731D01*
X108050Y26716D01*
X107991Y26590D01*
X107928Y26466D01*
X107923Y26446D01*
X107915Y26428D01*
X107888Y26291D01*
X107858Y26156D01*
X107859Y26135D01*
X107855Y26116D01*
X107863Y25977D01*
X107868Y25838D01*
X107873Y25818D01*
X107875Y25798D01*
X107917Y25666D01*
X107956Y25532D01*
X107966Y25515D01*
X107973Y25496D01*
X108047Y25378D01*
X108049Y25375D01*
X108049Y5334D01*
X108064Y5216D01*
X108071Y5097D01*
X108084Y5059D01*
X108089Y5018D01*
X108132Y4908D01*
X108169Y4795D01*
X108191Y4760D01*
X108206Y4723D01*
X108275Y4627D01*
X108339Y4526D01*
X108369Y4498D01*
X108392Y4465D01*
X108484Y4389D01*
X108571Y4308D01*
X108606Y4288D01*
X108637Y4263D01*
X108745Y4212D01*
X108849Y4154D01*
X108889Y4144D01*
X108925Y4127D01*
X109042Y4105D01*
X109157Y4075D01*
X109217Y4071D01*
X109237Y4067D01*
X109258Y4069D01*
X109318Y4065D01*
X144682Y4065D01*
X144800Y4080D01*
G37*
G36*
X54626Y4082D02*
X54626Y4082D01*
X54765Y4095D01*
X54784Y4102D01*
X54804Y4105D01*
X54933Y4156D01*
X55064Y4203D01*
X55081Y4214D01*
X55099Y4222D01*
X55212Y4303D01*
X55327Y4381D01*
X55340Y4397D01*
X55357Y4408D01*
X55446Y4516D01*
X55537Y4620D01*
X55547Y4638D01*
X55560Y4653D01*
X55619Y4779D01*
X55682Y4903D01*
X55686Y4923D01*
X55695Y4941D01*
X55721Y5078D01*
X55752Y5213D01*
X55751Y5234D01*
X55755Y5253D01*
X55746Y5392D01*
X55742Y5531D01*
X55736Y5551D01*
X55735Y5571D01*
X55692Y5703D01*
X55654Y5837D01*
X55643Y5854D01*
X55637Y5873D01*
X55563Y5991D01*
X55492Y6111D01*
X55474Y6132D01*
X55467Y6142D01*
X55452Y6156D01*
X55386Y6231D01*
X54301Y7316D01*
X54301Y18084D01*
X56976Y20759D01*
X57014Y20764D01*
X57133Y20771D01*
X57171Y20784D01*
X57212Y20789D01*
X57322Y20832D01*
X57435Y20869D01*
X57470Y20891D01*
X57507Y20906D01*
X57603Y20975D01*
X57704Y21039D01*
X57732Y21069D01*
X57765Y21092D01*
X57841Y21184D01*
X57922Y21271D01*
X57942Y21306D01*
X57967Y21337D01*
X58018Y21445D01*
X58076Y21549D01*
X58086Y21589D01*
X58103Y21625D01*
X58125Y21742D01*
X58155Y21857D01*
X58159Y21917D01*
X58163Y21937D01*
X58161Y21958D01*
X58165Y22018D01*
X58165Y22432D01*
X58150Y22550D01*
X58143Y22669D01*
X58130Y22707D01*
X58125Y22748D01*
X58082Y22858D01*
X58045Y22971D01*
X58023Y23006D01*
X58008Y23043D01*
X57939Y23139D01*
X57875Y23240D01*
X57845Y23268D01*
X57822Y23301D01*
X57730Y23377D01*
X57643Y23458D01*
X57608Y23478D01*
X57577Y23503D01*
X57469Y23554D01*
X57365Y23612D01*
X57325Y23622D01*
X57289Y23639D01*
X57172Y23661D01*
X57057Y23691D01*
X56997Y23695D01*
X56977Y23699D01*
X56956Y23697D01*
X56896Y23701D01*
X55857Y23701D01*
X54071Y25487D01*
X54071Y38013D01*
X55857Y39799D01*
X60849Y39799D01*
X60993Y39817D01*
X61138Y39832D01*
X61151Y39837D01*
X61164Y39839D01*
X61300Y39892D01*
X61436Y39943D01*
X61447Y39951D01*
X61460Y39956D01*
X61578Y40041D01*
X61698Y40124D01*
X61706Y40134D01*
X61717Y40142D01*
X61811Y40255D01*
X61906Y40365D01*
X61912Y40377D01*
X61920Y40387D01*
X61982Y40520D01*
X62047Y40650D01*
X62050Y40663D01*
X62056Y40675D01*
X62083Y40818D01*
X62114Y40961D01*
X62113Y40974D01*
X62116Y40987D01*
X62106Y41133D01*
X62100Y41279D01*
X62097Y41291D01*
X62096Y41305D01*
X62051Y41444D01*
X62009Y41583D01*
X62002Y41595D01*
X61998Y41607D01*
X61920Y41731D01*
X61844Y41855D01*
X61835Y41865D01*
X61828Y41876D01*
X61721Y41976D01*
X61617Y42078D01*
X61602Y42088D01*
X61596Y42094D01*
X61581Y42102D01*
X61483Y42167D01*
X61051Y42417D01*
X60578Y42890D01*
X60243Y43469D01*
X60070Y44115D01*
X60070Y49150D01*
X65532Y49150D01*
X65650Y49165D01*
X65769Y49172D01*
X65807Y49184D01*
X65847Y49190D01*
X65958Y49233D01*
X66071Y49270D01*
X66105Y49292D01*
X66143Y49307D01*
X66239Y49376D01*
X66340Y49440D01*
X66365Y49467D01*
X72962Y49467D01*
X72980Y49479D01*
X73003Y49483D01*
X73010Y49498D01*
X73019Y49504D01*
X73017Y49514D01*
X73024Y49530D01*
X73024Y52070D01*
X73012Y52089D01*
X73009Y52111D01*
X72993Y52118D01*
X72987Y52127D01*
X72977Y52126D01*
X72962Y52133D01*
X67563Y52133D01*
X67563Y59691D01*
X69549Y59691D01*
X70186Y59520D01*
X70291Y59506D01*
X70394Y59483D01*
X70448Y59484D01*
X70501Y59477D01*
X70606Y59489D01*
X70712Y59492D01*
X70764Y59507D01*
X70817Y59513D01*
X70916Y59551D01*
X71017Y59581D01*
X71064Y59608D01*
X71114Y59627D01*
X71200Y59689D01*
X71291Y59742D01*
X71355Y59799D01*
X71373Y59811D01*
X71383Y59823D01*
X71412Y59849D01*
X71762Y60199D01*
X80892Y60199D01*
X82678Y58413D01*
X82678Y43187D01*
X82572Y43081D01*
X82499Y42987D01*
X82420Y42898D01*
X82402Y42862D01*
X82377Y42830D01*
X82330Y42721D01*
X82276Y42615D01*
X82267Y42575D01*
X82251Y42538D01*
X82232Y42420D01*
X82206Y42305D01*
X82207Y42264D01*
X82201Y42224D01*
X82212Y42106D01*
X82216Y41987D01*
X82227Y41948D01*
X82231Y41908D01*
X82271Y41796D01*
X82304Y41681D01*
X82325Y41646D01*
X82338Y41608D01*
X82405Y41510D01*
X82466Y41407D01*
X82506Y41362D01*
X82517Y41345D01*
X82532Y41332D01*
X82572Y41286D01*
X83688Y40170D01*
X83766Y40110D01*
X83838Y40042D01*
X83891Y40013D01*
X83939Y39976D01*
X84030Y39936D01*
X84117Y39888D01*
X84175Y39873D01*
X84231Y39849D01*
X84329Y39834D01*
X84425Y39809D01*
X84525Y39803D01*
X84545Y39799D01*
X84557Y39801D01*
X84585Y39799D01*
X86383Y39799D01*
X86614Y39567D01*
X86724Y39482D01*
X86831Y39393D01*
X86850Y39385D01*
X86866Y39372D01*
X86994Y39317D01*
X87119Y39258D01*
X87139Y39254D01*
X87158Y39246D01*
X87296Y39224D01*
X87432Y39198D01*
X87452Y39199D01*
X87472Y39196D01*
X87611Y39209D01*
X87749Y39218D01*
X87768Y39224D01*
X87788Y39226D01*
X87919Y39273D01*
X88051Y39316D01*
X88069Y39326D01*
X88088Y39333D01*
X88202Y39411D01*
X88320Y39486D01*
X88334Y39501D01*
X88351Y39512D01*
X88443Y39616D01*
X88538Y39717D01*
X88548Y39735D01*
X88561Y39750D01*
X88624Y39874D01*
X88692Y39996D01*
X88697Y40015D01*
X88706Y40034D01*
X88736Y40170D01*
X88771Y40304D01*
X88773Y40332D01*
X88776Y40344D01*
X88775Y40364D01*
X88781Y40465D01*
X88781Y83312D01*
X88766Y83430D01*
X88759Y83549D01*
X88746Y83587D01*
X88741Y83628D01*
X88698Y83738D01*
X88661Y83851D01*
X88639Y83886D01*
X88624Y83923D01*
X88555Y84019D01*
X88491Y84120D01*
X88461Y84148D01*
X88438Y84181D01*
X88346Y84257D01*
X88259Y84338D01*
X88224Y84358D01*
X88193Y84383D01*
X88085Y84434D01*
X87981Y84492D01*
X87941Y84502D01*
X87905Y84519D01*
X87788Y84541D01*
X87673Y84571D01*
X87613Y84575D01*
X87593Y84579D01*
X87572Y84577D01*
X87512Y84581D01*
X74411Y84581D01*
X62083Y96910D01*
X62005Y96970D01*
X61932Y97038D01*
X61879Y97067D01*
X61832Y97104D01*
X61741Y97144D01*
X61654Y97192D01*
X61595Y97207D01*
X61540Y97231D01*
X61442Y97246D01*
X61346Y97271D01*
X61246Y97277D01*
X61226Y97281D01*
X61213Y97279D01*
X61185Y97281D01*
X25231Y97281D01*
X25202Y97278D01*
X25173Y97280D01*
X25045Y97258D01*
X24916Y97241D01*
X24889Y97231D01*
X24859Y97226D01*
X24741Y97172D01*
X24620Y97124D01*
X24596Y97107D01*
X24569Y97095D01*
X24468Y97014D01*
X24363Y96938D01*
X24344Y96915D01*
X24321Y96896D01*
X24243Y96793D01*
X24160Y96693D01*
X24147Y96666D01*
X24130Y96642D01*
X24059Y96498D01*
X23252Y94550D01*
X19750Y91048D01*
X17395Y90073D01*
X17275Y90004D01*
X17152Y89939D01*
X17137Y89925D01*
X17119Y89915D01*
X17019Y89818D01*
X16916Y89725D01*
X16905Y89708D01*
X16891Y89694D01*
X16818Y89576D01*
X16742Y89459D01*
X16735Y89440D01*
X16724Y89423D01*
X16684Y89290D01*
X16638Y89158D01*
X16637Y89138D01*
X16631Y89119D01*
X16624Y88980D01*
X16613Y88841D01*
X16617Y88821D01*
X16616Y88801D01*
X16644Y88665D01*
X16668Y88528D01*
X16676Y88509D01*
X16680Y88490D01*
X16741Y88365D01*
X16798Y88238D01*
X16811Y88222D01*
X16820Y88204D01*
X16910Y88098D01*
X16997Y87990D01*
X17013Y87977D01*
X17026Y87962D01*
X17140Y87882D01*
X17251Y87798D01*
X17276Y87786D01*
X17286Y87779D01*
X17305Y87772D01*
X17395Y87727D01*
X19750Y86752D01*
X23252Y83250D01*
X25147Y78676D01*
X25147Y73724D01*
X23252Y69150D01*
X19750Y65648D01*
X15176Y63753D01*
X10224Y63753D01*
X5820Y65578D01*
X5772Y65591D01*
X5727Y65612D01*
X5619Y65633D01*
X5513Y65662D01*
X5463Y65662D01*
X5414Y65672D01*
X5305Y65665D01*
X5195Y65667D01*
X5147Y65655D01*
X5097Y65652D01*
X4993Y65618D01*
X4886Y65593D01*
X4842Y65569D01*
X4795Y65554D01*
X4702Y65495D01*
X4605Y65444D01*
X4568Y65410D01*
X4526Y65384D01*
X4451Y65304D01*
X4369Y65230D01*
X4342Y65188D01*
X4308Y65152D01*
X4255Y65056D01*
X4195Y64964D01*
X4178Y64917D01*
X4154Y64874D01*
X4127Y64767D01*
X4091Y64663D01*
X4087Y64614D01*
X4075Y64566D01*
X4065Y64405D01*
X4065Y52597D01*
X4073Y52528D01*
X4072Y52458D01*
X4093Y52370D01*
X4105Y52281D01*
X4130Y52216D01*
X4147Y52149D01*
X4189Y52069D01*
X4222Y51986D01*
X4263Y51929D01*
X4295Y51868D01*
X4356Y51801D01*
X4408Y51728D01*
X4462Y51684D01*
X4509Y51632D01*
X4584Y51583D01*
X4653Y51526D01*
X4717Y51496D01*
X4775Y51457D01*
X4860Y51428D01*
X4941Y51390D01*
X5010Y51377D01*
X5076Y51354D01*
X5165Y51347D01*
X5253Y51330D01*
X5323Y51335D01*
X5393Y51329D01*
X5481Y51344D01*
X5571Y51350D01*
X5637Y51371D01*
X5706Y51383D01*
X5788Y51420D01*
X5873Y51448D01*
X5932Y51485D01*
X5996Y51514D01*
X6066Y51570D01*
X6142Y51618D01*
X6190Y51669D01*
X6244Y51713D01*
X6299Y51784D01*
X6360Y51850D01*
X6394Y51911D01*
X6436Y51967D01*
X6507Y52111D01*
X7424Y54325D01*
X9175Y56076D01*
X11462Y57024D01*
X13938Y57024D01*
X16225Y56076D01*
X17976Y54325D01*
X18924Y52038D01*
X18924Y49562D01*
X18760Y49166D01*
X18759Y49165D01*
X18759Y49164D01*
X18717Y49011D01*
X18676Y48859D01*
X18676Y48858D01*
X18675Y48858D01*
X18673Y48696D01*
X18671Y48541D01*
X18671Y48540D01*
X18714Y48360D01*
X18745Y48232D01*
X18745Y48231D01*
X18745Y48230D01*
X18821Y48087D01*
X18893Y47951D01*
X18894Y47950D01*
X18894Y47949D01*
X18999Y47834D01*
X19107Y47716D01*
X19108Y47715D01*
X19109Y47714D01*
X19246Y47625D01*
X19373Y47541D01*
X19374Y47540D01*
X19375Y47540D01*
X19525Y47489D01*
X19674Y47438D01*
X19675Y47437D01*
X19676Y47437D01*
X19826Y47425D01*
X19991Y47412D01*
X19992Y47412D01*
X19993Y47412D01*
X20153Y47430D01*
X25400Y48355D01*
X33251Y46971D01*
X40155Y42985D01*
X45280Y36878D01*
X48007Y29386D01*
X48007Y21414D01*
X45280Y13922D01*
X40156Y7815D01*
X37762Y6433D01*
X37646Y6345D01*
X37528Y6260D01*
X37519Y6249D01*
X37509Y6241D01*
X37418Y6127D01*
X37325Y6015D01*
X37319Y6002D01*
X37311Y5992D01*
X37251Y5858D01*
X37190Y5727D01*
X37187Y5714D01*
X37182Y5701D01*
X37157Y5557D01*
X37130Y5414D01*
X37131Y5401D01*
X37128Y5388D01*
X37141Y5242D01*
X37150Y5097D01*
X37154Y5084D01*
X37155Y5071D01*
X37203Y4933D01*
X37248Y4795D01*
X37255Y4783D01*
X37259Y4770D01*
X37340Y4649D01*
X37418Y4526D01*
X37428Y4517D01*
X37435Y4505D01*
X37543Y4408D01*
X37649Y4308D01*
X37661Y4301D01*
X37671Y4292D01*
X37801Y4225D01*
X37928Y4154D01*
X37941Y4151D01*
X37953Y4145D01*
X38095Y4111D01*
X38236Y4075D01*
X38254Y4074D01*
X38263Y4072D01*
X38280Y4072D01*
X38397Y4065D01*
X54488Y4065D01*
X54626Y4082D01*
G37*
G36*
X83743Y93236D02*
X83743Y93236D01*
X83882Y93249D01*
X83901Y93256D01*
X83921Y93259D01*
X84050Y93310D01*
X84181Y93357D01*
X84198Y93368D01*
X84217Y93376D01*
X84329Y93457D01*
X84444Y93535D01*
X84458Y93551D01*
X84474Y93562D01*
X84563Y93670D01*
X84655Y93774D01*
X84664Y93792D01*
X84677Y93807D01*
X84736Y93933D01*
X84799Y94057D01*
X84804Y94077D01*
X84812Y94095D01*
X84838Y94231D01*
X84869Y94367D01*
X84868Y94388D01*
X84872Y94407D01*
X84864Y94546D01*
X84859Y94685D01*
X84854Y94705D01*
X84852Y94725D01*
X84809Y94857D01*
X84771Y94991D01*
X84761Y95008D01*
X84754Y95027D01*
X84680Y95145D01*
X84609Y95265D01*
X84591Y95286D01*
X84584Y95296D01*
X84569Y95310D01*
X84551Y95331D01*
X84551Y107863D01*
X86337Y109649D01*
X91509Y109649D01*
X91647Y109666D01*
X91786Y109679D01*
X91805Y109686D01*
X91825Y109689D01*
X91955Y109740D01*
X92085Y109787D01*
X92102Y109798D01*
X92121Y109806D01*
X92233Y109887D01*
X92348Y109965D01*
X92362Y109981D01*
X92378Y109992D01*
X92467Y110100D01*
X92559Y110204D01*
X92568Y110222D01*
X92581Y110237D01*
X92640Y110363D01*
X92703Y110487D01*
X92708Y110507D01*
X92716Y110525D01*
X92742Y110661D01*
X92773Y110797D01*
X92772Y110818D01*
X92776Y110837D01*
X92768Y110976D01*
X92763Y111115D01*
X92758Y111135D01*
X92756Y111155D01*
X92714Y111287D01*
X92675Y111421D01*
X92665Y111438D01*
X92658Y111457D01*
X92584Y111575D01*
X92513Y111695D01*
X92495Y111716D01*
X92488Y111726D01*
X92473Y111740D01*
X92407Y111816D01*
X92201Y112021D01*
X92201Y121412D01*
X92186Y121530D01*
X92179Y121649D01*
X92166Y121687D01*
X92161Y121728D01*
X92118Y121838D01*
X92081Y121951D01*
X92059Y121986D01*
X92044Y122023D01*
X91975Y122119D01*
X91911Y122220D01*
X91881Y122248D01*
X91858Y122281D01*
X91766Y122357D01*
X91679Y122438D01*
X91644Y122458D01*
X91613Y122483D01*
X91505Y122534D01*
X91401Y122592D01*
X91361Y122602D01*
X91325Y122619D01*
X91208Y122641D01*
X91093Y122671D01*
X91033Y122675D01*
X91013Y122679D01*
X90992Y122677D01*
X90932Y122681D01*
X61711Y122681D01*
X36683Y147710D01*
X36605Y147770D01*
X36533Y147838D01*
X36480Y147867D01*
X36432Y147904D01*
X36341Y147944D01*
X36254Y147992D01*
X36195Y148007D01*
X36140Y148031D01*
X36042Y148046D01*
X35946Y148071D01*
X35846Y148077D01*
X35826Y148081D01*
X35813Y148079D01*
X35785Y148081D01*
X25231Y148081D01*
X25202Y148078D01*
X25173Y148080D01*
X25045Y148058D01*
X24916Y148041D01*
X24889Y148031D01*
X24859Y148026D01*
X24741Y147972D01*
X24620Y147924D01*
X24596Y147907D01*
X24569Y147895D01*
X24468Y147814D01*
X24363Y147738D01*
X24344Y147715D01*
X24321Y147696D01*
X24243Y147593D01*
X24160Y147493D01*
X24147Y147466D01*
X24130Y147442D01*
X24059Y147298D01*
X23252Y145350D01*
X19751Y141848D01*
X17395Y140873D01*
X17274Y140804D01*
X17152Y140739D01*
X17137Y140725D01*
X17119Y140715D01*
X17019Y140618D01*
X16916Y140525D01*
X16905Y140508D01*
X16891Y140494D01*
X16818Y140376D01*
X16742Y140259D01*
X16735Y140240D01*
X16724Y140223D01*
X16684Y140090D01*
X16638Y139958D01*
X16637Y139938D01*
X16631Y139919D01*
X16624Y139780D01*
X16613Y139641D01*
X16617Y139621D01*
X16616Y139601D01*
X16644Y139465D01*
X16668Y139328D01*
X16676Y139309D01*
X16680Y139290D01*
X16741Y139165D01*
X16798Y139038D01*
X16811Y139022D01*
X16820Y139004D01*
X16910Y138898D01*
X16997Y138790D01*
X17013Y138777D01*
X17026Y138762D01*
X17140Y138682D01*
X17251Y138598D01*
X17276Y138586D01*
X17286Y138579D01*
X17305Y138572D01*
X17395Y138527D01*
X19750Y137552D01*
X23252Y134050D01*
X25147Y129476D01*
X25147Y124524D01*
X23252Y119950D01*
X19751Y116448D01*
X17395Y115473D01*
X17274Y115404D01*
X17152Y115339D01*
X17137Y115325D01*
X17119Y115315D01*
X17019Y115218D01*
X16916Y115125D01*
X16905Y115108D01*
X16891Y115094D01*
X16818Y114976D01*
X16742Y114859D01*
X16735Y114840D01*
X16724Y114823D01*
X16684Y114690D01*
X16638Y114558D01*
X16637Y114538D01*
X16631Y114519D01*
X16624Y114380D01*
X16613Y114241D01*
X16617Y114221D01*
X16616Y114201D01*
X16644Y114065D01*
X16668Y113928D01*
X16676Y113909D01*
X16680Y113890D01*
X16741Y113765D01*
X16798Y113638D01*
X16811Y113622D01*
X16820Y113604D01*
X16910Y113498D01*
X16997Y113390D01*
X17013Y113377D01*
X17026Y113362D01*
X17140Y113282D01*
X17251Y113198D01*
X17276Y113186D01*
X17286Y113179D01*
X17305Y113172D01*
X17395Y113127D01*
X19750Y112152D01*
X23252Y108650D01*
X24059Y106702D01*
X24073Y106677D01*
X24083Y106649D01*
X24152Y106539D01*
X24216Y106426D01*
X24237Y106405D01*
X24253Y106380D01*
X24347Y106291D01*
X24438Y106198D01*
X24463Y106182D01*
X24484Y106162D01*
X24598Y106099D01*
X24709Y106031D01*
X24737Y106023D01*
X24763Y106008D01*
X24889Y105976D01*
X25013Y105938D01*
X25042Y105936D01*
X25071Y105929D01*
X25231Y105919D01*
X65289Y105919D01*
X77617Y93590D01*
X77695Y93530D01*
X77768Y93462D01*
X77821Y93433D01*
X77868Y93396D01*
X77959Y93356D01*
X78046Y93308D01*
X78105Y93293D01*
X78160Y93269D01*
X78258Y93254D01*
X78354Y93229D01*
X78454Y93223D01*
X78474Y93219D01*
X78487Y93221D01*
X78515Y93219D01*
X83605Y93219D01*
X83743Y93236D01*
G37*
%LPC*%
G36*
X408961Y165101D02*
X408961Y165101D01*
X401960Y168001D01*
X396601Y173360D01*
X393701Y180361D01*
X393701Y187939D01*
X396601Y194940D01*
X401960Y200299D01*
X408961Y203199D01*
X416539Y203199D01*
X423540Y200299D01*
X428899Y194940D01*
X431799Y187939D01*
X431799Y180361D01*
X428899Y173360D01*
X423540Y168001D01*
X416539Y165101D01*
X408961Y165101D01*
G37*
%LPD*%
%LPC*%
G36*
X408961Y50801D02*
X408961Y50801D01*
X401960Y53701D01*
X396601Y59060D01*
X393701Y66061D01*
X393701Y73639D01*
X396601Y80640D01*
X401960Y85999D01*
X408961Y88899D01*
X416539Y88899D01*
X423540Y85999D01*
X428899Y80640D01*
X431799Y73639D01*
X431799Y66061D01*
X428899Y59060D01*
X423540Y53701D01*
X416539Y50801D01*
X408961Y50801D01*
G37*
%LPD*%
G36*
X126511Y126615D02*
X126511Y126615D01*
X126649Y126624D01*
X126668Y126630D01*
X126688Y126632D01*
X126820Y126679D01*
X126951Y126722D01*
X126969Y126732D01*
X126988Y126739D01*
X127103Y126817D01*
X127220Y126892D01*
X127234Y126907D01*
X127251Y126918D01*
X127343Y127022D01*
X127438Y127123D01*
X127448Y127141D01*
X127461Y127156D01*
X127525Y127280D01*
X127592Y127402D01*
X127597Y127422D01*
X127606Y127440D01*
X127636Y127575D01*
X127671Y127710D01*
X127673Y127738D01*
X127676Y127750D01*
X127675Y127770D01*
X127681Y127871D01*
X127681Y128709D01*
X135466Y136494D01*
X150622Y136494D01*
X150740Y136509D01*
X150859Y136516D01*
X150897Y136529D01*
X150938Y136534D01*
X151048Y136577D01*
X151161Y136614D01*
X151196Y136636D01*
X151233Y136651D01*
X151329Y136720D01*
X151430Y136784D01*
X151458Y136814D01*
X151491Y136837D01*
X151567Y136929D01*
X151648Y137016D01*
X151668Y137051D01*
X151693Y137082D01*
X151744Y137190D01*
X151802Y137294D01*
X151812Y137334D01*
X151829Y137370D01*
X151851Y137487D01*
X151881Y137602D01*
X151885Y137662D01*
X151889Y137682D01*
X151887Y137703D01*
X151891Y137763D01*
X151891Y142759D01*
X152378Y143245D01*
X152438Y143323D01*
X152506Y143396D01*
X152535Y143449D01*
X152572Y143496D01*
X152612Y143587D01*
X152660Y143674D01*
X152675Y143733D01*
X152699Y143788D01*
X152714Y143886D01*
X152739Y143982D01*
X152745Y144082D01*
X152749Y144102D01*
X152747Y144115D01*
X152749Y144143D01*
X152749Y151170D01*
X152734Y151288D01*
X152727Y151407D01*
X152714Y151445D01*
X152709Y151485D01*
X152666Y151596D01*
X152629Y151709D01*
X152607Y151743D01*
X152592Y151781D01*
X152523Y151877D01*
X152459Y151978D01*
X152429Y152006D01*
X152406Y152038D01*
X152314Y152114D01*
X152227Y152196D01*
X152192Y152215D01*
X152161Y152241D01*
X152053Y152292D01*
X151949Y152349D01*
X151909Y152359D01*
X151873Y152377D01*
X151766Y152397D01*
X151796Y152401D01*
X151906Y152445D01*
X152019Y152481D01*
X152054Y152503D01*
X152091Y152518D01*
X152187Y152588D01*
X152288Y152651D01*
X152316Y152681D01*
X152349Y152705D01*
X152425Y152796D01*
X152506Y152883D01*
X152526Y152918D01*
X152551Y152950D01*
X152602Y153057D01*
X152660Y153162D01*
X152670Y153201D01*
X152687Y153237D01*
X152709Y153354D01*
X152739Y153470D01*
X152743Y153530D01*
X152747Y153550D01*
X152745Y153570D01*
X152749Y153630D01*
X152749Y159941D01*
X156084Y159941D01*
X156731Y159768D01*
X157310Y159433D01*
X157493Y159250D01*
X157584Y159179D01*
X157609Y159156D01*
X157614Y159153D01*
X157677Y159098D01*
X157713Y159080D01*
X157745Y159055D01*
X157854Y159008D01*
X157960Y158953D01*
X157999Y158945D01*
X158036Y158929D01*
X158154Y158910D01*
X158270Y158884D01*
X158311Y158885D01*
X158351Y158879D01*
X158469Y158890D01*
X158588Y158893D01*
X158627Y158905D01*
X158667Y158909D01*
X158779Y158949D01*
X158894Y158982D01*
X158928Y159002D01*
X158966Y159016D01*
X159065Y159083D01*
X159167Y159143D01*
X159213Y159183D01*
X159230Y159195D01*
X159243Y159210D01*
X159288Y159250D01*
X160487Y160449D01*
X161662Y160449D01*
X161780Y160464D01*
X161899Y160471D01*
X161937Y160484D01*
X161978Y160489D01*
X162088Y160532D01*
X162201Y160569D01*
X162236Y160591D01*
X162273Y160606D01*
X162369Y160675D01*
X162470Y160739D01*
X162498Y160769D01*
X162531Y160792D01*
X162607Y160884D01*
X162688Y160971D01*
X162708Y161006D01*
X162733Y161037D01*
X162784Y161145D01*
X162842Y161249D01*
X162852Y161289D01*
X162869Y161325D01*
X162891Y161442D01*
X162921Y161557D01*
X162925Y161617D01*
X162929Y161637D01*
X162927Y161658D01*
X162931Y161718D01*
X162931Y162132D01*
X162916Y162250D01*
X162909Y162369D01*
X162896Y162407D01*
X162891Y162448D01*
X162848Y162558D01*
X162811Y162671D01*
X162789Y162706D01*
X162774Y162743D01*
X162705Y162839D01*
X162641Y162940D01*
X162611Y162968D01*
X162588Y163001D01*
X162496Y163077D01*
X162409Y163158D01*
X162374Y163178D01*
X162343Y163203D01*
X162235Y163254D01*
X162131Y163312D01*
X162091Y163322D01*
X162055Y163339D01*
X161938Y163361D01*
X161823Y163391D01*
X161763Y163395D01*
X161743Y163399D01*
X161722Y163397D01*
X161662Y163401D01*
X160487Y163401D01*
X159288Y164600D01*
X159194Y164673D01*
X159105Y164752D01*
X159069Y164770D01*
X159037Y164795D01*
X158928Y164842D01*
X158822Y164897D01*
X158782Y164905D01*
X158745Y164921D01*
X158627Y164940D01*
X158511Y164966D01*
X158471Y164965D01*
X158431Y164971D01*
X158312Y164960D01*
X158194Y164957D01*
X158155Y164945D01*
X158114Y164941D01*
X158002Y164901D01*
X157888Y164868D01*
X157853Y164848D01*
X157815Y164834D01*
X157717Y164767D01*
X157614Y164707D01*
X157569Y164667D01*
X157552Y164655D01*
X157539Y164640D01*
X157493Y164600D01*
X157310Y164417D01*
X156731Y164082D01*
X156084Y163909D01*
X152749Y163909D01*
X152749Y170220D01*
X152734Y170338D01*
X152727Y170457D01*
X152714Y170495D01*
X152709Y170535D01*
X152666Y170646D01*
X152629Y170759D01*
X152607Y170793D01*
X152592Y170831D01*
X152523Y170927D01*
X152459Y171028D01*
X152429Y171056D01*
X152406Y171088D01*
X152314Y171164D01*
X152227Y171246D01*
X152192Y171265D01*
X152161Y171291D01*
X152053Y171342D01*
X151949Y171399D01*
X151909Y171409D01*
X151873Y171427D01*
X151756Y171449D01*
X151641Y171479D01*
X151581Y171483D01*
X151561Y171486D01*
X151540Y171485D01*
X151480Y171489D01*
X150289Y171489D01*
X150289Y172680D01*
X150274Y172798D01*
X150267Y172917D01*
X150254Y172955D01*
X150249Y172996D01*
X150205Y173106D01*
X150169Y173219D01*
X150147Y173254D01*
X150132Y173291D01*
X150062Y173387D01*
X149999Y173488D01*
X149969Y173516D01*
X149945Y173549D01*
X149854Y173625D01*
X149767Y173706D01*
X149732Y173726D01*
X149700Y173751D01*
X149593Y173802D01*
X149488Y173860D01*
X149449Y173870D01*
X149413Y173887D01*
X149296Y173909D01*
X149180Y173939D01*
X149120Y173943D01*
X149100Y173947D01*
X149080Y173945D01*
X149020Y173949D01*
X142209Y173949D01*
X142209Y176784D01*
X142382Y177431D01*
X142717Y178010D01*
X143190Y178483D01*
X143769Y178818D01*
X144435Y178996D01*
X144577Y179054D01*
X144718Y179110D01*
X144723Y179114D01*
X144730Y179116D01*
X144852Y179207D01*
X144975Y179296D01*
X144980Y179302D01*
X144985Y179306D01*
X145080Y179423D01*
X145178Y179541D01*
X145181Y179548D01*
X145185Y179553D01*
X145249Y179692D01*
X145314Y179829D01*
X145315Y179836D01*
X145318Y179842D01*
X145345Y179993D01*
X145373Y180142D01*
X145373Y180148D01*
X145374Y180155D01*
X145363Y180307D01*
X145354Y180459D01*
X145352Y180465D01*
X145351Y180472D01*
X145302Y180618D01*
X145256Y180761D01*
X145252Y180767D01*
X145250Y180774D01*
X145167Y180902D01*
X145086Y181030D01*
X145081Y181035D01*
X145077Y181040D01*
X144966Y181143D01*
X144854Y181248D01*
X144848Y181251D01*
X144843Y181256D01*
X144709Y181328D01*
X144575Y181402D01*
X144569Y181403D01*
X144563Y181406D01*
X144414Y181443D01*
X144267Y181481D01*
X144258Y181482D01*
X144254Y181483D01*
X144243Y181483D01*
X144107Y181491D01*
X137588Y181491D01*
X137470Y181476D01*
X137351Y181469D01*
X137313Y181456D01*
X137272Y181451D01*
X137162Y181408D01*
X137049Y181371D01*
X137014Y181349D01*
X136977Y181334D01*
X136881Y181265D01*
X136780Y181201D01*
X136752Y181171D01*
X136719Y181148D01*
X136643Y181056D01*
X136562Y180969D01*
X136542Y180934D01*
X136517Y180903D01*
X136466Y180795D01*
X136408Y180691D01*
X136398Y180651D01*
X136381Y180615D01*
X136359Y180498D01*
X136329Y180383D01*
X136325Y180323D01*
X136321Y180303D01*
X136323Y180282D01*
X136319Y180222D01*
X136319Y155611D01*
X133417Y152710D01*
X120260Y139553D01*
X120200Y139475D01*
X120132Y139403D01*
X120103Y139350D01*
X120066Y139302D01*
X120026Y139211D01*
X119978Y139124D01*
X119963Y139065D01*
X119939Y139010D01*
X119924Y138912D01*
X119899Y138816D01*
X119893Y138716D01*
X119889Y138696D01*
X119891Y138683D01*
X119889Y138655D01*
X119889Y132588D01*
X119904Y132470D01*
X119911Y132351D01*
X119924Y132313D01*
X119929Y132272D01*
X119972Y132162D01*
X120009Y132049D01*
X120031Y132014D01*
X120046Y131977D01*
X120115Y131881D01*
X120179Y131780D01*
X120209Y131752D01*
X120232Y131719D01*
X120324Y131643D01*
X120411Y131562D01*
X120446Y131542D01*
X120477Y131517D01*
X120585Y131466D01*
X120689Y131408D01*
X120729Y131398D01*
X120765Y131381D01*
X120882Y131359D01*
X120997Y131329D01*
X121057Y131325D01*
X121077Y131321D01*
X121098Y131323D01*
X121158Y131319D01*
X121169Y131319D01*
X125515Y126973D01*
X125624Y126888D01*
X125731Y126799D01*
X125750Y126791D01*
X125766Y126778D01*
X125894Y126723D01*
X126019Y126664D01*
X126039Y126660D01*
X126058Y126652D01*
X126196Y126630D01*
X126332Y126604D01*
X126352Y126605D01*
X126372Y126602D01*
X126511Y126615D01*
G37*
G36*
X105308Y42434D02*
X105308Y42434D01*
X105427Y42441D01*
X105465Y42454D01*
X105506Y42459D01*
X105616Y42502D01*
X105729Y42539D01*
X105764Y42561D01*
X105801Y42576D01*
X105897Y42645D01*
X105998Y42709D01*
X106026Y42739D01*
X106059Y42762D01*
X106135Y42854D01*
X106216Y42941D01*
X106236Y42976D01*
X106261Y43007D01*
X106312Y43115D01*
X106370Y43219D01*
X106380Y43259D01*
X106397Y43295D01*
X106419Y43412D01*
X106449Y43527D01*
X106453Y43587D01*
X106457Y43607D01*
X106455Y43628D01*
X106459Y43688D01*
X106459Y49301D01*
X111770Y49301D01*
X111888Y49316D01*
X112007Y49323D01*
X112045Y49335D01*
X112085Y49341D01*
X112196Y49384D01*
X112309Y49421D01*
X112343Y49443D01*
X112381Y49458D01*
X112477Y49527D01*
X112578Y49591D01*
X112606Y49621D01*
X112638Y49644D01*
X112714Y49736D01*
X112796Y49823D01*
X112815Y49858D01*
X112841Y49889D01*
X112861Y49933D01*
X112937Y49988D01*
X113038Y50051D01*
X113066Y50081D01*
X113099Y50105D01*
X113175Y50196D01*
X113256Y50283D01*
X113276Y50318D01*
X113301Y50350D01*
X113352Y50457D01*
X113410Y50562D01*
X113420Y50601D01*
X113437Y50637D01*
X113459Y50754D01*
X113489Y50870D01*
X113493Y50930D01*
X113497Y50950D01*
X113495Y50970D01*
X113499Y51030D01*
X113499Y60091D01*
X115365Y60091D01*
X115503Y60108D01*
X115641Y60121D01*
X115660Y60128D01*
X115680Y60131D01*
X115809Y60182D01*
X115941Y60229D01*
X115957Y60240D01*
X115976Y60248D01*
X116088Y60329D01*
X116204Y60407D01*
X116217Y60423D01*
X116233Y60434D01*
X116322Y60542D01*
X116414Y60646D01*
X116423Y60664D01*
X116436Y60679D01*
X116495Y60805D01*
X116559Y60929D01*
X116563Y60949D01*
X116572Y60967D01*
X116598Y61103D01*
X116628Y61239D01*
X116628Y61260D01*
X116632Y61279D01*
X116623Y61418D01*
X116619Y61557D01*
X116613Y61577D01*
X116612Y61597D01*
X116569Y61729D01*
X116530Y61863D01*
X116520Y61880D01*
X116514Y61899D01*
X116440Y62017D01*
X116369Y62137D01*
X116350Y62158D01*
X116344Y62168D01*
X116329Y62182D01*
X116296Y62219D01*
X115268Y64701D01*
X115268Y67379D01*
X116293Y69853D01*
X117309Y70870D01*
X117370Y70948D01*
X117438Y71020D01*
X117467Y71073D01*
X117504Y71121D01*
X117544Y71212D01*
X117592Y71298D01*
X117607Y71357D01*
X117631Y71413D01*
X117646Y71511D01*
X117671Y71606D01*
X117677Y71706D01*
X117681Y71727D01*
X117679Y71739D01*
X117681Y71767D01*
X117681Y92282D01*
X117666Y92400D01*
X117659Y92519D01*
X117646Y92557D01*
X117641Y92598D01*
X117598Y92708D01*
X117561Y92821D01*
X117539Y92856D01*
X117524Y92893D01*
X117455Y92989D01*
X117391Y93090D01*
X117361Y93118D01*
X117338Y93151D01*
X117246Y93227D01*
X117159Y93308D01*
X117124Y93328D01*
X117093Y93353D01*
X116985Y93404D01*
X116881Y93462D01*
X116841Y93472D01*
X116805Y93489D01*
X116688Y93511D01*
X116573Y93541D01*
X116513Y93545D01*
X116493Y93549D01*
X116472Y93547D01*
X116412Y93551D01*
X103337Y93551D01*
X102497Y94391D01*
X102403Y94464D01*
X102314Y94543D01*
X102278Y94561D01*
X102246Y94586D01*
X102137Y94633D01*
X102031Y94687D01*
X101992Y94696D01*
X101954Y94712D01*
X101837Y94731D01*
X101721Y94757D01*
X101680Y94756D01*
X101640Y94762D01*
X101522Y94751D01*
X101403Y94747D01*
X101364Y94736D01*
X101324Y94732D01*
X101212Y94692D01*
X101097Y94659D01*
X101062Y94638D01*
X101024Y94625D01*
X100926Y94558D01*
X100823Y94497D01*
X100778Y94458D01*
X100761Y94446D01*
X100748Y94431D01*
X100702Y94391D01*
X99863Y93551D01*
X98688Y93551D01*
X98570Y93536D01*
X98451Y93529D01*
X98413Y93516D01*
X98372Y93511D01*
X98262Y93468D01*
X98149Y93431D01*
X98114Y93409D01*
X98077Y93394D01*
X97981Y93325D01*
X97880Y93261D01*
X97852Y93231D01*
X97819Y93208D01*
X97743Y93116D01*
X97662Y93029D01*
X97642Y92994D01*
X97617Y92963D01*
X97566Y92855D01*
X97508Y92751D01*
X97498Y92711D01*
X97481Y92675D01*
X97459Y92558D01*
X97429Y92443D01*
X97425Y92383D01*
X97421Y92363D01*
X97423Y92342D01*
X97419Y92282D01*
X97419Y43688D01*
X97434Y43570D01*
X97441Y43451D01*
X97454Y43413D01*
X97459Y43372D01*
X97502Y43262D01*
X97539Y43149D01*
X97561Y43114D01*
X97576Y43077D01*
X97645Y42981D01*
X97709Y42880D01*
X97739Y42852D01*
X97762Y42819D01*
X97854Y42743D01*
X97941Y42662D01*
X97976Y42642D01*
X98007Y42617D01*
X98115Y42566D01*
X98219Y42508D01*
X98259Y42498D01*
X98295Y42481D01*
X98412Y42459D01*
X98527Y42429D01*
X98587Y42425D01*
X98607Y42421D01*
X98628Y42423D01*
X98688Y42419D01*
X105190Y42419D01*
X105308Y42434D01*
G37*
G36*
X234019Y141506D02*
X234019Y141506D01*
X234118Y141509D01*
X234176Y141526D01*
X234236Y141534D01*
X234328Y141570D01*
X234423Y141598D01*
X234475Y141628D01*
X234532Y141651D01*
X234612Y141709D01*
X234697Y141759D01*
X234772Y141825D01*
X234789Y141837D01*
X234797Y141847D01*
X234818Y141865D01*
X235645Y142693D01*
X235730Y142802D01*
X235819Y142909D01*
X235827Y142928D01*
X235840Y142944D01*
X235895Y143072D01*
X235954Y143197D01*
X235958Y143217D01*
X235966Y143236D01*
X235988Y143373D01*
X236014Y143510D01*
X236013Y143530D01*
X236016Y143550D01*
X236003Y143689D01*
X235994Y143827D01*
X235988Y143846D01*
X235986Y143866D01*
X235939Y143997D01*
X235896Y144129D01*
X235885Y144147D01*
X235879Y144166D01*
X235801Y144280D01*
X235726Y144398D01*
X235711Y144412D01*
X235700Y144429D01*
X235596Y144521D01*
X235495Y144616D01*
X235477Y144626D01*
X235462Y144639D01*
X235338Y144702D01*
X235216Y144770D01*
X235196Y144775D01*
X235178Y144784D01*
X235042Y144814D01*
X234908Y144849D01*
X234880Y144851D01*
X234868Y144854D01*
X234848Y144853D01*
X234747Y144859D01*
X233249Y144859D01*
X233249Y151170D01*
X233234Y151288D01*
X233227Y151407D01*
X233214Y151445D01*
X233209Y151485D01*
X233166Y151596D01*
X233129Y151709D01*
X233107Y151743D01*
X233092Y151781D01*
X233023Y151877D01*
X232959Y151978D01*
X232929Y152006D01*
X232906Y152038D01*
X232814Y152114D01*
X232727Y152196D01*
X232692Y152215D01*
X232661Y152241D01*
X232553Y152292D01*
X232449Y152349D01*
X232409Y152359D01*
X232373Y152377D01*
X232266Y152397D01*
X232296Y152401D01*
X232406Y152445D01*
X232519Y152481D01*
X232554Y152503D01*
X232591Y152518D01*
X232687Y152588D01*
X232788Y152651D01*
X232816Y152681D01*
X232849Y152705D01*
X232925Y152796D01*
X233006Y152883D01*
X233026Y152918D01*
X233051Y152950D01*
X233102Y153057D01*
X233160Y153162D01*
X233170Y153201D01*
X233187Y153237D01*
X233209Y153354D01*
X233239Y153470D01*
X233243Y153530D01*
X233247Y153550D01*
X233245Y153570D01*
X233249Y153630D01*
X233249Y159941D01*
X235712Y159941D01*
X235830Y159956D01*
X235949Y159963D01*
X235987Y159976D01*
X236028Y159981D01*
X236138Y160024D01*
X236251Y160061D01*
X236286Y160083D01*
X236323Y160098D01*
X236419Y160167D01*
X236520Y160231D01*
X236548Y160261D01*
X236581Y160284D01*
X236657Y160376D01*
X236738Y160463D01*
X236758Y160498D01*
X236783Y160529D01*
X236834Y160637D01*
X236892Y160741D01*
X236902Y160781D01*
X236919Y160817D01*
X236941Y160934D01*
X236971Y161049D01*
X236975Y161109D01*
X236979Y161129D01*
X236977Y161150D01*
X236981Y161210D01*
X236981Y162640D01*
X236966Y162758D01*
X236959Y162877D01*
X236946Y162915D01*
X236941Y162956D01*
X236898Y163066D01*
X236861Y163179D01*
X236839Y163214D01*
X236824Y163251D01*
X236755Y163347D01*
X236691Y163448D01*
X236661Y163476D01*
X236638Y163509D01*
X236546Y163585D01*
X236459Y163666D01*
X236424Y163686D01*
X236393Y163711D01*
X236285Y163762D01*
X236181Y163820D01*
X236141Y163830D01*
X236105Y163847D01*
X235988Y163869D01*
X235873Y163899D01*
X235813Y163903D01*
X235793Y163907D01*
X235772Y163905D01*
X235712Y163909D01*
X233249Y163909D01*
X233249Y170220D01*
X233234Y170338D01*
X233227Y170457D01*
X233214Y170495D01*
X233209Y170535D01*
X233166Y170646D01*
X233129Y170759D01*
X233107Y170793D01*
X233092Y170831D01*
X233023Y170927D01*
X232959Y171028D01*
X232929Y171056D01*
X232906Y171088D01*
X232814Y171164D01*
X232727Y171246D01*
X232692Y171265D01*
X232661Y171291D01*
X232553Y171342D01*
X232449Y171399D01*
X232409Y171409D01*
X232373Y171427D01*
X232266Y171447D01*
X232296Y171451D01*
X232406Y171495D01*
X232519Y171531D01*
X232554Y171553D01*
X232591Y171568D01*
X232687Y171638D01*
X232788Y171701D01*
X232816Y171731D01*
X232849Y171755D01*
X232925Y171846D01*
X233006Y171933D01*
X233026Y171968D01*
X233051Y172000D01*
X233102Y172107D01*
X233160Y172212D01*
X233170Y172251D01*
X233187Y172287D01*
X233209Y172404D01*
X233239Y172520D01*
X233243Y172580D01*
X233247Y172600D01*
X233245Y172620D01*
X233249Y172680D01*
X233249Y178991D01*
X235712Y178991D01*
X235830Y179006D01*
X235949Y179013D01*
X235987Y179026D01*
X236028Y179031D01*
X236138Y179074D01*
X236251Y179111D01*
X236286Y179133D01*
X236323Y179148D01*
X236419Y179217D01*
X236520Y179281D01*
X236548Y179311D01*
X236581Y179334D01*
X236657Y179426D01*
X236738Y179513D01*
X236758Y179548D01*
X236783Y179579D01*
X236834Y179687D01*
X236892Y179791D01*
X236902Y179831D01*
X236919Y179867D01*
X236941Y179984D01*
X236971Y180099D01*
X236975Y180159D01*
X236979Y180179D01*
X236977Y180200D01*
X236981Y180260D01*
X236981Y182797D01*
X236969Y182895D01*
X236966Y182994D01*
X236949Y183053D01*
X236941Y183113D01*
X236905Y183205D01*
X236877Y183300D01*
X236847Y183352D01*
X236824Y183408D01*
X236766Y183488D01*
X236716Y183574D01*
X236650Y183649D01*
X236638Y183666D01*
X236628Y183674D01*
X236610Y183695D01*
X234495Y185810D01*
X234416Y185870D01*
X234344Y185938D01*
X234291Y185967D01*
X234243Y186004D01*
X234152Y186044D01*
X234066Y186092D01*
X234007Y186107D01*
X233952Y186131D01*
X233854Y186146D01*
X233758Y186171D01*
X233658Y186177D01*
X233637Y186181D01*
X233625Y186179D01*
X233597Y186181D01*
X226143Y186181D01*
X226045Y186169D01*
X225946Y186166D01*
X225887Y186149D01*
X225827Y186141D01*
X225735Y186105D01*
X225640Y186077D01*
X225588Y186047D01*
X225532Y186024D01*
X225452Y185966D01*
X225366Y185916D01*
X225291Y185850D01*
X225274Y185838D01*
X225266Y185828D01*
X225245Y185810D01*
X222250Y182815D01*
X222190Y182736D01*
X222122Y182664D01*
X222093Y182611D01*
X222056Y182563D01*
X222016Y182472D01*
X221968Y182386D01*
X221953Y182327D01*
X221929Y182272D01*
X221914Y182174D01*
X221889Y182078D01*
X221883Y181978D01*
X221879Y181957D01*
X221881Y181945D01*
X221879Y181917D01*
X221879Y179636D01*
X221895Y179505D01*
X221906Y179373D01*
X221915Y179347D01*
X221919Y179320D01*
X221967Y179197D01*
X222011Y179072D01*
X222026Y179050D01*
X222036Y179025D01*
X222113Y178917D01*
X222187Y178807D01*
X222207Y178789D01*
X222222Y178767D01*
X222324Y178683D01*
X222423Y178594D01*
X222447Y178582D01*
X222467Y178564D01*
X222587Y178508D01*
X222704Y178447D01*
X222731Y178440D01*
X222755Y178429D01*
X222885Y178404D01*
X223014Y178374D01*
X223041Y178374D01*
X223067Y178369D01*
X223199Y178377D01*
X223332Y178380D01*
X223358Y178387D01*
X223385Y178389D01*
X223511Y178430D01*
X223638Y178465D01*
X223673Y178482D01*
X223687Y178487D01*
X223706Y178498D01*
X223783Y178537D01*
X224269Y178818D01*
X224916Y178991D01*
X228251Y178991D01*
X228251Y172680D01*
X228266Y172562D01*
X228273Y172443D01*
X228285Y172405D01*
X228291Y172365D01*
X228334Y172254D01*
X228371Y172141D01*
X228393Y172107D01*
X228408Y172069D01*
X228477Y171973D01*
X228541Y171872D01*
X228571Y171844D01*
X228594Y171812D01*
X228686Y171736D01*
X228773Y171654D01*
X228808Y171635D01*
X228839Y171609D01*
X228947Y171558D01*
X229051Y171501D01*
X229091Y171491D01*
X229127Y171473D01*
X229234Y171453D01*
X229204Y171449D01*
X229094Y171405D01*
X228981Y171369D01*
X228946Y171347D01*
X228909Y171332D01*
X228812Y171262D01*
X228712Y171199D01*
X228684Y171169D01*
X228651Y171145D01*
X228575Y171054D01*
X228494Y170967D01*
X228474Y170932D01*
X228449Y170900D01*
X228398Y170793D01*
X228340Y170688D01*
X228330Y170649D01*
X228313Y170613D01*
X228291Y170496D01*
X228261Y170380D01*
X228257Y170320D01*
X228253Y170300D01*
X228255Y170280D01*
X228251Y170220D01*
X228251Y163909D01*
X224916Y163909D01*
X224269Y164082D01*
X223690Y164417D01*
X223507Y164600D01*
X223413Y164673D01*
X223323Y164752D01*
X223287Y164770D01*
X223255Y164795D01*
X223146Y164842D01*
X223040Y164897D01*
X223001Y164905D01*
X222964Y164921D01*
X222846Y164940D01*
X222730Y164966D01*
X222689Y164965D01*
X222649Y164971D01*
X222531Y164960D01*
X222412Y164957D01*
X222373Y164945D01*
X222333Y164941D01*
X222221Y164901D01*
X222106Y164868D01*
X222072Y164848D01*
X222034Y164834D01*
X221935Y164767D01*
X221833Y164707D01*
X221787Y164667D01*
X221770Y164655D01*
X221757Y164640D01*
X221712Y164600D01*
X220513Y163401D01*
X219338Y163401D01*
X219220Y163386D01*
X219101Y163379D01*
X219063Y163366D01*
X219022Y163361D01*
X218912Y163318D01*
X218799Y163281D01*
X218764Y163259D01*
X218727Y163244D01*
X218631Y163175D01*
X218530Y163111D01*
X218502Y163081D01*
X218469Y163058D01*
X218393Y162966D01*
X218312Y162879D01*
X218292Y162844D01*
X218267Y162813D01*
X218216Y162705D01*
X218158Y162601D01*
X218148Y162561D01*
X218131Y162525D01*
X218109Y162408D01*
X218079Y162293D01*
X218075Y162233D01*
X218071Y162213D01*
X218073Y162192D01*
X218069Y162132D01*
X218069Y161718D01*
X218084Y161600D01*
X218091Y161481D01*
X218104Y161443D01*
X218109Y161402D01*
X218152Y161292D01*
X218189Y161179D01*
X218211Y161144D01*
X218226Y161107D01*
X218295Y161011D01*
X218359Y160910D01*
X218389Y160882D01*
X218412Y160849D01*
X218504Y160773D01*
X218591Y160692D01*
X218626Y160672D01*
X218657Y160647D01*
X218765Y160596D01*
X218869Y160538D01*
X218909Y160528D01*
X218945Y160511D01*
X219062Y160489D01*
X219177Y160459D01*
X219237Y160455D01*
X219257Y160451D01*
X219278Y160453D01*
X219338Y160449D01*
X220513Y160449D01*
X221712Y159250D01*
X221803Y159179D01*
X221827Y159156D01*
X221832Y159154D01*
X221895Y159098D01*
X221931Y159080D01*
X221963Y159055D01*
X222072Y159008D01*
X222178Y158953D01*
X222218Y158945D01*
X222255Y158929D01*
X222373Y158910D01*
X222489Y158884D01*
X222529Y158885D01*
X222569Y158879D01*
X222688Y158890D01*
X222806Y158893D01*
X222845Y158905D01*
X222886Y158909D01*
X222998Y158949D01*
X223112Y158982D01*
X223147Y159002D01*
X223185Y159016D01*
X223283Y159083D01*
X223386Y159143D01*
X223431Y159183D01*
X223448Y159195D01*
X223461Y159210D01*
X223507Y159250D01*
X223690Y159433D01*
X224269Y159768D01*
X224916Y159941D01*
X228251Y159941D01*
X228251Y153630D01*
X228266Y153512D01*
X228273Y153393D01*
X228285Y153355D01*
X228291Y153315D01*
X228334Y153204D01*
X228371Y153091D01*
X228393Y153057D01*
X228408Y153019D01*
X228477Y152923D01*
X228541Y152822D01*
X228571Y152794D01*
X228594Y152762D01*
X228686Y152686D01*
X228773Y152604D01*
X228808Y152585D01*
X228839Y152559D01*
X228947Y152508D01*
X229051Y152451D01*
X229091Y152441D01*
X229127Y152423D01*
X229234Y152403D01*
X229204Y152399D01*
X229094Y152355D01*
X228981Y152319D01*
X228946Y152297D01*
X228909Y152282D01*
X228812Y152212D01*
X228712Y152149D01*
X228684Y152119D01*
X228651Y152095D01*
X228575Y152004D01*
X228494Y151917D01*
X228474Y151882D01*
X228449Y151850D01*
X228398Y151743D01*
X228340Y151638D01*
X228330Y151599D01*
X228313Y151563D01*
X228291Y151446D01*
X228261Y151330D01*
X228257Y151270D01*
X228253Y151250D01*
X228255Y151230D01*
X228251Y151170D01*
X228251Y145413D01*
X228263Y145314D01*
X228266Y145215D01*
X228283Y145157D01*
X228291Y145097D01*
X228327Y145005D01*
X228355Y144910D01*
X228385Y144858D01*
X228408Y144801D01*
X228466Y144721D01*
X228516Y144636D01*
X228582Y144561D01*
X228594Y144544D01*
X228604Y144536D01*
X228622Y144515D01*
X229109Y144029D01*
X229109Y142763D01*
X229124Y142645D01*
X229131Y142526D01*
X229144Y142488D01*
X229149Y142447D01*
X229192Y142337D01*
X229229Y142224D01*
X229251Y142189D01*
X229266Y142152D01*
X229335Y142056D01*
X229399Y141955D01*
X229429Y141927D01*
X229452Y141894D01*
X229544Y141818D01*
X229631Y141737D01*
X229666Y141717D01*
X229697Y141692D01*
X229805Y141641D01*
X229909Y141583D01*
X229949Y141573D01*
X229985Y141556D01*
X230102Y141534D01*
X230217Y141504D01*
X230277Y141500D01*
X230297Y141496D01*
X230318Y141498D01*
X230378Y141494D01*
X233920Y141494D01*
X234019Y141506D01*
G37*
%LPC*%
G36*
X15239Y180339D02*
X15239Y180339D01*
X15239Y189485D01*
X15496Y189445D01*
X17283Y188864D01*
X18957Y188011D01*
X20478Y186906D01*
X21806Y185578D01*
X22911Y184057D01*
X23764Y182383D01*
X24345Y180596D01*
X24385Y180339D01*
X15239Y180339D01*
G37*
%LPD*%
G36*
X102889Y119901D02*
X102889Y119901D01*
X102911Y119904D01*
X102918Y119920D01*
X102927Y119926D01*
X102926Y119936D01*
X102933Y119952D01*
X102933Y134049D01*
X102921Y134067D01*
X102917Y134090D01*
X102902Y134097D01*
X102896Y134106D01*
X102886Y134104D01*
X102870Y134111D01*
X100330Y134111D01*
X100311Y134099D01*
X100289Y134096D01*
X100282Y134080D01*
X100273Y134074D01*
X100274Y134064D01*
X100267Y134049D01*
X100267Y119952D01*
X100279Y119933D01*
X100283Y119910D01*
X100298Y119903D01*
X100304Y119894D01*
X100314Y119896D01*
X100330Y119889D01*
X102870Y119889D01*
X102889Y119901D01*
G37*
%LPC*%
G36*
X143499Y204699D02*
X143499Y204699D01*
X143499Y212491D01*
X145334Y212491D01*
X145981Y212318D01*
X146560Y211983D01*
X147033Y211510D01*
X147368Y210931D01*
X147541Y210284D01*
X147541Y204699D01*
X143499Y204699D01*
G37*
%LPD*%
%LPC*%
G36*
X143499Y193909D02*
X143499Y193909D01*
X143499Y201701D01*
X147541Y201701D01*
X147541Y196116D01*
X147368Y195469D01*
X147033Y194890D01*
X146560Y194417D01*
X145981Y194082D01*
X145334Y193909D01*
X143499Y193909D01*
G37*
%LPD*%
%LPC*%
G36*
X106459Y52299D02*
X106459Y52299D01*
X106459Y57884D01*
X106632Y58531D01*
X106967Y59110D01*
X107440Y59583D01*
X108019Y59918D01*
X108666Y60091D01*
X110501Y60091D01*
X110501Y52299D01*
X106459Y52299D01*
G37*
%LPD*%
%LPC*%
G36*
X60070Y52450D02*
X60070Y52450D01*
X60070Y57484D01*
X60243Y58131D01*
X60578Y58710D01*
X61051Y59183D01*
X61630Y59518D01*
X62276Y59691D01*
X64263Y59691D01*
X64263Y52450D01*
X60070Y52450D01*
G37*
%LPD*%
%LPC*%
G36*
X142209Y154899D02*
X142209Y154899D01*
X142209Y157734D01*
X142382Y158381D01*
X142717Y158960D01*
X143190Y159433D01*
X143769Y159768D01*
X144416Y159941D01*
X147751Y159941D01*
X147751Y154899D01*
X142209Y154899D01*
G37*
%LPD*%
%LPC*%
G36*
X144416Y163909D02*
X144416Y163909D01*
X143769Y164082D01*
X143190Y164417D01*
X142717Y164890D01*
X142382Y165469D01*
X142209Y166116D01*
X142209Y168951D01*
X147751Y168951D01*
X147751Y163909D01*
X144416Y163909D01*
G37*
%LPD*%
%LPC*%
G36*
X144416Y144859D02*
X144416Y144859D01*
X143769Y145032D01*
X143190Y145367D01*
X142717Y145840D01*
X142382Y146419D01*
X142209Y147066D01*
X142209Y149901D01*
X147751Y149901D01*
X147751Y144859D01*
X144416Y144859D01*
G37*
%LPD*%
%LPC*%
G36*
X255066Y75009D02*
X255066Y75009D01*
X254419Y75182D01*
X253840Y75517D01*
X253367Y75990D01*
X253032Y76569D01*
X252859Y77216D01*
X252859Y80051D01*
X258401Y80051D01*
X258401Y75009D01*
X255066Y75009D01*
G37*
%LPD*%
D10*
X99000Y14050D03*
X155000Y14050D03*
D11*
X112000Y50800D03*
X122000Y50800D03*
X132000Y50800D03*
X142000Y50800D03*
D12*
X167910Y122175D03*
X167910Y127175D03*
X167910Y132175D03*
X167910Y137175D03*
X167910Y117125D03*
X214160Y122175D03*
X214160Y127175D03*
X214160Y132175D03*
X214160Y137175D03*
X214160Y117125D03*
D10*
X155000Y239950D03*
X99000Y239950D03*
D11*
X142000Y203200D03*
X132000Y203200D03*
X122000Y203200D03*
X112000Y203200D03*
D13*
X277900Y107950D03*
X260900Y107950D03*
D14*
X294800Y86750D03*
X294800Y103750D03*
D13*
X260900Y82550D03*
X277900Y82550D03*
X277900Y146050D03*
X260900Y146050D03*
D14*
X294800Y167250D03*
X294800Y150250D03*
D13*
X260900Y171450D03*
X277900Y171450D03*
X167250Y152400D03*
X150250Y152400D03*
X213750Y171450D03*
X230750Y171450D03*
X167250Y171450D03*
X150250Y171450D03*
X213750Y152400D03*
X230750Y152400D03*
D15*
X323850Y171450D03*
X349250Y158750D03*
X323850Y146050D03*
X323850Y120650D03*
X323850Y95250D03*
X349250Y133350D03*
X349250Y107950D03*
D16*
X349250Y82550D03*
D13*
X93100Y101600D03*
X110100Y101600D03*
X93100Y152400D03*
X110100Y152400D03*
D17*
X101600Y137414D03*
X101600Y127000D03*
X101600Y116586D03*
D18*
X12700Y50800D03*
X438150Y247650D03*
D15*
X12700Y76200D03*
X266700Y12700D03*
X292100Y12700D03*
D13*
X62620Y31750D03*
X79620Y31750D03*
D19*
X65850Y16200D02*
X65850Y9200D01*
X58850Y9200D01*
X58850Y16200D01*
X65850Y16200D01*
X65850Y12050D02*
X58850Y12050D01*
X58850Y14900D02*
X65850Y14900D01*
X83390Y16200D02*
X83390Y9200D01*
X76390Y9200D01*
X76390Y16200D01*
X83390Y16200D01*
X83390Y12050D02*
X76390Y12050D01*
X76390Y14900D02*
X83390Y14900D01*
D20*
X65913Y50800D03*
X76327Y50800D03*
D15*
X12700Y177800D03*
X12700Y152400D03*
X12700Y127000D03*
X12700Y101600D03*
D21*
X80010Y152400D03*
D22*
X93100Y152400D01*
X132000Y126920D02*
X132000Y50800D01*
X132000Y126920D02*
X132080Y127000D01*
X137255Y132175D02*
X167910Y132175D01*
X93100Y152400D02*
X93100Y162950D01*
X95250Y165100D01*
X114300Y165100D01*
X122000Y172800D01*
X122000Y203200D01*
X137255Y132175D02*
X132080Y127000D01*
X132080Y101600D01*
D21*
X132080Y101600D03*
D22*
X93100Y101600D02*
X93100Y88900D01*
X93100Y40250D01*
X95250Y38100D01*
X139700Y38100D01*
X142000Y40400D01*
X142000Y50800D01*
X142000Y101600D01*
X142000Y110250D01*
X153925Y122175D01*
X167910Y122175D01*
D21*
X111760Y189230D03*
X152400Y101600D03*
D22*
X142000Y101600D01*
X111760Y189230D02*
X112000Y189470D01*
X112000Y203200D01*
X63500Y101600D02*
X12700Y101600D01*
X63500Y101600D02*
X76200Y88900D01*
X93100Y88900D01*
D21*
X107950Y66040D03*
D23*
X52070Y57150D03*
D21*
X134620Y144780D03*
D23*
X231140Y182880D03*
X383540Y157480D03*
X58420Y86360D03*
X62230Y114300D03*
X36830Y139700D03*
X189230Y50800D03*
X191770Y168910D03*
X293370Y219710D03*
X254000Y50800D03*
X304800Y38100D03*
D22*
X224790Y137175D02*
X214160Y137175D01*
X224790Y137175D02*
X224790Y142240D01*
X213750Y145660D02*
X213750Y152400D01*
X213750Y145660D02*
X215900Y143510D01*
X223520Y143510D01*
X224790Y142240D01*
X213750Y152400D02*
X213750Y171450D01*
X224790Y137175D02*
X236235Y137175D01*
X241300Y142240D01*
D21*
X245110Y171450D03*
X260350Y127000D03*
D22*
X260350Y108500D01*
X260900Y107950D01*
X260350Y145500D02*
X260900Y146050D01*
X260350Y145500D02*
X260350Y127000D01*
D24*
X213750Y171450D02*
X213750Y185810D01*
X245110Y186690D02*
X245110Y171450D01*
X245110Y186690D02*
X237490Y194310D01*
X222250Y194310D01*
D22*
X241300Y167640D02*
X241300Y142240D01*
X241300Y167640D02*
X245110Y171450D01*
X119380Y127000D02*
X115570Y127000D01*
X122000Y66040D02*
X122000Y50800D01*
X122000Y66040D02*
X122000Y124380D01*
X119380Y127000D01*
X115570Y127000D02*
X115570Y140970D01*
X165100Y143510D02*
X166370Y144780D01*
X165100Y143510D02*
X158750Y143510D01*
X156210Y140970D01*
X156210Y138430D01*
X157480Y137160D01*
X167895Y137160D01*
X167910Y137175D01*
X167250Y152400D02*
X167250Y171450D01*
X166370Y151520D02*
X166370Y144780D01*
X166370Y151520D02*
X167250Y152400D01*
X115570Y127000D02*
X101600Y127000D01*
X115570Y140970D02*
X132000Y157400D01*
X132000Y185420D01*
X132000Y203200D01*
X101600Y127000D02*
X63500Y127000D01*
X38100Y152400D01*
D25*
X88900Y21710D02*
X79890Y12700D01*
X88900Y21710D02*
X88900Y27940D01*
X92329Y31369D01*
X121920Y31369D01*
D23*
X121920Y31369D03*
X122000Y66040D03*
D22*
X38100Y152400D02*
X12700Y152400D01*
D24*
X213750Y185810D02*
X222250Y194310D01*
D22*
X213750Y185810D02*
X213260Y186300D01*
X213750Y185810D02*
X167640Y185810D01*
X132390Y185810D01*
X132000Y185420D01*
X167250Y185420D02*
X167250Y171450D01*
X167250Y185420D02*
X167640Y185810D01*
X167910Y127175D02*
X144955Y127175D01*
D21*
X140970Y123190D03*
D22*
X144955Y127175D01*
X214160Y132175D02*
X238855Y132175D01*
X249080Y161290D02*
X277900Y161290D01*
X277900Y171450D01*
X309880Y191770D02*
X336550Y191770D01*
X344170Y184150D01*
X344170Y163830D01*
X349250Y158750D01*
X246380Y139700D02*
X238855Y132175D01*
X246380Y139700D02*
X246380Y158590D01*
X249080Y161290D01*
X277900Y161290D02*
X281940Y161290D01*
X287900Y167250D01*
X294800Y167250D01*
X301870Y167250D01*
X303530Y168910D01*
X303530Y185420D01*
X309880Y191770D01*
X312420Y186690D02*
X334010Y186690D01*
X337820Y182880D01*
X337820Y172720D01*
X336550Y171450D01*
X323850Y171450D01*
X241475Y127175D02*
X214160Y127175D01*
X241475Y127175D02*
X251460Y137160D01*
X251460Y153670D01*
X254000Y156210D01*
X277900Y156210D01*
X277900Y146050D01*
X277900Y156210D02*
X281940Y156210D01*
X287900Y150250D01*
X294800Y150250D01*
X301380Y150250D01*
X308610Y157480D01*
X308610Y182880D01*
X312420Y186690D01*
X241045Y122175D02*
X214160Y122175D01*
X241045Y122175D02*
X250190Y113030D01*
X277900Y107950D02*
X277900Y97790D01*
X325120Y78740D02*
X335280Y88900D01*
X335280Y92710D01*
X332740Y95250D01*
X323850Y95250D01*
X250190Y100330D02*
X250190Y113030D01*
X252730Y97790D02*
X277900Y97790D01*
X252730Y97790D02*
X250190Y100330D01*
X277900Y97790D02*
X281940Y97790D01*
X287900Y103750D01*
X294800Y103750D01*
X302650Y103750D01*
X307340Y99060D01*
X307340Y83820D01*
X312420Y78740D01*
X325120Y78740D01*
X238475Y117125D02*
X214160Y117125D01*
X277900Y92710D02*
X277900Y82550D01*
X326390Y73660D02*
X335280Y82550D01*
X349250Y82550D01*
X245110Y110490D02*
X238475Y117125D01*
X245110Y110490D02*
X245110Y97790D01*
X250190Y92710D02*
X277900Y92710D01*
X250190Y92710D02*
X245110Y97790D01*
X277900Y92710D02*
X281940Y92710D01*
X287900Y86750D01*
X294800Y86750D01*
X300600Y86750D01*
X302260Y85090D01*
X302260Y82550D01*
X311150Y73660D01*
X326390Y73660D01*
X110100Y145660D02*
X110100Y152400D01*
X110100Y145660D02*
X109220Y144780D01*
X102870Y144780D01*
X101600Y143510D01*
X101600Y137414D01*
X110490Y101990D02*
X110100Y101600D01*
X110490Y101990D02*
X110490Y107950D01*
X107950Y110490D01*
X102870Y110490D01*
X101600Y111760D01*
X101600Y116586D01*
D25*
X62620Y31750D02*
X62620Y23250D01*
X62230Y22860D01*
X62230Y12820D01*
X62350Y12700D01*
X79620Y31750D02*
X79620Y38490D01*
X76327Y41783D02*
X76327Y50800D01*
X76327Y41783D02*
X79620Y38490D01*
M02*
